<svg width="112" height="112" viewBox="0 0 112 112" fill="none" xmlns="http://www.w3.org/2000/svg">
<path d="M104.597 20.6204C104.582 20.6855 104.585 20.6922 104.547 20.7605C103.934 21.8729 99.918 23.0421 98.6118 23.2159C97.976 23.3005 96.9588 23.0744 96.3948 23.3249C95.88 23.5537 95.7834 25.1786 95.5776 25.7185C95.4486 26.0573 95.2507 26.3923 94.9014 26.5377C94.0508 26.8919 91.4994 25.1516 90.5833 24.7837L90.4826 24.7438L90.4613 24.7985C90.3885 24.9898 90.3203 25.1991 90.2118 25.3741C89.9936 25.7265 89.5809 25.9677 89.1834 26.0555C87.8675 26.3461 86.3564 25.4582 85.3002 24.7749C82.9093 23.2281 79.8973 20.0762 78.7411 17.4418C78.4581 16.7969 78.3099 16.1284 78.1642 15.443C77.6153 15.3693 76.8037 15.459 76.3016 15.2717C76.1133 15.2015 76.0479 15.1612 75.9642 14.9796C76.0589 14.8519 76.0953 14.8725 76.2432 14.8334C76.9123 14.778 77.572 14.8456 78.2397 14.8947C78.2516 14.8736 78.263 14.8525 78.2752 14.8316C79.6927 12.4266 82.4718 10.5879 85.1468 9.91484C86.301 9.62451 88.6767 9.1408 89.7485 9.83005C89.9964 9.98943 90.1775 10.2289 90.2205 10.525C90.3032 11.0942 89.9753 11.5029 89.6565 11.9266C91.8659 12.4028 96.4535 11.9968 98.0273 13.774C99.0269 14.9028 98.0256 15.9649 97.9271 17.1361C98.0929 17.4938 99.1675 17.5745 99.5596 17.6916C101.496 18.2699 103.216 19.1201 104.597 20.6204Z" fill="#949AB8"/>
<path d="M38.0176 15.8647C38.1123 15.8546 38.2047 15.8463 38.2998 15.8437C40.0053 15.7963 41.8777 16.7476 43.0823 17.9131C43.848 18.6539 44.4848 19.643 44.4831 20.7428C44.4803 22.435 43.3258 22.4557 42.3977 23.4375C42.1176 23.7338 41.9536 24.0799 41.9728 24.4937C42.0075 25.2371 42.7626 25.6983 43.2535 26.166C43.6609 26.5541 44.0381 27.1089 44.0311 27.6925C44.0265 28.0806 43.8589 28.4505 43.6537 28.7724C42.4555 30.6508 39.7319 29.339 38.6843 30.46C38.0123 31.1792 38.8194 32.1653 38.8208 32.9699C38.8218 33.6002 38.5518 34.2388 38.0865 34.6647C37.5018 35.2002 36.715 35.3962 35.938 35.3595C34.1865 35.277 32.4097 33.9709 31.2387 32.7568C30.6915 32.1893 30.2203 31.5517 29.6954 30.9633C28.9208 32.0488 28.3195 33.2432 27.5889 34.3573C26.3642 36.2246 24.7823 37.8839 23.0962 39.3355C22.4216 39.9408 21.4681 40.6215 20.6137 40.9339C20.3152 41.043 19.9416 41.0059 19.667 40.8494C19.4487 40.7248 19.2664 40.517 19.2171 40.2657C19.1676 40.0137 19.2783 39.7018 19.4732 39.5318C19.9286 39.1347 20.7491 38.9665 21.3064 38.7224C21.8844 38.4694 22.4291 38.1745 22.9501 37.8183C25.9413 35.7739 27.3895 33.6301 29.236 30.6419C27.8426 30.1807 26.4927 29.6705 25.3782 28.6785C24.3789 27.789 23.8241 26.4446 23.7565 25.1205C23.6689 23.4042 24.4051 21.0634 25.5874 19.7954C27.2858 17.974 28.9227 19.7817 29.9965 19.6509C30.0927 19.6392 30.1189 19.5896 30.1465 19.4979C30.1943 19.3392 30.1872 19.1268 30.2049 18.9578C30.2765 18.2706 30.4214 17.6315 30.8183 17.0507C31.1458 16.5714 31.6351 16.2201 32.2153 16.127C33.5129 15.9187 33.7603 17.1966 34.5463 17.6982C34.6713 17.7781 34.7991 17.8338 34.9469 17.7872C35.7225 17.543 36.3779 16.2387 38.0176 15.8647Z" fill="#949AB8"/>
<path d="M83.1219 3.6205C83.1614 3.61663 83.2008 3.60569 83.2403 3.60902C83.404 3.62264 83.4737 3.70581 83.5785 3.81448C83.5812 3.91021 83.6033 3.96348 83.5412 4.04585C83.0413 4.71003 80.4956 5.33229 79.624 5.51973L79.3839 5.50985C79.2341 5.41372 79.2014 5.40411 79.1304 5.24391C79.2277 5.11281 79.2711 5.07743 79.4285 5.01468C79.8451 4.84874 80.315 4.76383 80.7463 4.63607C81.5906 4.38588 82.3547 4.05092 83.1219 3.6205Z" fill="#949AB8"/>
<path d="M99.1165 37.4527C99.2905 37.4256 99.3596 37.4297 99.5185 37.5066C99.5698 37.5823 99.6016 37.6469 99.6075 37.7403C99.6396 38.2593 99.5043 38.8768 99.4084 39.3858C98.9201 41.9764 97.8765 44.617 96.1522 46.6389C95.9685 46.6937 95.9418 46.7013 95.7581 46.6513L95.6957 46.5249C95.7456 45.9446 96.6435 45.0962 96.9462 44.5658C97.3449 43.8669 97.6842 43.0844 97.9783 42.3383C98.3179 41.4766 98.6114 40.5745 98.7543 39.6573C98.8657 38.9425 98.8745 38.1341 99.1165 37.4527Z" fill="#949AB8"/>
<path d="M80.8166 7.31698L81.0179 7.30256C81.1104 7.36077 81.134 7.38573 81.183 7.4888C81.2375 7.60321 81.2109 7.60281 81.1729 7.71308C80.6626 8.1451 79.1745 8.27834 78.4881 8.45897C76.6443 8.94425 74.9061 9.85902 73.8122 11.4676C73.5203 11.8967 73.3162 12.3673 73.0567 12.8148C73.0066 12.8088 72.9468 12.8044 72.9002 12.7846C72.7364 12.7149 72.7021 12.6388 72.6226 12.492C72.6161 12.1363 72.8417 11.8103 73.0349 11.5257C74.9185 8.75134 77.6846 7.93163 80.8166 7.31698Z" fill="#949AB8"/>
<path d="M72.802 19.9688C72.861 19.9891 72.9847 20.0209 73.0382 20.0616C73.1248 20.1274 73.1685 20.1864 73.1829 20.2933C73.2756 20.9736 72.509 22.0674 72.1324 22.6098C70.5215 24.9301 67.96 26.3523 65.2135 26.836L65.0189 26.8218C64.9061 26.6846 64.8957 26.6682 64.8758 26.4924C65.1289 26.1456 66.3554 25.94 66.8079 25.7872C68.8089 25.111 70.7268 23.8693 71.8182 22.0168C72.1978 21.3724 72.4448 20.6856 72.7755 20.0212L72.802 19.9688Z" fill="#949AB8"/>
<path d="M76.3076 22.6852L76.4927 22.8168C76.5556 22.98 76.5703 23.0654 76.519 23.237C76.2841 24.0233 75.2016 25.2937 74.6389 25.9052C71.9258 28.8534 67.4981 30.2289 63.6178 30.7496C61.2751 31.064 59.651 30.9794 57.5483 32.2549C57.419 32.1531 57.3734 32.092 57.313 31.9388C57.4933 30.7192 62.4155 30.3 63.566 30.1511C64.254 30.0615 64.9381 29.9486 65.6183 29.8124C68.9499 29.1383 72.3185 27.7028 74.585 25.0874C75.2186 24.3564 75.6267 23.4261 76.2667 22.7282C76.2801 22.7136 76.294 22.6996 76.3076 22.6852Z" fill="#949AB8"/>
<path d="M17.2135 15.2141C17.3598 15.2114 17.4381 15.2428 17.5694 15.3054C17.7816 15.6457 17.3697 16.0832 17.1827 16.3925C15.9286 18.4674 14.7463 20.5548 13.7253 22.7561C12.0119 26.4503 10.8125 30.2652 10.4806 34.3373C10.4403 34.8794 10.4328 35.422 10.458 35.9651C10.4855 36.5227 10.6578 37.3143 10.5365 37.8492C10.5269 37.8918 10.5153 37.9339 10.5048 37.9762L10.2382 37.967C10.0218 37.797 9.97819 37.4476 9.94767 37.1902C9.8737 36.5661 9.90379 35.893 9.9081 35.2642C9.94914 29.2775 12.4792 23.2786 15.4141 18.1673C15.9779 17.1855 16.5182 16.105 17.2135 15.2141Z" fill="#949AB8"/>
<path d="M31.5974 8.02053C31.7533 8.08622 31.8083 8.16031 31.9078 8.29461C31.9102 8.35069 31.9345 8.41023 31.915 8.46283C31.8292 8.69486 30.5765 9.46784 30.2689 9.6952C25.2221 13.4256 20.1773 21.5268 18.2782 27.4493C17.8845 28.6767 17.5761 29.9776 17.3456 31.2455C17.2302 31.8807 17.2201 32.6012 17.0089 33.207C17.002 33.2268 16.9943 33.2464 16.9871 33.266C16.7875 33.2133 16.7529 33.2182 16.6226 33.0627C16.3404 32.0218 17.641 27.4716 18.0925 26.2101C20.2182 20.2717 23.9954 14.5446 28.6428 10.2813C29.5217 9.47492 30.52 8.52985 31.5974 8.02053Z" fill="#949AB8"/>
<path d="M106.81 30.8557C106.934 30.7942 107.083 30.7319 107.223 30.7563C107.318 30.7728 107.289 30.7865 107.348 30.8925C107.343 31.472 106.62 32.2284 106.361 32.7762C106.061 33.4137 105.856 34.0931 105.673 34.7723C104.979 37.3493 104.718 40.0117 103.998 42.5824C102.723 47.1353 100.314 50.2684 97.6433 54.0402C96.5954 55.5201 95.5898 57.0825 94.4278 58.4741C94.2582 58.5615 94.1903 58.5989 93.9931 58.5722L93.9325 58.4528C94.0664 57.7025 98.8812 51.3467 99.7094 50.1452C100.237 49.3848 100.724 48.5988 101.169 47.7872C102.183 45.949 103.062 43.9164 103.575 41.8765C104.542 38.0311 104.464 34.2614 106.81 30.8557Z" fill="#949AB8"/>
<path fill-rule="evenodd" clip-rule="evenodd" d="M29.7858 38.4943C31.2891 38.3776 32.977 39.0092 34.2267 39.8005C35 39.4002 35.7678 39.0161 36.6342 38.8665C38.8402 38.4855 40.7128 39.3332 42.4806 40.563C43.4812 39.5135 44.7709 38.909 46.2277 38.8843C48.2027 38.8507 49.89 39.8511 51.2653 41.1869C51.8965 40.6806 52.5523 40.2903 53.3517 40.1207C55.1883 39.7311 56.7516 40.4784 58.2555 41.4579C59.0889 40.8267 60.1035 40.3856 61.1637 40.4151C62.9208 40.4638 64.3266 41.7556 65.4853 42.9403C65.6962 42.6613 65.9162 42.3871 66.1698 42.1451C66.2035 42.1124 66.2376 42.0801 66.2723 42.0483C66.2944 42.0282 66.3166 42.0082 66.339 41.9886C66.3967 41.9377 66.4556 41.8884 66.5158 41.8405C66.576 41.7926 66.6373 41.7463 66.6997 41.7013C66.7623 41.6565 66.8258 41.6132 66.8904 41.5715C66.955 41.5299 67.0206 41.4897 67.0872 41.4513C67.1171 41.4341 67.1473 41.4171 67.1776 41.4006C67.2147 41.3802 67.2521 41.3604 67.2898 41.3411C67.321 41.3251 67.3525 41.3094 67.3841 41.2942C67.4217 41.2759 67.4595 41.2583 67.4976 41.2411C67.5677 41.2094 67.6386 41.1796 67.7102 41.1516C67.7523 41.135 67.7948 41.119 67.8375 41.1036C67.8671 41.0929 67.8969 41.0825 67.9268 41.0724C67.9997 41.0479 68.0731 41.0252 68.147 41.0044C68.2211 40.9835 68.2956 40.9645 68.3706 40.9473C68.4455 40.93 68.5208 40.9148 68.5966 40.9014C68.6723 40.8879 68.7483 40.8763 68.8246 40.8667C68.9009 40.857 68.9773 40.8492 69.054 40.8433C69.1307 40.8375 69.2075 40.8336 69.2844 40.8315C69.3612 40.8294 69.4381 40.8293 69.5149 40.8311C71.6582 40.878 73.0916 42.2316 74.478 43.6993C75.4313 43.0119 76.4608 42.5327 77.6601 42.552C79.0171 42.5739 80.3246 43.2409 81.2462 44.2193C82.3893 45.4325 82.7739 46.903 82.7307 48.528C82.862 48.5366 83.0429 48.5438 83.2553 48.5521C84.3092 48.5935 86.1386 48.6654 86.5265 49.1058C87.1579 49.8225 87.6179 51.066 87.8271 51.9904C88.2029 53.6515 88.2973 55.3954 88.3528 57.1233C85.7076 71.9497 81.3696 93.4851 77.7204 106.738C75.7123 107.701 73.9992 108.482 73.637 108.555C72.9069 108.704 71.8107 108.511 70.8917 108.349C70.7344 108.322 70.5824 108.295 70.4383 108.271C70.3276 108.253 70.2215 108.236 70.1213 108.222C68.5017 107.958 66.8657 107.749 65.2323 107.541C64.4964 107.447 63.761 107.353 63.028 107.255C58.7633 106.647 54.4925 106.086 50.2157 105.571C40.4651 104.271 30.695 103.14 20.9052 102.179C20.6961 102.157 20.3706 102.126 19.9553 102.088C19.5827 102.054 19.1377 102.014 18.6396 101.969C14.5099 101.595 6.72989 100.891 6.25037 100.555C5.95162 99.9263 6.04718 98.3286 6.11335 97.222C6.12977 96.9473 6.14438 96.7028 6.1507 96.511C6.02645 96.4872 5.86798 96.4706 5.75273 96.4207C5.66701 96.3835 5.61688 96.347 5.58038 96.3019C5.54505 96.2581 5.52249 96.2062 5.49276 96.1379L5.46812 96.082C5.46552 95.6182 6.20096 94.3328 6.79156 93.3003L6.79214 93.2991C7.07858 92.7984 7.33085 92.3574 7.44819 92.0989L7.48821 92.0099C7.37589 91.9622 7.2609 91.9142 7.14435 91.8655C6.53048 91.6097 5.87352 91.336 5.33788 90.9833C5.16331 90.8683 4.99858 90.7106 4.98404 90.4881C4.9815 90.449 4.98333 90.4097 4.98861 90.3705C4.99923 90.2913 5.02381 90.2132 5.05399 90.1406C5.25001 89.6691 5.72268 89.091 6.16172 88.554C6.29587 88.3899 6.4269 88.2297 6.54593 88.0775C6.63191 87.9676 6.71164 87.8619 6.78178 87.7619C7.40725 86.8702 7.96173 85.9338 8.49985 84.9878C11.3029 80.0605 13.6392 75.0106 15.7341 69.7452C17.2819 65.7986 18.6633 61.7945 19.878 57.733C20.7144 54.9754 21.5046 52.2047 22.2486 49.4207C22.4307 48.7296 22.5985 48.0332 22.7663 47.3369C22.9872 46.4199 23.2081 45.5028 23.462 44.5975C23.5314 44.3499 23.602 44.1091 23.7785 43.9167C24.1795 43.7656 24.6548 43.838 25.0892 43.9043C25.1786 43.918 25.2663 43.9314 25.3513 43.9425C25.4891 42.5725 25.8672 41.23 26.7343 40.1319C27.5307 39.1233 28.5222 38.6388 29.7858 38.4943ZM32.8167 41.2987C31.7696 40.754 30.9175 40.4345 29.7237 40.4786C28.8733 40.7902 28.3171 41.3077 27.935 42.1389C27.6478 42.7636 27.5426 43.3896 27.5166 44.0725C28.5556 44.1616 29.5955 44.2393 30.6363 44.3057L31.965 44.3796C32.0891 43.2692 32.2399 42.2781 32.8167 41.2987ZM56.8769 43.0746C56.0575 42.5081 54.9927 41.9659 53.9708 42.0827C53.2237 42.3017 52.5451 42.6222 52.1693 43.3484C51.8119 44.039 51.8322 44.9709 51.8496 45.7672C51.8518 45.8697 51.8539 45.9698 51.8552 46.0669L54.8003 46.2339L56.1916 46.3197C56.2155 45.1251 56.3998 44.1748 56.8769 43.0746ZM77.1917 44.6881C77.9455 44.6176 78.6254 44.7744 79.2813 45.154C80.595 45.9145 81.1629 47.1248 81.5443 48.5362C80.8644 48.4752 80.186 48.388 79.5088 48.301L79.3328 48.2783C78.0187 48.0863 76.681 47.9756 75.353 47.8657H75.3517C75.0996 47.8448 74.8478 47.824 74.5967 47.8026C74.676 47.2314 74.7606 46.7394 75.0504 46.2268C75.5148 45.4055 76.307 44.931 77.1917 44.6881ZM60.8586 42.5971C60.7777 42.5988 60.6988 42.605 60.6182 42.6121C59.8774 42.9389 59.2509 43.3772 58.9518 44.1653C58.6648 44.9219 58.7782 45.8195 58.9412 46.5942L58.9492 46.5946H58.9522C60.24 46.6288 61.5649 46.6642 62.8462 46.8015C63.3845 46.8265 63.9243 46.8609 64.4629 46.8736C64.4162 46.257 64.4066 45.6475 64.4061 45.0298L64.3404 44.9672C64.2855 44.9146 64.2295 44.8594 64.1723 44.8024C64.0803 44.7109 63.9853 44.6146 63.8875 44.5153C63.0369 43.6525 61.9751 42.5756 60.8586 42.5971ZM37.4207 40.8306C39.0312 40.8203 40.2788 41.4439 41.4194 42.5395C41.1677 43.3961 41.0489 44.2356 41.0266 45.1269C40.4849 45.046 39.9266 45.0175 39.3807 44.9674C38.0423 44.8812 36.6831 44.778 35.3542 44.5975C35.5754 43.4858 35.7492 42.5822 35.537 41.4467C36.1593 41.1273 36.7194 40.8984 37.4207 40.8306ZM69.7342 42.9064C69.7038 42.9046 69.6735 42.903 69.6431 42.9017C69.6194 42.9007 69.5958 42.8997 69.5722 42.8991C69.5437 42.8983 69.5154 42.8978 69.4872 42.8977C68.6452 43.0121 67.8196 43.3283 67.2769 44.0176C66.7852 44.6421 66.6214 45.4646 66.7251 46.2424C66.7542 46.46 66.8121 46.6781 66.869 46.8923L66.9025 47.0194C68.1433 47.1222 69.3825 47.2404 70.6204 47.3739C71.2028 47.4402 71.7864 47.5181 72.3701 47.5717C72.4967 46.6368 72.8158 45.8499 73.2013 44.9941C72.3751 44.0391 71.2649 43.0219 69.9416 42.921C69.873 42.9158 69.8036 42.9106 69.7342 42.9064ZM45.9761 40.9564C47.5837 40.874 48.8553 41.7064 50.0364 42.7144C49.6113 43.6879 49.4751 44.7114 49.3366 45.7527L49.3364 45.7543L49.3185 45.8887C48.7199 45.8546 48.1218 45.8126 47.5243 45.7628C46.8852 45.7225 46.2482 45.6547 45.6112 45.5869C44.8934 45.5106 44.1757 45.4344 43.4549 45.3973C43.2688 44.2633 43.3067 43.1627 43.9819 42.1818C44.4699 41.4729 45.1425 41.1024 45.9761 40.9564Z" fill="#949AB8"/>
<path d="M103.792 20.5201C103.796 20.5366 103.803 20.5525 103.804 20.5695C103.814 20.6783 103.815 20.7267 103.746 20.8133C103.11 21.6152 99.5887 22.547 98.5556 22.6798C98.1973 22.7259 97.8417 22.7289 97.4862 22.7319C97.2171 22.7341 96.9482 22.7363 96.678 22.7572C95.5785 22.8424 95.4601 23.571 95.3261 24.3952C95.2355 24.9533 95.1376 25.5553 94.7233 26.0314L94.6604 26.1023C94.0283 26.0091 93.1396 25.5026 92.3177 25.0341C91.4924 24.5636 90.7345 24.1317 90.3717 24.1953C90.1258 24.3566 90.0168 24.593 89.8597 24.8342C89.6258 25.1931 89.3866 25.4761 88.9435 25.552C87.851 25.7391 86.4118 24.9046 85.5473 24.3267C82.9018 22.5583 79.4562 18.9487 78.8257 15.7434C79.7436 16.0258 80.6452 16.385 81.5422 16.7423L81.5601 16.7494C81.8268 16.8556 82.0932 16.9617 82.3594 17.0655C82.6631 17.7679 84.4824 21.2049 85.0501 21.5232C85.1823 21.5972 85.2419 21.5704 85.3525 21.5204L85.3919 21.5028C85.3983 21.4595 85.4141 21.4166 85.4112 21.3728C85.4049 21.2803 84.3891 19.6078 83.6626 18.4118L83.6611 18.409L83.6552 18.3993C83.4762 18.1046 83.3151 17.8394 83.1916 17.6347C83.1367 17.5439 83.0892 17.465 83.0508 17.4007C83.014 17.3388 82.9855 17.2906 82.967 17.2583C84.7512 17.816 86.5163 18.3474 88.3383 18.7724C88.9167 19.4898 89.5597 20.1589 90.2007 20.8258L90.3905 21.0236C90.4695 21.1058 90.5484 21.1881 90.6269 21.2705C90.7124 21.3602 90.7975 21.45 90.8822 21.5401C91.065 21.7345 91.233 21.952 91.4107 22.1568C91.513 22.2748 91.6185 22.3887 91.7319 22.4917C91.8673 22.6147 91.9803 22.704 92.1598 22.7544L92.2436 22.6781C92.2561 22.2368 90.9953 20.8787 90.0806 19.8936C89.7137 19.4983 89.4025 19.1631 89.2516 18.9712C90.498 19.3249 97.0479 20.8184 97.95 20.6673C98.0991 20.6423 98.1259 20.6055 98.202 20.5006L98.2152 20.4826L98.1909 20.4064C97.859 20.1287 97.1731 20.0575 96.6358 20.0017C96.4962 19.9872 96.3667 19.9738 96.256 19.958C94.8986 19.7407 90.5828 19.0442 89.575 18.4392C89.743 18.376 89.9197 18.3115 90.1025 18.2457C90.312 18.1703 90.5297 18.0933 90.7517 18.0147L90.7549 18.0135L90.7576 18.0127L90.7639 18.0103C91.8725 17.6177 93.0913 17.1856 93.967 16.726C94.1829 16.6127 94.278 16.5157 94.3479 16.2813L94.2958 16.2287C93.8515 16.1738 90.8423 17.3409 89.3095 17.9356L89.304 17.9376C88.9673 18.0682 88.7024 18.171 88.5525 18.2268C86.5702 17.8767 84.4998 17.2745 82.6255 16.5466C82.9462 16.2403 83.2602 15.9268 83.5742 15.6135C84.0791 15.1096 84.5839 14.6059 85.1166 14.1311C85.358 13.9159 85.6179 13.7109 85.878 13.5056C86.2394 13.2204 86.6014 12.9349 86.9151 12.6212C87.035 12.5014 87.1179 12.3986 87.1556 12.2297L87.0657 12.1529C86.8356 12.1863 86.6663 12.2814 86.4811 12.4218C86.17 12.6578 85.8757 12.9371 85.5836 13.2144L85.582 13.216C85.4093 13.38 85.2372 13.5432 85.0629 13.6965C84.0532 14.5841 83.0264 15.465 81.9734 16.3006C81.4381 16.1143 80.9069 15.9146 80.3773 15.7107C80.1651 15.6289 79.9533 15.5464 79.7415 15.4639L79.2801 15.2841L78.8343 15.1113C79.276 14.2859 79.8882 13.5865 80.5806 12.9617C82.728 11.0245 85.7125 9.91305 88.6202 10.1055C88.9442 10.1269 89.4091 10.1721 89.6272 10.4454C89.8326 10.7029 89.5977 11.094 89.3707 11.4718C89.2163 11.7288 89.0657 11.9796 89.0596 12.178C89.0478 12.5624 89.6792 12.5746 89.942 12.586C90.1413 12.5946 90.3597 12.6023 90.593 12.6105C92.7877 12.6872 96.2986 12.8098 97.6386 14.1856C98.1862 14.7479 97.8722 15.4812 97.5724 16.1816C97.3979 16.5889 97.2283 16.9851 97.2357 17.3299C97.2421 17.6196 97.396 17.7213 97.6525 17.8054C98.0084 17.9222 98.3872 17.987 98.7645 18.0515C99.0074 18.093 99.2498 18.1345 99.4849 18.1896C101.072 18.5617 102.57 19.4639 103.792 20.5201Z" fill="#E8E9EC"/>
<path d="M38.3098 16.6651C39.3567 16.6082 40.3773 17.0405 41.2445 17.5956C42.575 18.4472 43.3287 19.343 43.6712 20.897C43.4526 21.5521 42.9416 21.9348 42.432 22.3164C41.8717 22.736 41.3131 23.1543 41.1472 23.9321C40.8955 25.1118 41.4689 25.6221 42.0912 26.1758C42.219 26.2895 42.3488 26.405 42.4739 26.5285C42.6458 26.6981 42.8088 26.8827 42.9457 27.0984C43.1209 27.3741 43.1843 27.6798 43.103 27.9991C42.8414 29.0263 41.5912 29.0999 40.3792 29.1712H40.378C39.6105 29.2164 38.8585 29.2608 38.3826 29.546C37.3391 30.1717 37.5495 31.0234 37.7655 31.8984C37.8965 32.4286 38.0296 32.9673 37.8869 33.4695C37.7837 33.8326 37.5365 34.0846 37.2088 34.2593C36.5455 34.6126 35.7953 34.5915 35.091 34.3847C33.1428 33.8128 31.1261 31.843 30.17 30.0996C30.2982 30.1937 30.4236 30.2905 30.5477 30.3884C30.6557 30.4736 30.7628 30.5598 30.8699 30.646L30.8742 30.6491C31.2444 30.9469 31.6138 31.244 32.0217 31.5022C32.6123 31.8758 35.5171 33.6995 36.0375 33.5831L36.0619 33.4792C35.7645 32.903 34.5549 32.2935 33.5695 31.7971C33.1795 31.6006 32.8247 31.4218 32.5754 31.2698C31.8923 30.8533 31.2699 30.4061 30.6913 29.853L30.843 29.6747L30.9772 29.5162L30.9874 29.504L31.1602 29.3C31.217 29.2331 31.2739 29.1664 31.331 29.0997C31.4613 28.9477 31.5926 28.7966 31.7259 28.6475C31.8944 28.4592 32.0661 28.2741 32.2434 28.0943C34.0031 28.4844 35.4438 28.3989 36.962 28.3086H36.9747C37.7913 28.2599 38.631 28.2097 39.5552 28.2328C39.6362 28.2348 39.7597 28.2453 39.9104 28.2607C40.0701 28.2771 40.2602 28.299 40.4627 28.3225L40.4647 28.3228L40.4698 28.3234C41.2172 28.4098 42.129 28.5151 42.2936 28.4305C42.3678 28.278 42.3713 28.2588 42.3519 28.0905C41.7552 27.5798 38.8083 27.736 36.6489 27.8505C35.7797 27.8965 35.0382 27.9359 34.6287 27.9222C33.9214 27.8987 33.2769 27.7746 32.5977 27.5808C33.5587 26.6333 34.5163 25.7453 35.5739 24.9061C36.4427 25.4585 37.3212 25.8636 38.336 26.0672L38.3512 26.0704C38.7737 26.1551 39.8908 26.3792 40.2355 26.1485L40.2441 26.0045C39.992 25.7758 39.4161 25.728 38.8939 25.6847L38.8916 25.6843C38.607 25.661 38.3388 25.6386 38.1477 25.5889C37.4011 25.3949 36.6568 25.0834 36.0352 24.6236L35.9621 24.5686C36.9322 23.3214 39.2673 22.4788 40.9692 21.8647L40.9959 21.855L41.2749 21.7542C41.3948 21.7106 41.5106 21.6684 41.6213 21.6272L41.7608 21.5794C41.943 21.5173 42.1255 21.4552 42.3016 21.3788C42.4151 21.3296 42.5258 21.2743 42.6321 21.2092C42.7211 21.0714 42.7209 21.0499 42.7197 20.8893V20.8811L42.631 20.8157C41.4335 20.9489 37.6583 22.6822 36.5884 23.3304C36.6167 22.911 36.8936 21.1073 37.1087 19.7059C37.2537 18.7607 37.3707 17.9985 37.3644 17.9676L37.3593 17.9424C37.3522 17.9067 37.349 17.8912 37.3404 17.88C37.3282 17.8641 37.3048 17.8566 37.2431 17.8117L37.0687 17.8534C36.7564 18.1423 36.3615 21.0627 36.1378 22.7175L36.1376 22.7187C36.0772 23.1657 36.0293 23.5202 35.9989 23.7052C35.6239 24.1642 35.1476 24.5514 34.6789 24.9325C34.5011 25.077 34.3244 25.2207 34.1547 25.3671C33.6626 25.7915 33.2217 26.2564 32.7865 26.7377C32.3539 24.3524 32.3112 22.0758 32.4102 19.658C32.4142 19.5605 32.4268 19.4385 32.4408 19.3044C32.4872 18.8569 32.5477 18.2753 32.3453 18.0234L32.2129 18.0229L32.1955 18.0429L32.1815 18.059C32.1738 18.0681 32.1663 18.0774 32.1597 18.0873C31.9506 18.401 31.9395 19.0485 31.9314 19.5303C31.9296 19.6402 31.9279 19.7415 31.924 19.8282C31.8021 22.537 31.9219 24.4451 32.2783 27.1139C31.663 27.9281 31.004 28.7052 30.3013 29.4452C28.5136 27.4152 27.8246 26.1482 27.4315 23.4215C27.3951 23.1691 27.3753 22.909 27.3554 22.6479L27.3551 22.644L27.3547 22.6401L27.3545 22.6362C27.3396 22.4409 27.3246 22.2449 27.3023 22.0514C27.2738 21.8029 27.2335 21.5582 27.1667 21.3234L27.1302 21.2946C27.0383 21.2213 27.0177 21.2049 26.8782 21.2028C26.7574 21.3618 26.7659 21.5196 26.7783 21.7109C26.9548 24.433 27.5541 27.6312 29.7257 29.5038C29.8448 29.6064 29.8796 29.6242 29.9454 29.7707L29.8126 29.8869C29.6645 29.9117 29.548 29.9164 29.4003 29.883C28.0562 29.5787 25.8846 28.4408 25.1501 27.205C24.4861 26.0874 24.4489 24.6647 24.7313 23.4291C24.9874 22.308 25.5692 20.6549 26.6129 20.0411C27.3635 19.5995 27.9339 19.8533 28.5577 20.1309C28.7257 20.2056 28.8976 20.282 29.0779 20.3472C29.1976 20.3905 29.3212 20.4287 29.4497 20.458C29.8373 20.5464 30.2249 20.5366 30.5623 20.3056C30.9885 20.0139 31.0392 19.4209 31.085 18.8842C31.102 18.6856 31.1184 18.4946 31.1529 18.3295C31.2451 17.8883 31.417 17.3878 31.8229 17.1402C32.5723 16.6833 33.0659 17.2484 33.5497 17.8024C33.782 18.0684 34.012 18.3317 34.2669 18.4781C34.425 18.5687 34.6358 18.6088 34.8256 18.6448C34.8655 18.6523 34.9045 18.6597 34.9418 18.6674C35.594 18.4927 36.0445 18.0995 36.4987 17.7031C37.0038 17.2623 37.5134 16.8176 38.3098 16.6651Z" fill="#E8E9EC"/>
<path d="M27.9022 97.75C21.0007 96.7607 14.0956 95.7708 7.24257 94.4933C7.08938 94.8225 6.93071 95.1505 6.78541 95.4832C8.25806 95.7333 9.76636 95.8782 11.2709 96.0228L11.2749 96.0232C12.1832 96.1104 13.0903 96.1975 13.9873 96.3075L32.599 98.5386C33.6653 98.6682 34.7311 98.8015 35.7965 98.9384C36.4193 99.0184 37.0419 99.0997 37.6644 99.1822C37.9568 99.2189 38.2523 99.2505 38.5484 99.282L38.556 99.2832C39.1652 99.3481 39.7773 99.4133 40.3722 99.5251L40.7456 99.5282C39.4522 99.3053 38.1387 99.1491 36.8257 98.993L36.8217 98.9926C35.8656 98.8791 34.9097 98.7655 33.9622 98.6263C32.8022 98.4557 31.6417 98.2874 30.4808 98.1201L27.9022 97.75Z" fill="#E8E9EC"/>
<path d="M82.0736 71.6366C81.9636 72.0026 81.8639 72.3342 81.7972 72.5873C80.7414 76.6387 79.5607 80.6534 78.255 84.6313C76.9493 88.6092 75.5213 92.5427 73.971 96.4319C73.9197 96.5592 73.8685 96.6869 73.8174 96.8151C73.7197 97.0599 73.6222 97.3062 73.5244 97.5533L73.5111 97.5869C72.7058 99.6223 71.877 101.717 70.7385 103.552L69.5078 103.381L69.4037 103.337C69.3752 103.178 69.9148 102.331 70.2379 101.824L70.2389 101.822C70.3256 101.686 70.3966 101.575 70.4367 101.508C71.2538 100.144 71.9691 98.6874 72.6651 97.2584C75.9524 90.509 78.4839 83.38 80.646 76.1981C81.0445 74.8744 81.4103 73.5422 81.7762 72.2102C82.092 71.06 82.4078 69.9098 82.7447 68.7653C82.7523 69.3787 82.3752 70.6333 82.0748 71.6331L82.0736 71.6366Z" fill="#E8E9EC"/>
<path d="M16.1078 94.4956C13.5824 93.9411 10.8397 93.3165 8.41907 92.4064L8.29098 92.6174L8.2857 92.626C8.05754 93.0007 7.82867 93.3766 7.63689 93.7707C9.89915 94.0948 12.1482 94.4823 14.3983 94.87L15.4944 95.0587C15.9904 95.1437 16.4864 95.2282 16.9828 95.3116C21.1168 96.0091 25.2562 96.673 29.4009 97.3034C31.619 97.6465 33.8514 97.9666 36.0873 98.2872C41.0454 98.9982 46.0208 99.7118 50.8967 100.685C50.9305 100.689 50.9642 100.692 50.9979 100.696C51.0749 100.705 51.1513 100.714 51.228 100.719C51.2442 100.72 51.2604 100.72 51.2766 100.721L51.279 100.76L51.2846 100.721C51.3129 100.722 51.3413 100.722 51.3698 100.721C51.394 100.72 51.4183 100.718 51.4427 100.716L51.2894 100.687L51.2901 100.683C50.4351 100.56 49.5692 100.36 48.7073 100.161C48.4458 100.101 48.1847 100.04 47.9243 99.9824C47.7908 99.9527 47.6575 99.9235 47.5244 99.8952C47.3966 99.8679 47.269 99.8416 47.1417 99.8163C44.0024 99.1858 40.8533 98.6087 37.6945 98.0847C35.3997 97.7078 33.0981 97.3654 30.7964 97.023L30.7768 97.0203C25.8669 96.2902 20.9561 95.56 16.1078 94.4956Z" fill="#E8E9EC"/>
<path d="M84.3987 66.2922C84.4394 67.0506 83.9633 69.371 83.6502 70.8966C83.5635 71.3194 83.4892 71.6811 83.442 71.9317C83.1029 73.6663 82.7306 75.3938 82.3252 77.1141C81.9197 78.8344 81.4813 80.5462 81.01 82.2498C80.5388 83.9533 80.0349 85.6471 79.4985 87.3311C78.9621 89.0153 78.3935 90.6884 77.7928 92.3507C77.6351 92.7834 77.4781 93.2169 77.321 93.6506C76.7685 95.1759 76.215 96.7039 75.6267 98.2127C75.4651 98.6269 75.2928 99.0574 75.1161 99.499C74.2926 101.557 73.3735 103.853 73.0074 105.852C72.0159 105.616 70.9889 105.478 69.9707 105.341L69.9685 105.341C69.6468 105.298 69.3261 105.254 69.0076 105.208C68.2931 105.105 67.578 105.006 66.8626 104.91C66.1391 104.813 65.4153 104.719 64.6916 104.624L64.6724 104.622C63.1329 104.42 61.5937 104.219 60.0576 103.993C47.4822 102.095 34.8635 100.549 22.2016 99.3565C18.886 99.0247 15.5345 98.8302 12.2008 98.6368C11.7398 98.6101 11.2791 98.5834 10.8189 98.5562C10.3854 98.5308 9.95006 98.5136 9.51454 98.4964C9.15236 98.4822 8.79011 98.468 8.42885 98.4488C8.1797 98.4357 7.93101 98.4203 7.68317 98.401C7.49791 98.3866 7.34654 98.3977 7.19935 98.2813L7.18599 98.0301L7.1884 96.5511C8.21093 96.6734 9.23762 96.7652 10.2644 96.8569C11.0981 96.9315 11.9317 97.0061 12.7632 97.097L28.1978 98.8227C36.6129 99.7859 45.0173 100.834 53.4112 101.966C54.7179 102.133 56.026 102.288 57.334 102.442C59.5035 102.697 61.6729 102.953 63.8353 103.27C64.959 103.435 66.0745 103.668 67.1909 103.9L67.195 103.901C68.2355 104.118 69.2768 104.335 70.3266 104.498C70.6316 104.545 70.9257 104.567 71.201 104.399C71.9118 103.964 72.9349 101.432 73.4695 100.11L73.4701 100.108L73.4709 100.106C73.5524 99.9041 73.6226 99.7304 73.6784 99.5969C75.4303 95.4029 77.0413 91.1553 78.5113 86.8541C79.9811 82.5532 81.3068 78.208 82.4882 73.819C82.8993 72.3284 83.2679 70.8307 83.6366 69.3325C83.8862 68.3186 84.1358 67.3044 84.3987 66.2922Z" fill="#E8E9EC"/>
<path d="M31.1812 55.8126C29.6806 55.7347 28.1801 55.6569 26.6787 55.6188C26.4529 56.5848 26.1556 57.5569 25.8582 58.5289C25.4839 59.7529 25.1095 60.9768 24.8778 62.1885C26.5793 62.3546 28.282 62.5078 29.9858 62.6484C30.3417 62.6767 30.7 62.6995 31.0589 62.7223L31.0655 62.7227C31.7585 62.7669 32.4536 62.8112 33.1372 62.8958C33.402 62.1217 33.5827 61.3013 33.7911 60.5096C34.1854 59.012 34.5751 57.5005 34.88 55.9822C34.2032 55.9592 33.5265 55.9296 32.8499 55.8971C32.6599 55.8879 32.4698 55.8785 32.2797 55.8689L31.1812 55.8126Z" fill="#E8E9EC"/>
<path d="M61.8022 89.0257C61.2901 88.948 60.7669 88.8686 60.2862 88.7337C59.6996 90.2541 59.0863 91.7637 58.4462 93.2625C58.2928 93.6123 58.1281 93.9612 57.9631 94.311L57.798 94.6616C57.7528 94.758 57.7079 94.8547 57.6634 94.9514L57.6175 95.0519L57.5716 95.1531C57.4435 95.4374 57.3207 95.7232 57.2091 96.0113C57.1782 96.0909 57.1482 96.1705 57.1192 96.2504C59.2417 96.7556 61.3735 97.2954 63.46 97.9345L63.7359 97.4229C65.164 95.0861 66.311 92.477 67.3724 89.9556C66.3677 89.7693 65.359 89.6059 64.3502 89.4425C64.0454 89.3931 63.7407 89.3437 63.436 89.2937C63.0925 89.2373 62.7491 89.1802 62.406 89.1213C62.2088 89.0874 62.0064 89.0568 61.8022 89.0257Z" fill="#E8E9EC"/>
<path d="M38.7236 56.0845C39.1197 56.1165 39.5162 56.1552 39.9117 56.1938C40.3097 56.2326 40.7067 56.2714 41.1012 56.3029C41.6874 56.3497 42.2746 56.3869 42.8618 56.424C43.6945 56.4768 44.5271 56.5296 45.3571 56.6099C45.2971 57.3026 43.9126 63.6219 43.7503 63.8506C42.9438 63.7142 42.1136 63.6483 41.2908 63.583L41.2693 63.5815C41.0065 63.5605 40.7443 63.5395 40.484 63.5164C38.8704 63.3729 37.2568 63.2167 35.6383 63.1429C35.7386 62.4535 35.9339 61.7506 36.1264 61.0578L36.2096 60.7575L36.2469 60.6212C36.2918 60.4557 36.3355 60.2911 36.3764 60.1276C36.5686 59.3607 36.7447 58.5906 36.9208 57.8203C37.0586 57.2171 37.1965 56.6139 37.3421 56.0123C37.8003 56.0196 38.2617 56.0474 38.7236 56.0845Z" fill="#E8E9EC"/>
<path d="M69.2305 79.5643C67.4325 79.3204 65.6319 79.0762 63.8479 78.7629C63.7426 79.0692 63.6381 79.3759 63.534 79.6831C63.4142 80.0365 63.2949 80.3905 63.1756 80.7446L63.1657 80.7743L63.1651 80.7763C62.5271 82.6702 61.8879 84.5675 61.1562 86.4228C61.8269 86.5608 68.1278 87.6841 68.2785 87.6379C69.2887 85.0661 70.2988 82.4654 71.1052 79.8217C70.7746 79.7753 70.4437 79.7296 70.1127 79.6844L69.2305 79.5643Z" fill="#E8E9EC"/>
<path d="M70.7538 58.6528C70.8617 58.6613 70.9697 58.6695 71.0777 58.6776L71.3884 58.7005C71.5699 58.7137 71.7515 58.7266 71.9331 58.7393L72.1685 58.7562H72.1861C73.6579 58.8602 75.1301 58.9642 76.5788 59.1803C76.3995 60.4131 76.0932 61.6408 75.7902 62.8548L75.7115 63.1703L75.6275 63.5098C75.5763 63.7173 75.5263 63.9251 75.4769 64.1331C75.4232 64.3586 75.3702 64.5844 75.3172 64.8102C75.1444 65.5461 74.9717 66.2819 74.7762 67.0121C74.3528 67.0656 73.7169 66.9664 73.1647 66.8802C72.9492 66.8466 72.7463 66.8149 72.5738 66.7951L67.2646 66.1952C67.5884 64.6099 67.9362 63.0292 68.284 61.4487L68.2908 61.4174L68.473 60.589C68.6269 59.8876 68.7801 59.1859 68.9302 58.4836C69.5356 58.5513 70.144 58.6051 70.7538 58.6528Z" fill="#E8E9EC"/>
<path d="M29.4296 64.8954C27.6575 64.7607 25.8866 64.611 24.117 64.4465C23.7262 65.7154 23.3017 66.9732 22.8435 68.2193C22.7383 68.5015 22.6247 68.7863 22.5104 69.073L22.51 69.0741C22.2203 69.8003 21.9259 70.5388 21.7504 71.2797C22.385 71.3454 23.0206 71.4097 23.6565 71.4739L23.6604 71.4743C25.8688 71.6977 28.0816 71.9214 30.2788 72.2074C30.5461 71.837 32.3192 66.0213 32.5569 65.1693C31.7858 65.0604 31.0035 65.0062 30.2237 64.9522H30.2217C29.9572 64.934 29.693 64.9157 29.4296 64.8954Z" fill="#E8E9EC"/>
<path d="M35.0981 65.3718C36.6493 65.4549 38.2014 65.6109 39.7533 65.7668L39.7621 65.768L39.7709 65.7688L39.7882 65.7703C40.1326 65.8049 40.477 65.8394 40.8214 65.8732C41.0444 65.8951 41.2675 65.9166 41.4905 65.9375C42.0893 65.9936 42.688 66.0458 43.2866 66.0899C42.6439 68.5491 41.9398 70.9906 41.1742 73.4144C39.0941 73.0649 36.9774 72.8541 34.8695 72.6442L34.865 72.6438C34.1828 72.5759 33.5016 72.5081 32.8229 72.4357C33.5198 70.7242 34.1836 68.4706 34.7601 66.5137L35.0022 65.6934L35.0981 65.3718Z" fill="#E8E9EC"/>
<path d="M63.2286 58.0469C61.6708 57.921 60.1128 57.795 58.5533 57.7017C58.3768 58.4851 58.2079 59.2741 58.0388 60.0643C57.6792 61.7447 57.3183 63.4306 56.88 65.0801C58.8794 65.2744 60.8773 65.4831 62.8736 65.7063C62.9572 65.715 63.051 65.7273 63.1517 65.7416L63.2856 65.7611L63.4237 65.7817H63.4247L63.4284 65.7821C63.9286 65.857 64.5113 65.944 64.866 65.8927L65.0009 65.3351C65.0877 64.9775 65.1749 64.6199 65.2622 64.262C65.7449 62.2837 66.2284 60.3016 66.6339 58.3095C66.3901 58.2926 66.1464 58.275 65.9026 58.2568L65.4435 58.2224C64.7167 58.167 63.99 58.1083 63.2633 58.0497L63.2286 58.0469Z" fill="#E8E9EC"/>
<path d="M47.7832 56.8859C48.9688 56.9112 50.1638 57.0056 51.3511 57.0995C51.6472 57.123 51.9429 57.1463 52.2378 57.1686C52.5149 57.1895 52.7929 57.2086 53.0716 57.2279C54.0528 57.2956 55.04 57.3638 56.0077 57.5085C55.9443 58.2607 55.7815 59.0169 55.6212 59.7607C55.5887 59.9118 55.5562 60.0625 55.5247 60.2125C55.1913 61.8017 54.8366 63.3635 54.4004 64.9285C54.0947 64.9088 53.7882 64.8763 53.4815 64.8377C53.3489 64.8211 53.2162 64.8033 53.0835 64.7849C52.9326 64.7641 52.7816 64.7423 52.6307 64.7205L52.6131 64.7186C52.2211 64.6624 51.8295 64.6062 51.4396 64.5636C50.662 64.4786 49.8834 64.4032 49.1048 64.3277C48.136 64.2339 47.1673 64.14 46.2005 64.0277C46.4302 62.9164 46.6859 61.8105 46.9415 60.7046C47.2353 59.4342 47.5289 58.1641 47.7832 56.8859Z" fill="#E8E9EC"/>
<path d="M68.4298 68.8011C67.8166 68.7379 67.2 68.6743 66.5993 68.5705C66.3949 69.3447 66.1975 70.1233 65.9999 70.9028C65.5371 72.7293 65.0729 74.5608 64.5133 76.352C65.5902 76.5656 70.9836 77.5043 71.774 77.4267C71.7845 77.4176 71.7956 77.4085 71.8068 77.3993C71.8423 77.3703 71.8789 77.3404 71.9025 77.3029C72.7356 74.7064 73.5115 72.0931 74.2304 69.4628L69.2445 68.8889C68.9792 68.8578 68.7116 68.8303 68.4433 68.8027L68.4298 68.8011Z" fill="#E8E9EC"/>
<path d="M33.1084 74.8643C33.5615 74.9191 34.0146 74.9834 34.4669 75.0476L34.4843 75.05C34.8479 75.1016 35.2109 75.1532 35.5729 75.1995C37.1947 75.3985 38.8186 75.579 40.4445 75.7415C40.1383 76.6014 39.8511 77.472 39.5638 78.3431L39.5634 78.3447C39.0687 79.8442 38.5733 81.3459 37.9786 82.7998C36.3117 82.5311 34.6275 82.3313 32.9438 82.1315C32.1894 82.042 31.4351 81.9524 30.6826 81.8567C30.2514 81.802 29.8208 81.7451 29.391 81.6851C30.3436 79.4051 31.2173 77.0953 32.0124 74.7557C32.3774 74.7823 32.7429 74.8203 33.1084 74.8643Z" fill="#E8E9EC"/>
<path d="M45.0755 76.3338C44.3186 76.2651 43.5507 76.1953 42.8215 76.0419C42.5361 76.8419 42.2765 77.6497 42.017 78.4576C41.8299 79.0398 41.6428 79.6221 41.446 80.2015C41.3013 80.6278 41.1437 81.0506 40.986 81.4735L40.9845 81.4778C40.7737 82.0434 40.563 82.609 40.3825 83.1829C41.086 83.3318 48.1673 84.4637 48.5131 84.3602C48.9807 83.4516 49.2968 82.4851 49.6134 81.5175L49.6142 81.5151C49.6639 81.363 49.7136 81.2108 49.764 81.0588C50.2047 79.7243 50.6526 78.3921 51.1077 77.0624C49.3765 76.8039 47.6402 76.5872 45.8986 76.4128C45.6273 76.3838 45.3521 76.3588 45.0755 76.3338Z" fill="#E8E9EC"/>
<path d="M55.8378 88.0642L55.8463 88.0654C56.5549 88.1655 57.2621 88.2655 57.9646 88.3709C57.0161 90.8761 56.0277 93.4033 54.7814 95.7763L54.6981 95.8671C54.255 95.9364 52.9564 95.5325 52.4473 95.4308C51.6309 95.2676 50.8048 95.1406 49.9791 95.0136L49.9654 95.0108C49.0009 94.8626 48.0369 94.7145 47.0895 94.5089C47.2933 93.9294 47.5366 93.3577 47.7789 92.7882L47.7807 92.7843C47.8853 92.5386 47.9898 92.2933 48.0907 92.0481L50.1111 87.134C51.9921 87.5206 53.9206 87.7932 55.8378 88.0642Z" fill="#E8E9EC"/>
<path d="M60.8571 78.3337C58.3901 78.0396 55.9129 77.7442 53.4609 77.3574C52.7332 79.8628 51.8765 82.3178 51.0142 84.7784C52.3709 85.0592 53.7429 85.2655 55.1149 85.4717C56.2696 85.6454 57.4244 85.819 58.57 86.0372L58.5623 85.9883C58.6777 86.0119 58.6331 85.9842 58.7029 86.0588L58.7346 86.0502L58.7566 86.0441C58.7685 86.0409 58.7805 86.0378 58.7926 86.0351C58.8152 86.03 58.8382 86.0273 58.861 86.0233L58.8911 85.9769C59.0175 85.6266 59.1415 85.2751 59.2639 84.9227C59.5174 84.193 59.764 83.4598 60.0106 82.7266L60.0137 82.7176L60.0153 82.7129C60.5002 81.2711 60.9852 79.8289 61.5233 78.4133L60.8571 78.3337Z" fill="#E8E9EC"/>
<path d="M47.3447 66.5174C47.5779 66.5451 47.8101 66.5729 48.0403 66.5969C48.6394 66.6592 49.2385 66.7258 49.8377 66.7925L49.8437 66.7932C51.1811 66.9421 52.5191 67.091 53.8598 67.1932C53.5662 68.3507 53.2458 69.5029 52.9256 70.6541C52.8248 71.0165 52.7241 71.3786 52.6242 71.7409C52.5868 71.8767 52.5501 72.0133 52.5138 72.1503C52.481 72.2742 52.4485 72.3983 52.4159 72.5227C52.2156 73.2873 52.0134 74.0591 51.7333 74.7891C50.2534 74.5746 48.7691 74.399 47.2851 74.2234L47.2781 74.2226C46.0293 74.0748 44.7807 73.9269 43.5349 73.7563C44.2852 71.5543 45.1733 68.6318 45.6255 66.3639C46.1932 66.3798 46.7718 66.4489 47.3447 66.5174Z" fill="#E8E9EC"/>
<path d="M62.5738 68.1298C60.4818 67.8912 58.3781 67.6514 56.2854 67.5574C56.1765 67.9163 56.0722 68.2765 55.9706 68.6375C55.8296 69.1385 55.6936 69.641 55.5577 70.1435C55.4079 70.6976 55.258 71.2515 55.1013 71.8034C55.0731 71.9026 55.0445 72.0017 55.0156 72.1008C54.9796 72.2244 54.943 72.3478 54.9061 72.4712C54.8615 72.6199 54.8164 72.7684 54.7709 72.9169C54.698 73.155 54.6243 73.3928 54.5505 73.6306C54.4069 74.0932 54.2634 74.5559 54.1263 75.0205C55.5841 75.3077 57.082 75.4841 58.5686 75.6591C59.0378 75.7144 59.5059 75.7695 59.9712 75.8279C60.0656 75.8398 60.1611 75.8507 60.2571 75.861C60.392 75.8756 60.5283 75.8893 60.665 75.903H60.6661L60.6716 75.9034C60.9379 75.9301 61.206 75.9571 61.4705 75.9922C61.71 76.024 61.9464 76.0625 62.1757 76.1134C62.5551 74.9325 62.8599 73.7236 63.1645 72.5151C63.5203 71.1038 63.8759 69.6933 64.3499 68.3292C63.7591 68.265 63.1669 68.1975 62.5738 68.1298Z" fill="#E8E9EC"/>
<path d="M39.5294 85.4859C41.0543 85.6612 42.5747 85.9067 44.0951 86.1522C45.2733 86.3425 46.4515 86.5329 47.6318 86.6903C47.024 88.5072 46.281 90.2664 45.5374 92.027L45.5362 92.0297C45.2536 92.6987 44.971 93.3679 44.6956 94.0405C41.9593 93.5943 39.2363 93.0775 36.5268 92.4898C36.7315 91.9437 36.9731 91.4064 37.2144 90.8698C37.2928 90.6954 37.3711 90.5211 37.4482 90.3467C37.5176 90.1896 37.5859 90.0324 37.6522 89.8747C37.7596 89.6196 37.8658 89.3635 37.9716 89.1071L38.1584 88.6537C38.5965 87.589 39.0356 86.5222 39.5294 85.4859Z" fill="#E8E9EC"/>
<path d="M36.968 85.1092C34.1179 84.7131 31.2729 84.2838 28.4329 83.8215C27.4579 86.0808 26.3976 88.3979 25.2346 90.5643C26.7248 90.8613 28.2175 91.1454 29.7128 91.4164C29.92 91.4546 30.1281 91.494 30.3368 91.5335C31.5086 91.7553 32.7026 91.9812 33.8858 92.0324C35.0017 89.7665 36.0976 87.4835 36.968 85.1092Z" fill="#E8E9EC"/>
<path d="M25.3515 73.9316C23.8769 73.7393 22.4028 73.5472 20.925 73.4092C20.5316 74.3703 20.1151 75.3232 19.6985 76.2762L19.6968 76.2801C19.1882 77.4437 18.6797 78.6073 18.2135 79.7853C19.96 80.1055 21.7111 80.3977 23.467 80.6621C23.7974 80.7115 24.1331 80.7553 24.4703 80.7991L24.4779 80.8C25.2885 80.9054 26.1083 81.0119 26.8876 81.2024C27.5333 79.8053 28.1206 78.3541 28.6672 76.9151C28.7732 76.6364 28.8746 76.3545 28.9761 76.0724L28.9819 76.056C29.1778 75.5111 29.374 74.9652 29.6029 74.4376C28.1826 74.3009 26.7667 74.1162 25.3515 73.9316Z" fill="#E8E9EC"/>
<path d="M20.984 82.4705C22.6674 82.7824 24.3512 83.0942 26.0547 83.2953C25.925 83.5717 25.7956 83.8479 25.6664 84.1241C24.7271 86.1301 23.7929 88.1254 22.7677 90.0948C21.2759 89.8974 19.7932 89.6466 18.3196 89.3419C16.846 89.0375 15.3853 88.6802 13.9375 88.2702C14.2145 87.6732 14.5432 87.0935 14.8708 86.5156C14.9791 86.3246 15.0873 86.1338 15.1934 85.9426C15.2572 85.8277 15.3203 85.7127 15.3822 85.5974C16.038 84.3526 16.6718 83.0967 17.284 81.8299C18.5202 82.0142 19.7491 82.242 20.9781 82.4697L20.984 82.4705Z" fill="#E8E9EC"/>
<path fill-rule="evenodd" clip-rule="evenodd" d="M24.6126 44.6653H24.6173C24.8442 44.6637 25.2086 44.6611 25.3225 44.7846C25.5216 45.0002 25.7114 46.0557 25.8373 46.3892C26.3238 47.6786 27.5436 49.3908 28.7273 50.1238C29.0763 50.34 29.4509 50.463 29.8577 50.3486C30.205 50.2507 30.4655 49.9648 30.6228 49.6489C31.0193 48.8525 30.2465 48.2992 29.5645 47.8108C29.2964 47.6188 29.0423 47.4369 28.8788 47.2543C28.2359 46.5359 27.8554 45.8089 27.5722 44.8916C29.0624 44.9654 30.5499 45.0769 32.0345 45.2258C32.067 45.3794 32.0995 45.5333 32.1343 45.6868C32.1735 45.8599 32.2156 46.0324 32.2642 46.2028C32.3 46.3285 32.3388 46.4532 32.3807 46.577C32.4226 46.7007 32.4676 46.8234 32.5155 46.9449C32.5633 47.0664 32.614 47.1867 32.6677 47.3059C32.7215 47.4249 32.7782 47.5427 32.8377 47.6589C32.8971 47.7752 32.9595 47.8901 33.0245 48.0034C33.0896 48.1167 33.1574 48.2283 33.228 48.3382C33.2663 48.3979 33.3054 48.4572 33.3453 48.5159C33.3788 48.5653 33.4129 48.6142 33.4476 48.6628C33.5233 48.7692 33.6016 48.8738 33.6825 48.9763C33.7635 49.0789 33.8469 49.1795 33.9327 49.2779C34.0185 49.3765 34.1067 49.4728 34.1972 49.567C34.2877 49.6611 34.3805 49.7532 34.4755 49.8429C34.5167 49.8818 34.5584 49.9203 34.6004 49.9584C34.6552 50.0079 34.7107 50.0568 34.7668 50.1048C34.8103 50.1421 34.8542 50.1788 34.8985 50.2151C34.9552 50.2615 35.0127 50.3071 35.0707 50.3521C35.1149 50.3864 35.1595 50.4202 35.2044 50.4535C35.2644 50.498 35.325 50.5417 35.3863 50.5846C35.4466 50.6267 35.5074 50.668 35.5688 50.7084C35.6164 50.7398 35.6644 50.7707 35.7127 50.8011C35.7642 50.8336 35.8161 50.8654 35.8683 50.8965C35.9282 50.9324 35.9886 50.9675 36.0494 51.0016C36.6088 51.3118 37.294 51.6243 37.941 51.4132C38.1833 51.3342 38.3573 51.1705 38.4578 50.938C38.5523 50.7191 38.6456 50.3152 38.5745 50.0844C38.4865 49.7989 38.0445 49.4757 37.4925 49.0722C36.6281 48.4402 35.4941 47.611 35.0276 46.4205L34.9943 46.3333C35.0248 46.1508 35.0635 45.9689 35.1035 45.7874L35.1265 45.6834C35.1446 45.6012 35.1627 45.5194 35.1802 45.4375C37.1825 45.5801 39.1822 45.7524 41.1792 45.9543C41.3405 46.5265 41.5011 47.0948 41.746 47.6383C42.3565 48.9932 43.3694 50.2912 44.809 50.8115C45.3168 50.9951 46.0742 51.2201 46.5776 50.9621C46.8548 50.8199 47.0457 50.5719 47.1413 50.2782C47.4733 49.258 46.6135 48.8647 45.8135 48.4986C45.497 48.3537 45.1898 48.2132 44.9696 48.0398C44.3543 47.5556 43.982 46.8824 43.6471 46.1907C45.5554 46.3819 47.4656 46.5506 49.3779 46.6965C49.3972 46.794 49.4183 46.8912 49.4413 46.9879C49.8777 48.8547 51.2221 50.6719 52.8736 51.6554C53.2096 51.8556 53.6589 52.0685 54.0582 51.9506C54.3844 51.8541 54.7078 51.5455 54.8665 51.2504C55.3019 50.4402 54.4398 49.8031 53.7394 49.2854C53.5243 49.1263 53.3244 48.9786 53.182 48.8407C52.6679 48.3424 52.265 47.7524 52.0374 47.0725L52.0078 46.9811C53.012 46.9947 54.0172 47.0562 55.0214 47.1178H55.024C55.46 47.1446 55.8958 47.1715 56.3312 47.1943C56.3976 47.4394 56.4861 47.6773 56.5813 47.9127C57.1989 49.4379 58.9194 51.5292 60.482 52.1369C60.7953 52.2588 61.1546 52.3048 61.4673 52.1532C61.7933 51.9951 62.1603 51.6311 62.2587 51.2746C62.4498 50.5823 61.6686 50.0383 61.0119 49.5811C60.7606 49.4061 60.5275 49.2438 60.3742 49.0907C59.8972 48.6146 59.5212 48.0535 59.171 47.4814C60.9999 47.5151 62.8524 47.611 64.6678 47.8334C65.5601 49.8097 66.5793 51.1835 68.5761 52.1492L68.6014 52.1614C68.9969 52.3528 69.4648 52.5794 69.9011 52.4065C70.1831 52.2947 70.5263 52.0304 70.6237 51.7315C70.8567 51.016 69.9043 50.4461 69.1784 50.0119C68.9388 49.8685 68.7239 49.74 68.5845 49.6258C68.0423 49.1817 67.6 48.5973 67.2608 47.9887C68.5081 48.0343 69.7612 48.1889 71.0078 48.3428L71.0119 48.3432C71.4484 48.397 71.8841 48.4507 72.3184 48.4996C72.3522 48.7051 72.3903 48.9096 72.4328 49.1134C72.8282 50.9411 73.8369 52.3854 75.4069 53.3939C75.9962 53.7725 76.906 54.3521 77.6335 54.1687C77.9297 54.0941 78.2156 53.8993 78.3675 53.6305C78.8447 52.7864 77.8326 52.2043 77.1464 51.8098C77.0436 51.7506 76.948 51.6957 76.8659 51.6448C76.5723 51.4622 76.3032 51.2392 76.0535 51.0007C75.3576 50.3362 74.9517 49.6296 74.6781 48.7134C76.2922 48.7915 77.9159 48.9849 79.5282 49.177L79.5802 49.1833C79.9602 49.2285 80.3394 49.2736 80.7178 49.3172C81.2812 49.382 81.8451 49.4417 82.4093 49.4996C82.7903 49.5386 83.1713 49.5768 83.5523 49.615C84.2917 49.689 85.031 49.7631 85.7697 49.8436C85.7649 50.5819 85.6082 51.3386 85.4553 52.0773C85.4088 52.3021 85.3626 52.5253 85.3211 52.7458C84.8568 55.214 84.2991 57.6591 83.7686 60.1138C81.3871 70.4393 78.6293 80.6565 74.6217 90.4825C72.8294 94.8772 70.8701 99.1365 68.3058 103.14C64.5811 102.274 60.8172 101.526 57.0608 100.78L57.0568 100.779C56.1155 100.592 55.1747 100.405 54.235 100.216C53.1899 100.006 52.1458 99.7935 51.1019 99.581C47.5613 98.8604 44.024 98.1406 40.4598 97.5236C36.3162 96.8147 32.1659 96.1477 28.0089 95.5228C27.24 95.4052 26.4699 95.2964 25.6998 95.1875C24.5206 95.0208 23.3414 94.854 22.1669 94.6562C19.0163 94.1038 15.8926 93.4274 12.7956 92.6269C10.5524 92.03 8.18687 91.3411 6.12598 90.2565C7.97984 88.1677 9.30607 85.6983 10.62 83.2518L10.6636 83.1708C15.4992 74.1681 18.989 64.4821 21.8393 54.6837C22.3984 52.7441 22.9191 50.7943 23.4014 48.8343C23.4808 48.5171 23.5582 48.1983 23.6357 47.879C23.8975 46.7998 24.1607 45.7153 24.5083 44.6653C24.5373 44.6658 24.5727 44.6655 24.6126 44.6653ZM30.855 54.8999L30.847 54.8996H30.8423C29.2759 54.8447 27.6975 54.7894 26.1557 54.6401C25.9236 54.75 25.8715 54.8255 25.7851 55.0664C25.4937 55.8787 25.2881 56.7494 25.0843 57.6125C24.9739 58.0799 24.8641 58.5451 24.7414 58.9974C24.6011 59.5151 24.4358 60.0288 24.2707 60.5423C24.0713 61.162 23.872 61.7814 23.7166 62.4073L23.7121 62.4253C23.6712 62.5898 23.6348 62.7358 23.6716 62.9039L23.7212 62.8308L23.7125 62.9338C24.5019 63.2337 25.7618 63.2929 26.8248 63.3429H26.8266L26.8367 63.3433L27.0121 63.3516C27.1098 63.3563 27.2054 63.361 27.2984 63.3659C27.4643 63.3748 27.6217 63.3843 27.7676 63.3957L33.4803 63.8414L33.4943 63.8391C33.5718 63.8263 33.6394 63.8152 33.7033 63.7976C33.7461 63.7859 33.7872 63.7712 33.8285 63.7511C33.8394 63.7459 33.8502 63.7403 33.8611 63.7343C33.8697 63.7294 33.8783 63.7245 33.887 63.7191C33.9109 63.7044 33.9353 63.6876 33.9602 63.6683C34.2643 63.0484 34.5521 61.7487 34.781 60.7154L34.7816 60.7127L34.782 60.7107C34.8611 60.3531 34.9331 60.0277 34.9962 59.7737C35.092 59.3887 35.1993 58.9966 35.3076 58.601L35.3082 58.5991C35.5596 57.6808 35.8161 56.744 35.9443 55.8343C35.9553 55.7553 35.9641 55.6783 35.9654 55.6018C35.967 55.5104 35.9578 55.4199 35.9291 55.3277C35.9003 55.2353 35.848 55.2145 35.769 55.1831L35.7476 55.1745C35.2608 54.9779 34.2143 54.9773 33.3922 54.9767C33.2934 54.9766 33.1977 54.9766 33.1067 54.9762C32.9308 54.9754 32.7722 54.9734 32.6407 54.9676C32.0491 54.9417 31.4529 54.9208 30.855 54.8999ZM68.0541 89.187C67.3775 88.9213 60.3571 87.6894 59.7232 87.7279C59.337 88.3113 58.9321 89.4008 58.5682 90.3798L58.5672 90.3825C58.3923 90.8531 58.2271 91.2976 58.0779 91.6484C57.826 92.2403 57.5524 92.8286 57.2785 93.4175L57.278 93.4187C56.8894 94.2543 56.5004 95.0908 56.1725 95.9396L56.1592 95.9741C56.0668 96.2117 55.9329 96.5567 56.0008 96.8006C56.0266 96.8931 56.1335 96.9593 56.2175 96.9964C56.7713 97.2417 58.0069 97.5238 59.0369 97.7593L59.0406 97.7601C59.4883 97.8623 59.8968 97.9556 60.1933 98.0331C60.6146 98.1432 61.0397 98.272 61.4661 98.4012L61.4692 98.402C62.1581 98.6106 62.8508 98.8204 63.538 98.9553C63.6698 98.9813 63.7934 98.9767 63.9144 98.9083C64.0127 98.8527 64.0924 98.7641 64.1621 98.668C64.2038 98.6105 64.2419 98.5503 64.2783 98.4928L64.3149 98.4351C65.0996 97.0818 68.4089 90.7183 68.4958 89.4982C68.4666 89.4295 68.4155 89.3759 68.3541 89.3323C68.2673 89.2706 68.1597 89.2283 68.0633 89.1905L68.0541 89.187ZM36.7993 55.0235C37.5167 55.0199 38.3078 55.1191 39.085 55.2166C39.5419 55.2739 39.994 55.3306 40.4236 55.3654C40.5806 55.3782 40.7385 55.3898 40.8969 55.4006L41.11 55.4147C41.2063 55.4209 41.3028 55.4268 41.3995 55.4325C41.6946 55.45 41.9913 55.4656 42.2886 55.4813C43.4939 55.5448 44.7092 55.6089 45.8729 55.7938L45.8843 55.7958C46.0077 55.8153 46.1112 55.8317 46.2024 55.8729C46.2807 55.9083 46.35 55.9619 46.4152 56.0512C46.4444 56.3129 46.4278 56.5475 46.3839 56.8054C46.2092 57.8327 45.9509 58.8512 45.6932 59.8672C45.5622 60.3839 45.4313 60.8999 45.3117 61.4161C45.2357 61.7444 45.1709 62.0868 45.1055 62.4322L45.1049 62.4353L45.1047 62.4365C44.9785 63.1031 44.8502 63.7805 44.6354 64.3894C44.6039 64.4787 44.5734 64.5432 44.5353 64.5945C44.5064 64.6333 44.4732 64.6645 44.432 64.693L44.4235 64.6989L44.408 64.7088L44.3865 64.722L44.3635 64.7349L44.3491 64.7426L44.3308 64.752L44.3109 64.7617L44.294 64.7698L44.2539 64.7886C42.9605 64.769 41.6393 64.6118 40.3314 64.4563C39.9784 64.4143 39.6264 64.3723 39.2761 64.3333C39.0702 64.3104 38.8648 64.2885 38.6603 64.268C38.2283 64.2249 37.7871 64.1977 37.3447 64.1706H37.3424C36.6577 64.1285 35.9704 64.0863 35.3103 63.9838C35.0406 63.9418 34.709 63.8957 34.5371 63.662C34.572 63.1042 34.8107 62.254 35.0215 61.5028C35.1174 61.1612 35.2076 60.8401 35.2702 60.5763C35.396 60.046 35.5141 59.4839 35.634 58.9131C35.8815 57.7351 36.1368 56.52 36.4849 55.4698C36.5516 55.2684 36.6436 55.1643 36.7993 55.0235ZM72.1395 79.123C71.4321 78.8117 64.1387 77.7855 63.2474 77.7807C63.053 78.0736 60.0188 86.6992 59.9723 87.0455C60.1519 87.1873 60.3604 87.2435 60.5785 87.2978C61.5069 87.5281 68.2978 88.7435 68.7048 88.6723C68.7666 88.6615 68.7898 88.653 68.8349 88.6366L68.8583 88.628C69.3774 87.8451 72.2909 80.095 72.1876 79.2827C72.1782 79.2097 72.1712 79.1942 72.1508 79.1483L72.1395 79.123ZM68.5379 57.5666C69.5746 57.5678 77.0095 58.1605 77.546 58.3907C77.6874 58.6227 77.6751 58.8404 77.6439 59.1026C77.5599 59.8087 77.3702 60.5273 77.1828 61.2375L77.1288 61.4423C77.1011 61.5475 77.0738 61.6524 77.0471 61.7571C77.003 61.93 76.9605 62.1021 76.9215 62.273C76.6442 63.5263 76.3512 64.7761 76.0424 66.0221C76.006 66.1711 75.972 66.3257 75.9375 66.4824L75.9373 66.4836L75.9363 66.4883L75.9357 66.4906C75.8422 66.9142 75.7455 67.3522 75.5901 67.7348C75.5416 67.854 75.4785 67.9146 75.3797 67.9923C74.8045 68.0065 74.2227 67.93 73.6456 67.854C73.4207 67.8244 73.1966 67.7949 72.9738 67.7709L68.8946 67.3396C68.8527 67.3349 68.8031 67.3301 68.7469 67.3249L68.5552 67.3077C67.811 67.2419 66.4503 67.1215 66.1869 66.7917C66.145 65.9903 66.5008 64.69 66.8043 63.5808L66.8047 63.5792L66.8049 63.5781C66.9294 63.1236 67.0451 62.7009 67.1209 62.358C67.2292 61.8678 67.3265 61.3693 67.424 60.8694L67.4246 60.8659C67.5916 60.0098 67.7594 59.1502 67.985 58.3228C68.0925 57.9291 68.1792 57.7746 68.5379 57.5666ZM26.3461 63.7045C25.4039 63.5976 24.4613 63.4907 23.5188 63.4313C23.2327 63.8268 22.7579 65.3405 22.3892 66.5159C22.2271 67.0325 22.0855 67.4837 21.9895 67.746C21.8645 68.0875 21.7334 68.4268 21.5997 68.7654C21.501 69.0156 21.4008 69.2654 21.3006 69.5151L21.2992 69.5186C21.0352 70.1767 20.7712 70.8347 20.5331 71.5011C20.4797 71.6509 20.4109 71.834 20.449 71.9928C20.464 72.055 20.5118 72.1139 20.5694 72.1609C20.6211 72.2031 20.6807 72.2358 20.7316 72.2529C20.7567 72.2613 20.7844 72.2675 20.8145 72.2718C20.8721 72.2802 20.9382 72.2816 21.0093 72.2789C21.1271 72.2743 21.2591 72.2583 21.3905 72.2422C21.5822 72.2188 21.7729 72.1954 21.9175 72.2082C22.6025 72.2688 23.2875 72.3567 23.9724 72.4446L24.4265 72.5026L24.6711 72.5331L24.9337 72.565C25.012 72.5744 25.0903 72.5837 25.1685 72.5927L25.314 72.609L25.4489 72.6237L25.5291 72.6323C26.1708 72.7 26.8145 72.7594 27.4584 72.819L27.4617 72.8194H27.464L27.8593 72.8559L28.21 72.8888L28.567 72.9228L28.7033 72.9361L28.9286 72.9584C29.4452 73.01 29.961 73.0657 30.4751 73.1296C30.6868 73.1333 30.7999 73.132 30.986 73.0116C31.4401 72.3923 33.7203 65.0676 33.6263 64.5968C33.6225 64.5779 33.6155 64.5606 33.606 64.5444C33.5963 64.528 33.584 64.5129 33.57 64.4989C33.5255 64.4548 33.4635 64.4228 33.4102 64.3981C33.1836 64.2936 32.9074 64.2601 32.6608 64.2322C31.8378 64.1389 31.0071 64.0898 30.1767 64.0406L29.9503 64.0272L29.637 64.0083C29.4792 63.9985 29.3214 63.9885 29.1638 63.9777C28.8992 63.9597 28.6349 63.9399 28.3713 63.9168C27.6964 63.8577 27.0214 63.7812 26.3461 63.7045ZM34.45 64.4401C35.2541 64.3558 36.9523 64.5654 38.2482 64.7254L38.2631 64.7273L38.3886 64.7427L38.3994 64.7439C38.6187 64.7709 38.8242 64.7962 39.0093 64.8174C39.137 64.8321 39.2549 64.8452 39.3609 64.8559L39.4284 64.8625C39.469 64.8666 39.5104 64.8705 39.5525 64.8743C39.6457 64.8827 39.7424 64.8911 39.8421 64.8993L39.919 64.9055C40.1335 64.9228 40.3609 64.9396 40.596 64.957L40.6072 64.9578L40.6169 64.9586H40.6189C41.865 65.0512 43.3223 65.1595 44.228 65.4162L44.2011 65.4534C44.2406 65.4972 44.2559 65.5053 44.2611 65.5177C44.264 65.5244 44.2638 65.5326 44.2629 65.5489L44.2621 65.5611L44.261 65.5857C44.2186 66.7567 42.2621 73.8062 41.6227 74.4144C41.1673 74.3457 39.9262 74.216 38.4753 74.0646L38.4615 74.063L38.455 74.0623C35.6778 73.7724 32.1446 73.4035 31.882 73.2283C31.8378 73.1987 31.7989 73.1421 31.7694 73.0787L31.7656 73.0704L31.7604 73.0583L31.7563 73.0485C31.7506 73.0344 31.7453 73.0202 31.7407 73.006C31.7334 72.9839 31.7273 72.962 31.7226 72.941C31.7182 72.9212 31.715 72.9022 31.7133 72.8846L31.712 72.8682C31.7003 72.6426 31.78 72.3806 31.8461 72.1653C31.9322 71.8846 32.024 71.6057 32.1185 71.3278C32.2064 71.0694 32.2966 70.8118 32.3869 70.554L32.3914 70.5411C32.5919 69.9689 32.7925 69.3964 32.9677 68.8156C33.0076 68.6835 33.0466 68.5502 33.0851 68.416C33.1089 68.333 33.1325 68.2495 33.1559 68.1658C33.1952 68.0257 33.234 67.8849 33.2726 67.7435L33.3439 67.4823C33.5885 66.5849 33.8358 65.6771 34.1661 64.835C34.232 64.667 34.3236 64.5663 34.45 64.4401ZM61.1983 56.9605C60.1238 56.838 59.0146 56.7115 58.0005 56.7603C57.8482 56.9324 57.7204 57.0889 57.6497 57.3106C57.4319 57.993 55.7753 65.3222 55.795 65.5925C55.8022 65.692 55.8792 65.7188 55.9511 65.7797L55.874 65.76C56.1199 65.8853 56.3648 65.9609 56.6361 66.0077C57.7848 66.2055 58.9813 66.3026 60.1666 66.3989L60.1973 66.4012C60.4959 66.4254 60.7936 66.4497 61.0897 66.4756C61.1962 66.4849 61.3026 66.4944 61.4086 66.5042C61.5407 66.5164 61.6723 66.529 61.8035 66.5421C62.2065 66.5825 62.6186 66.6369 63.0334 66.6917C63.8426 66.7986 64.6625 66.9068 65.4465 66.9158C65.5061 66.8403 65.5552 66.7664 65.5974 66.6891C65.6463 66.5991 65.6858 66.5048 65.7214 66.3986C66.0107 65.5342 67.7353 58.3532 67.6066 57.8125C67.5981 57.7767 67.5828 57.7429 67.571 57.7081L67.5045 57.7296L67.5126 57.6432C67.2469 57.545 66.9854 57.4778 66.7045 57.4407C65.8247 57.324 64.9269 57.2659 64.0316 57.208C63.7103 57.1871 63.3894 57.1662 63.0698 57.1428C62.9484 57.1339 62.8272 57.1245 62.7063 57.1148L62.5916 57.1054L62.4811 57.0958C62.065 57.0593 61.6346 57.0102 61.1983 56.9605ZM47.1557 55.8692C48.1047 55.8973 56.3009 56.4495 56.7202 56.7258C56.8362 56.8024 56.9428 56.9588 56.977 57.0948C57.1658 57.8448 55.527 65.1741 55.1315 65.8445C54.0823 65.8624 52.7684 65.6935 51.5547 65.5376C51.0617 65.4742 50.5852 65.4131 50.1498 65.3673C50.0964 65.3617 50.0413 65.3561 49.9845 65.3506C49.8422 65.337 49.6896 65.3235 49.5292 65.3101C49.3279 65.2933 49.1141 65.2765 48.8926 65.259C47.6031 65.1573 46.0523 65.0351 45.1685 64.7706L45.2007 64.7239L45.1918 64.6997L45.1853 64.6821L45.1793 64.6649L45.1744 64.6487C45.0451 64.1827 46.826 56.4317 47.1557 55.8692ZM75.1526 68.7775C74.3487 68.389 67.129 67.6236 66.0313 67.6381C65.6676 68.1682 63.8017 75.0702 63.5626 76.0756L63.5575 76.0968L63.5552 76.1061C63.5253 76.2329 63.4932 76.3689 63.4697 76.5061C63.4402 76.6789 63.4242 76.8536 63.443 77.0145L63.4774 76.9894C63.5103 77.0197 63.538 77.0568 63.5761 77.0804C64.0317 77.363 70.9992 78.4079 72.035 78.4628C72.1968 78.4713 72.3498 78.4482 72.5062 78.411L72.5215 78.4078L72.5339 78.4052C73.0328 77.5386 75.3209 69.6418 75.2007 68.9109C75.1965 68.8852 75.1925 68.8678 75.1878 68.853C75.1817 68.8339 75.1743 68.8194 75.1631 68.798L75.1526 68.7775ZM31.6706 73.7336C33.1771 73.9688 34.6991 74.1432 36.2184 74.3173L36.2223 74.3177C36.8212 74.3862 37.4195 74.4548 38.0163 74.5271C38.1624 74.5448 38.3106 74.5608 38.46 74.5762C38.5642 74.5869 38.669 74.5973 38.7742 74.6078C39.4354 74.6736 40.1113 74.741 40.737 74.8939C41.0162 74.9621 41.3305 75.0419 41.5264 75.2643C41.5313 75.3796 41.5225 75.4897 41.5038 75.5989C41.4865 75.6992 41.461 75.7987 41.4303 75.9004C41.1588 76.7986 38.8933 83.3989 38.6326 83.6531C38.5809 83.7036 38.5308 83.7355 38.4795 83.7564C38.372 83.8003 38.2598 83.7955 38.1187 83.8093C37.7855 83.7551 36.9222 83.6432 35.836 83.5026L35.8321 83.5022L35.8257 83.5014C32.9589 83.1298 28.5505 82.5584 28.2267 82.3139C28.2243 82.1421 28.2482 81.9988 28.2967 81.8334C28.4856 81.1878 28.825 80.3878 29.1546 79.6111L29.2511 79.3836L29.307 79.2512C29.3504 79.1483 29.3931 79.0464 29.4349 78.9457C29.5356 78.7029 29.6303 78.4681 29.7136 78.2472C29.8034 78.0092 29.8886 77.7654 29.9719 77.5182C30.0477 77.2933 30.1219 77.0658 30.1963 76.8374C30.4972 75.9141 30.8027 74.9768 31.2378 74.1521C31.3532 73.9336 31.4541 73.849 31.6706 73.7336ZM44.8344 75.3727C43.9701 75.2551 43.0909 75.1355 42.2471 75.1244C42.1449 75.2226 42.0595 75.3083 42.0002 75.4393C41.7125 76.075 41.5006 76.7918 41.2923 77.4965C41.2557 77.6203 41.2192 77.7439 41.1824 77.8666C41.1094 78.11 41.0353 78.3499 40.9569 78.5824C40.7853 79.0917 40.5993 79.6033 40.4127 80.1165L40.4108 80.1219C40.2841 80.4703 40.1572 80.8194 40.0343 81.1691C39.8297 81.751 39.6364 82.3341 39.474 82.9177C39.3966 83.1957 39.3379 83.502 39.3335 83.7913C39.3334 83.7947 39.3337 83.798 39.334 83.8012L39.3352 83.8106L39.3369 83.8228L39.4299 83.8029L39.3587 83.8967C39.5847 84.0321 39.8192 84.0952 40.0763 84.1441C40.956 84.3121 48.6026 85.5114 49.1172 85.4073C49.5653 84.8523 52.2179 77.2139 52.1711 76.5548C51.9453 76.343 51.6355 76.2687 51.3396 76.203C50.0624 75.9197 48.6989 75.7882 47.3645 75.6596C47.171 75.641 46.9781 75.6223 46.7861 75.6033L46.584 75.5831L46.4032 75.5647C46.2592 75.5497 46.1157 75.5345 45.9733 75.5186C45.843 75.5039 45.7118 75.4882 45.58 75.4716C45.3399 75.4414 45.0976 75.4085 44.854 75.3754L44.843 75.3738L44.8344 75.3727ZM49.4595 86.0944C49.5035 86.0958 49.5476 86.0977 49.5916 86.1L49.6512 86.1034C49.6854 86.1055 49.7196 86.1077 49.7539 86.1102C50.7863 86.1863 51.8469 86.3847 52.8933 86.5806L52.8946 86.581C53.3736 86.6707 53.8495 86.7597 54.3183 86.8362C54.4107 86.8512 54.5033 86.8658 54.5962 86.88L54.7795 86.9078C54.8567 86.9193 54.934 86.9306 55.0115 86.9417C55.2457 86.9752 55.481 87.0074 55.7167 87.0396L55.7484 87.0439L55.7529 87.0447C56.6486 87.1669 57.549 87.2897 58.4157 87.4906L58.4889 87.5071C58.7047 87.5554 58.9605 87.6126 59.0966 87.7722C58.9679 88.9556 55.9805 96.0111 55.3694 96.8182C55.2203 96.9013 55.1302 96.9324 54.9567 96.9168C54.9062 96.9122 54.8552 96.9062 54.8038 96.8992C54.5653 96.8667 54.3185 96.8113 54.0762 96.7568L54.07 96.7553C53.9345 96.7249 53.8005 96.6949 53.6703 96.6695C52.7909 96.4959 51.9104 96.3288 51.0287 96.168C50.5543 96.0806 50.0443 96.0029 49.5248 95.9237C48.4934 95.7665 47.4248 95.6035 46.5248 95.3477C46.2778 95.2775 46.0901 95.2013 45.927 94.9961C45.9009 94.9158 45.8924 94.8476 45.896 94.7826C45.9018 94.678 45.9393 94.5817 45.986 94.4565C46.1783 93.9409 46.4176 93.4359 46.6567 92.9315C46.8284 92.5693 46.9999 92.2074 47.1539 91.842C47.9429 89.9345 48.7115 88.0186 49.4595 86.0944ZM62.4665 77.7704C61.7635 77.4261 53.7863 76.3848 52.8186 76.3844C52.5471 76.8841 52.3853 77.4942 52.2276 78.0893C52.1493 78.3844 52.072 78.676 51.9828 78.9484C51.8763 79.2737 51.6524 79.8905 51.3878 80.6195C50.7221 82.4526 49.7989 84.9953 49.838 85.3961C49.8487 85.4102 49.8583 85.4252 49.868 85.4402C49.8791 85.4574 49.8902 85.4746 49.9027 85.4904C49.9121 85.502 49.9222 85.5128 49.9336 85.5223C50.2725 85.8043 56.0673 86.6202 56.9263 86.7391C56.9911 86.7481 57.0565 86.7576 57.1226 86.7674C57.2017 86.7793 57.2816 86.7915 57.3621 86.804L57.5345 86.8311C58.1665 86.9305 58.828 87.0347 59.436 87.0244C59.7897 86.4409 60.0264 85.733 60.2539 85.0528C60.333 84.8163 60.4109 84.5832 60.4923 84.3598C60.6146 84.0241 60.7448 83.6739 60.8785 83.3146C61.437 81.8129 62.0551 80.151 62.3991 78.7174C62.4761 78.3962 62.5217 78.1009 62.4665 77.7704ZM45.2904 65.4385C46.4987 65.4599 54.3717 66.2715 54.8677 66.503L54.8618 66.5301C54.8574 66.5497 54.8554 66.5586 54.8562 66.567C54.8568 66.5739 54.8592 66.5807 54.8636 66.593C54.869 66.6082 54.8774 66.632 54.8892 66.6752L54.8992 66.6282C54.7903 67.7262 54.4653 68.8357 54.148 69.9191L54.1472 69.9221L54.1419 69.9401C54.0922 70.1098 54.0427 70.2788 53.9943 70.447C53.9458 70.6153 53.8985 70.7828 53.8532 70.9493C53.7603 71.2902 53.6709 71.6385 53.5808 71.9896C53.2898 73.1236 52.991 74.2881 52.5403 75.3347C52.4218 75.6103 52.3445 75.6663 52.0801 75.7763C51.644 75.732 51.208 75.6805 50.7723 75.6252C50.269 75.5614 49.7658 75.4926 49.2629 75.4238C48.9666 75.3832 48.6704 75.3427 48.3742 75.3032L48.0167 75.256C47.8268 75.2312 47.637 75.2072 47.4471 75.184C47.146 75.1472 46.7367 75.11 46.2788 75.0684C44.9509 74.9476 43.2145 74.7898 42.5241 74.498C42.4037 74.2694 42.4544 74.0271 42.5062 73.7804L42.5142 73.7421C42.6678 73.0027 42.9202 72.2576 43.1697 71.5211L43.1716 71.5149C43.2957 71.1487 43.4191 70.7847 43.5291 70.4246C43.7632 69.6577 43.9676 68.8834 44.1719 68.1091L44.1731 68.1044L44.2525 67.8038L44.3188 67.5538C44.4068 67.2231 44.4961 66.8926 44.589 66.563L44.6041 66.5091C44.7358 66.0406 44.8336 65.6922 45.2904 65.4385ZM58.0334 66.6889C57.2405 66.5809 56.426 66.4699 55.6698 66.5009C55.6296 66.5481 55.5918 66.5947 55.5569 66.6424C55.4904 66.7337 55.4347 66.8292 55.3934 66.9415C55.1624 67.5686 55.0045 68.2517 54.8482 68.9282C54.7572 69.322 54.6667 69.7135 54.5626 70.0904C54.4815 70.3843 54.3967 70.6779 54.31 70.9713C54.2284 71.2472 54.1453 71.5231 54.062 71.7991L54.0612 71.8018C53.8798 72.4038 53.6982 73.0061 53.5331 73.611C53.4441 73.937 53.3599 74.2637 53.2831 74.5915C53.2135 74.8883 53.0663 75.4239 53.13 75.7157C53.1346 75.7365 53.1424 75.7564 53.1502 75.7762C53.1541 75.7861 53.1581 75.7961 53.1616 75.8063C53.8636 76.046 62.4012 77.1272 62.8617 77.0257C63.1981 76.0507 65.4593 68.1757 65.426 67.7189C65.1306 67.5396 64.7875 67.4594 64.4493 67.4006C63.2178 67.1868 61.942 67.0763 60.6777 66.9666L60.662 66.9647L60.6456 66.9631C60.1126 66.9168 59.5817 66.8708 59.0571 66.8171C58.9395 66.8051 58.8205 66.7914 58.7004 66.7767C58.6406 66.7694 58.5805 66.7617 58.5202 66.7539C58.3607 66.7333 58.1997 66.7114 58.0377 66.6893L58.0334 66.6889ZM38.9444 84.4635C40.1019 84.5759 48.0738 85.7256 48.6527 86.0712L48.6756 86.0846C48.7509 86.1287 48.806 86.161 48.8168 86.2617C48.8766 86.8235 46.013 93.6053 45.5279 94.4841C45.4005 94.715 45.2639 94.8836 45.0676 95.0588C44.6249 95.105 36.4931 93.5463 35.8033 93.3174C35.5812 93.2437 35.3067 93.1625 35.1978 92.9487C35.2082 92.6362 35.46 92.2031 35.675 91.833L35.7412 91.7188C35.798 91.6202 35.8497 91.5279 35.8904 91.4459C36.4407 90.3372 36.9066 89.1806 37.3709 88.028C37.5297 87.6337 37.6883 87.2399 37.8501 86.8486C37.9284 86.6592 38.005 86.4553 38.0837 86.246C38.319 85.6198 38.5725 84.945 38.9444 84.4635ZM28.0052 82.795L27.9507 82.7932C27.4611 83.4076 26.566 85.4699 25.8814 87.0477L25.8802 87.0504L25.6407 87.6014C25.5359 87.8415 25.4393 88.0614 25.3535 88.2517L25.3146 88.3376L25.2741 88.426C25.2553 88.4671 25.2371 88.5063 25.2196 88.5435C25.0927 88.8139 24.9474 89.0784 24.8021 89.3431C24.611 89.6912 24.4197 90.0397 24.2697 90.4018C24.2209 90.5198 24.183 90.6278 24.1566 90.7403C24.1367 90.825 24.1233 90.9124 24.1164 91.0083C24.2022 91.2117 24.327 91.2656 24.5309 91.342C25.0964 91.5536 25.7325 91.6713 26.3501 91.7856C26.4612 91.8062 26.5717 91.8267 26.6811 91.8476C26.7894 91.8682 26.8967 91.8893 27.0023 91.9113C29.3991 92.4105 31.8687 92.8973 34.3073 93.1332C35.0443 92.314 38.1671 85.5002 38.1927 84.4987C38.151 84.4529 38.0937 84.4157 38.028 84.3851C37.889 84.32 37.7127 84.2838 37.5685 84.254C37.5404 84.2483 37.5136 84.2428 37.4885 84.2373C36.0839 83.9327 34.6341 83.7337 33.1955 83.5363L33.1853 83.5348C32.6494 83.4612 32.115 83.388 31.5852 83.3095C31.4072 83.2831 31.2272 83.2539 31.0458 83.2233C30.8549 83.1911 30.6624 83.1572 30.469 83.1232C29.6456 82.9783 28.8063 82.8307 28.0052 82.795ZM20.3801 72.3704L20.3392 72.3738C19.9231 72.9379 19.6528 73.6996 19.3985 74.4161C19.3052 74.6789 19.2141 74.9356 19.1187 75.1744C18.9258 75.6489 18.7304 76.1223 18.5324 76.5948C18.3487 77.0331 18.1627 77.4705 17.9745 77.907C17.054 80.0539 16.0579 82.1652 14.9862 84.2406C14.5651 85.0849 14.1216 85.9174 13.6559 86.7378C13.5479 86.9245 13.4305 87.1095 13.3129 87.2949L13.3109 87.298C13.1284 87.5858 12.9453 87.8744 12.7957 88.1723C12.7105 88.3422 12.6569 88.4748 12.6512 88.6653C13.3629 89.565 21.4434 90.8635 23.0105 91.06C23.0629 91.0665 23.1148 91.0708 23.167 91.0742C23.2034 91.0765 23.2399 91.0784 23.2767 91.0802C24.5633 88.9549 25.8712 86.094 26.8486 83.7869C26.9712 83.5142 27.2204 83.1005 27.1053 82.8C27.0587 82.6785 26.8558 82.6026 26.7391 82.5631C26.33 82.4245 25.8788 82.3622 25.438 82.3013C25.2794 82.2794 25.1222 82.2577 24.9687 82.2327C24.7345 82.1945 24.3964 82.1438 23.992 82.0832C22.0276 81.7888 18.4985 81.2599 17.7032 80.7845L17.6946 80.767C17.7287 80.7407 17.7569 80.7198 17.7817 80.7037C17.799 80.6925 17.8146 80.6835 17.8294 80.6764C17.8959 80.6445 17.9454 80.6511 18.0535 80.6657L18.1256 80.675C18.3342 80.7005 18.5435 80.7343 18.7531 80.7733C19.1304 80.8434 19.5087 80.9305 19.8861 81.0175L19.8927 81.0191L20.1135 81.0698C20.1938 81.0881 20.2742 81.1063 20.3545 81.1241C20.5693 81.1719 20.7835 81.2174 20.9966 81.2571C21.821 81.4112 26.9735 82.2763 27.422 82.1339C27.5833 81.9772 27.6911 81.8169 27.7917 81.6164C28.2814 80.6384 30.658 74.6796 30.6941 73.9578L30.6947 73.9434L30.6946 73.9229C30.6943 73.9138 30.6938 73.9049 30.693 73.896C30.6924 73.8887 30.6915 73.8816 30.6905 73.8745L30.6887 73.8632C30.6869 73.8529 30.6848 73.8428 30.6822 73.8329C30.674 73.8005 30.662 73.7685 30.6467 73.7345C30.4138 73.5232 28.4774 73.3495 27.3449 73.2481L27.3423 73.2477C27.0421 73.2208 26.7985 73.1991 26.6586 73.183C25.2353 73.0182 23.8136 72.8405 22.3935 72.6498L22.3424 72.6424C22.3184 72.6388 22.2941 72.6349 22.2696 72.6309C22.1664 72.6139 22.0592 72.5936 21.9495 72.5718C21.8831 72.5587 21.8158 72.545 21.7479 72.5311C21.3045 72.4408 20.8388 72.3459 20.4524 72.3653L20.4264 72.3667L20.3801 72.3704Z" fill="#E8E9EC"/>
</svg>
