<svg width="24" height="24" viewBox="0 0 24 24" fill="none" xmlns="http://www.w3.org/2000/svg">
<path d="M10.9364 5.27656C10.8689 4.33536 11.2479 3.34403 11.9283 2.69204C12.4549 2.18747 13.3946 1.59248 14.1672 1.61487C15.0967 1.64181 15.4048 2.8211 14.762 3.40831C14.4605 3.64672 14.2729 3.60479 13.9409 3.7208C13.2256 3.97061 12.9433 4.63295 12.9602 5.33451C12.8066 5.31992 12.6581 5.30647 12.5064 5.27656C11.9841 5.29427 11.4591 5.26389 10.9364 5.27656Z" fill="black"/>
<path d="M6.78393 12.5434C6.7816 12.549 6.77917 12.5549 6.77663 12.5612C6.73556 12.6627 6.68766 12.8069 6.63826 12.9774C6.53955 13.3181 6.46007 13.6754 6.43483 13.8141L6.78393 12.5434ZM6.78393 12.5434L6.82978 12.5036L6.91827 12.3276C6.96946 12.2259 7.01955 12.124 7.06915 12.0231C7.21617 11.7242 7.35893 11.4339 7.51338 11.1802C7.56553 11.0945 7.61014 11.0285 7.64657 10.9791H11.9578H16.0962C16.1408 11.0356 16.1975 11.114 16.2679 11.22C16.3529 11.3482 16.4361 11.4826 16.5299 11.6339C16.568 11.6956 16.608 11.76 16.6504 11.828C16.788 12.0481 16.947 12.2958 17.1189 12.5218C17.3719 12.8544 17.5691 13.452 17.6435 14.2047C17.716 14.9381 17.6572 15.6711 17.5289 16.1683L17.5289 16.1683C17.2226 17.3549 16.4141 18.7393 15.3192 19.7948C14.2172 20.8572 12.9654 21.4581 11.7937 21.3784C10.4395 21.2862 9.18795 20.3794 8.13735 19.1731C6.73448 17.5623 6.07436 15.796 6.43481 13.8142L6.78393 12.5434ZM16.01 10.8815C16.0012 10.875 15.9968 10.8708 15.9967 10.8703C15.9967 10.8698 16.0011 10.8731 16.01 10.8815ZM7.7446 10.8657C7.74458 10.8661 7.74038 10.8702 7.7321 10.8765C7.74049 10.8684 7.74463 10.8652 7.7446 10.8657Z" stroke="black" stroke-width="2"/>
<path d="M12.9542 6.1921L12.9733 6.19425L12.9925 6.19565C13.8188 6.2562 14.8091 6.61063 15.7719 7.18782C16.7291 7.76163 17.5854 8.51172 18.1611 9.28073C18.4699 9.69331 18.6161 10.0669 18.5939 10.4618C18.5828 10.6599 18.5414 10.7098 18.5321 10.7209C18.5317 10.7214 18.5314 10.7218 18.5311 10.7222C18.502 10.759 18.4456 10.8107 18.2742 10.9195C18.0385 10.9816 17.7856 10.9789 17.3921 10.9746C17.2855 10.9735 17.1685 10.9722 17.0387 10.9721H17.0379L6.86737 10.9723C6.86736 10.9723 6.86736 10.9723 6.86735 10.9723C6.86728 10.9723 6.8672 10.9723 6.86713 10.9723C6.79983 10.9723 6.73623 10.9724 6.67597 10.9726C6.18833 10.9737 5.91952 10.9743 5.67859 10.8848C5.59765 10.8293 5.48664 10.6969 5.43188 10.4605C5.3721 10.2025 5.41345 9.95238 5.51245 9.78815L5.51245 9.78813C6.67866 7.85344 8.63162 6.62027 10.5868 6.26584C10.5838 6.26638 10.582 6.26671 10.582 6.2668C10.582 6.26708 10.602 6.2646 10.6685 6.25712C10.7346 6.24968 10.8282 6.23894 10.9242 6.22457C11.0136 6.21117 11.1394 6.18975 11.262 6.1546C11.2853 6.14792 11.3135 6.13936 11.345 6.12846C11.4935 6.12799 11.647 6.13063 11.8131 6.13348L11.8479 6.13408C12.0627 6.13775 12.2985 6.14142 12.5403 6.13533C12.6879 6.1625 12.8238 6.1776 12.9264 6.18901C12.936 6.19007 12.9453 6.1911 12.9542 6.1921Z" stroke="black" stroke-width="2"/>
</svg>
