<svg width="112" height="112" viewBox="0 0 112 112" fill="none" xmlns="http://www.w3.org/2000/svg">
<path d="M67.1598 6.31182C70.8495 6.124 74.6092 6.54065 78.2902 6.79659C81.4157 7.01398 85.3655 7.01363 88.3653 7.92068C89.2506 8.18824 90.0536 8.62743 90.4889 9.48097C90.7765 10.0451 90.9937 10.8962 90.7626 11.5116C90.5348 12.1178 89.9893 12.4426 89.438 12.7128C89.3271 14.2491 89.0927 15.701 89.6519 17.1743C90.8904 17.8758 92.0967 18.4522 93.1316 19.458C94.7772 21.0579 95.6542 23.3264 96.0412 25.5515C96.4755 28.0484 96.3623 30.5877 96.3482 33.1103C96.3324 35.7839 96.3401 38.4574 96.3713 41.1309L97.0257 71.0229C97.118 75.7203 96.9631 80.5008 96.6728 85.1885C96.532 87.4625 96.4718 89.8684 95.9145 92.0835C95.5941 93.3576 95.0925 94.6039 94.1615 95.557C93.1986 96.5431 91.9307 97.1575 90.6904 97.7188C84.452 100.542 76.1494 101.502 69.3587 101.606C64.3584 101.877 55.8509 101.129 51.1557 99.7045C47.3285 98.5438 43.3944 96.5266 41.4491 92.8587C40.4711 91.0147 40.1796 88.9533 39.9871 86.9023C39.6987 83.8285 39.6653 80.7328 39.6076 77.6483C39.5027 72.0604 39.543 66.4763 39.4796 60.8888C39.4167 56.9531 39.3953 53.0172 39.4155 49.0811C39.4271 46.6616 39.5055 44.2435 39.4872 41.8236C39.4565 37.7834 39.1566 33.7317 39.3703 29.6919C39.4666 27.8715 39.6662 26.0503 40.208 24.3026C41.2229 21.0278 43.252 18.8471 46.2645 17.2505C46.2289 16.3889 46.4804 15.6263 46.5899 14.783C46.6644 14.2095 46.6186 13.6212 46.5922 13.0455C46.4273 12.9259 46.2613 12.8071 46.1043 12.677C45.5584 12.2254 45.2782 11.6248 45.2402 10.9228C45.2059 10.291 45.3782 9.6892 45.81 9.21658C46.3137 8.66562 47.0217 8.39525 47.7223 8.19229C49.2236 7.75769 50.8788 7.63799 52.4292 7.44031C57.3219 6.83573 62.2321 6.45956 67.1598 6.31182Z" fill="#949AB8"/>
<path d="M35.2864 44.6776C36.6774 44.6405 38.0686 44.6272 39.46 44.6377C42.4633 44.6498 50.4626 44.7966 52.5037 46.9506C52.9848 47.4585 53.2212 48.1068 53.1941 48.8054C53.1572 49.7567 52.6369 50.4019 51.9596 51.0008C51.8928 52.7444 51.8965 54.5144 52.1296 56.2459C52.6939 57.0922 53.6563 57.5421 54.418 58.1921C56.0874 59.6168 56.4125 62.2658 56.5634 64.3337C57.0426 70.9082 57.1462 77.563 57.1736 84.1525C57.1885 87.7706 57.3562 91.4182 56.9826 95.0245C56.7917 96.868 56.5936 99.4737 55.3287 100.91C51.9767 104.715 42.6468 105.527 37.7877 105.822C35.3723 105.852 32.9659 105.872 30.5597 105.635C26.0225 105.188 19.814 104.44 16.7787 100.7C16.0727 99.8297 15.4467 98.7793 15.2696 97.6595C15.0142 96.0442 15.094 94.3242 15.1044 92.6908C15.1241 89.5977 15.252 86.5076 15.2762 83.4149L15.2869 72.77C15.2891 70.1843 15.2342 67.5611 15.5191 64.987C15.9746 60.8717 17.2604 58.5584 20.5051 55.9687C20.7121 54.6869 20.6362 51.8803 20.3623 50.5979C20.2161 49.9129 19.8364 49.3095 19.7902 48.5957C19.7542 48.0392 19.8872 47.5712 20.2796 47.164C22.3432 45.0222 32.2941 44.7674 35.2864 44.6776Z" fill="#949AB8"/>
<path d="M66.4774 7.63012C69.9141 7.42323 73.4122 7.68629 76.863 7.94579C77.5018 7.99383 78.1392 8.04176 78.7741 8.08655C79.3656 8.12831 79.9621 8.16393 80.5608 8.19969C82.5591 8.31903 84.5826 8.43987 86.5327 8.7954C87.2627 8.92866 87.9482 9.08901 88.5973 9.46201C85.7663 10.0849 82.7629 10.1706 79.8442 10.2538L79.8432 10.2539L79.8421 10.2539C79.3918 10.2667 78.9428 10.2796 78.4974 10.2943C75.257 10.3918 72.0184 10.5297 68.7815 10.7081C66.3556 10.8701 63.9058 10.8832 61.472 10.8961L60.7662 10.9C56.0371 10.9278 51.1949 10.9563 46.5544 9.93728C47.1433 9.61304 47.7506 9.3997 48.4049 9.25078C49.5655 8.98643 50.7889 8.863 51.9914 8.74165C52.3448 8.70599 52.6964 8.67052 53.044 8.6317C57.5128 8.1325 61.9889 7.87603 66.4774 7.63012Z" fill="#E8E9EC"/>
<path d="M88.0846 12.9055L87.9626 12.9161C79.4087 13.5182 70.8445 13.8655 62.27 13.958C57.5349 13.9778 52.4207 13.9837 47.7464 13.1917C47.7511 13.303 47.7507 13.4504 47.7502 13.6166C47.7487 14.1928 47.7466 14.9955 47.9534 15.3074L48.2025 15.385C55.5914 16.3462 63.0601 16.2474 70.4945 16.1491L70.6923 16.1465C71.394 16.1372 72.0973 16.1307 72.8017 16.1242L72.8104 16.1241L72.8119 16.1241C77.9676 16.0765 83.1801 16.0285 88.219 14.8905C88.2226 14.7748 88.2274 14.6584 88.2323 14.5415L88.2323 14.5404L88.2325 14.5379L88.2325 14.5368L88.2326 14.5352L88.2327 14.5327L88.2327 14.5312L88.2328 14.5297L88.2328 14.5281L88.2329 14.5236C88.2536 14.0211 88.2746 13.5112 88.2125 13.0169L88.0846 12.9055Z" fill="#E8E9EC"/>
<path d="M88.0068 15.8943L87.9823 15.8991L88.1655 15.9485L88.2252 16.096L88.212 16.1206C88.1884 16.1648 88.1843 16.1725 88.1165 16.2175C87.5872 16.5679 86.2805 16.6917 85.342 16.7805C85.0996 16.8035 84.8818 16.8241 84.7083 16.8457C77.3684 17.7605 69.85 17.8323 62.4626 17.8107L62.0689 17.8096C57.4977 17.7969 52.0013 17.7816 47.6118 17.0297C47.4746 16.7787 47.4572 16.4875 47.5229 16.2115C47.535 16.2054 47.5467 16.1983 47.5584 16.1911C47.5818 16.1769 47.6057 16.1624 47.632 16.1559C47.8188 16.1093 49.0093 16.2651 49.7808 16.3661C50.0575 16.4023 50.2805 16.4315 50.3836 16.4418C52.7158 16.6584 55.0522 16.8119 57.3927 16.9024C60.3229 17.0219 63.2367 16.9897 66.1577 16.9574L66.1588 16.9574H66.1608C67.1554 16.9464 68.1516 16.9354 69.1487 16.9304C69.6057 16.9281 70.0626 16.9263 70.5193 16.9245L70.5211 16.9245L70.5437 16.9244H70.5494C76.3976 16.9014 82.2167 16.8784 88.0068 15.8943Z" fill="#E8E9EC"/>
<path d="M88.1655 15.9485L88.1538 15.9195L88.3132 15.9883L88.1655 15.9485Z" fill="#E8E9EC"/>
<path d="M82.8839 60.493C82.1983 60.2804 81.368 60.2431 80.6554 60.3443C79.7466 60.4452 78.8545 60.5573 78.2265 61.3051C77.7848 61.8308 77.6336 62.5427 77.7218 63.214C77.8218 63.9748 78.2638 64.6509 78.8846 65.0929C79.6582 65.6435 80.6845 65.8085 81.6081 65.633C81.6814 65.6189 81.7544 65.6033 81.827 65.5861C82.9471 65.0864 84.0152 64.4022 84.488 63.2042C84.6795 62.7189 84.7065 62.1912 84.4702 61.7161C84.1627 61.0973 83.5266 60.6925 82.8839 60.493Z" fill="#E8E9EC"/>
<path d="M94.2449 60.9501C94.7876 61.2059 95.1666 61.6711 95.5024 62.1538C95.7059 64.0467 95.7186 66.7264 95.721 68.6491C95.7217 69.1803 95.704 69.9223 95.285 70.3019L95.283 70.3037C95.238 70.3447 95.2201 70.3609 95.1995 70.3662C95.1876 70.3693 95.1748 70.3687 95.1554 70.3671L95.1464 70.3664C95.1366 70.3655 95.1251 70.3646 95.1117 70.3637C95.1034 70.3632 95.0944 70.3627 95.0845 70.3623L95.0704 70.3619L95.0557 70.3616C94.8305 70.2064 94.7455 70.0523 94.6204 69.8191C94.2698 69.3301 93.8273 68.908 93.3899 68.4908C93.2971 68.4023 93.2045 68.3139 93.1131 68.2252C93.1569 68.1621 93.201 68.0989 93.2452 68.0357L93.2483 68.0313C93.5887 67.544 93.9338 67.0502 94.2021 66.5213C95.1213 64.7089 94.8543 62.8084 94.2449 60.9501Z" fill="#E8E9EC"/>
<path d="M95.5512 70.9627C95.8281 71.4269 95.7957 75.5568 95.6917 76.2471C95.6023 76.1871 95.5873 76.0772 95.5725 75.9688L95.5723 75.9674L95.5679 75.9359L95.5642 75.9112L95.563 75.9043L95.5622 75.8993L95.5605 75.8899L95.5583 75.8784L95.5565 75.8694C95.3723 75.0106 95.0979 74.5071 94.51 73.8745C94.8114 73.2493 94.8578 72.8168 94.9074 72.3537C94.9381 72.0682 94.9699 71.7711 95.0636 71.41C95.1282 71.161 95.2449 71.1069 95.4256 71.0231C95.4644 71.0051 95.5063 70.9857 95.5512 70.9627Z" fill="#E8E9EC"/>
<path d="M59.0242 98.8848C58.5151 98.4154 57.9978 97.9385 57.7726 97.8941C57.3397 98.0684 56.9253 98.2026 56.5165 98.3045C56.4372 98.6421 56.3434 98.9731 56.2307 99.2895C57.4948 99.4918 58.7654 99.6215 60.0393 99.7489C59.7933 99.5938 59.4111 99.2414 59.0242 98.8848Z" fill="#E8E9EC"/>
<path d="M56.7415 97.1075C58.4237 96.4593 59.9138 95.4301 60.8169 93.7929C61.5073 92.5415 61.5325 91.2351 61.1269 89.8955C60.5099 87.8581 59.0095 86.2387 57.1815 85.201C57.1862 85.6477 57.1922 86.0947 57.1982 86.542C57.236 89.3721 57.274 92.2107 56.9826 95.024C56.9719 95.127 56.9612 95.2324 56.9503 95.3398C56.8944 95.8905 56.8331 96.4949 56.7415 97.1075Z" fill="#E8E9EC"/>
<path d="M57.1744 84.3193C58.3333 84.8967 59.3691 85.6277 60.2676 86.679C60.4228 86.8607 60.717 87.3241 60.9959 87.7634C61.2851 88.2189 61.5578 88.6485 61.6423 88.7116C61.6626 88.7267 61.8138 88.6766 61.85 88.6583C61.943 88.6111 62.0391 88.5238 62.1263 88.4447C62.155 88.4187 62.1826 88.3935 62.2089 88.371C62.7551 87.9825 63.3381 87.7274 63.965 87.4961C63.8888 87.3949 63.8105 87.2901 63.7301 87.1826L63.7269 87.1783C62.5073 85.5466 60.8165 83.2844 58.8287 82.998C58.2768 82.9186 57.7227 82.9241 57.1677 82.9543C57.17 83.3538 57.1719 83.7531 57.1736 84.1521C57.1738 84.2078 57.1741 84.2636 57.1744 84.3193Z" fill="#E8E9EC"/>
<path d="M57.1562 81.3211C57.4089 81.5991 57.6682 81.873 57.944 82.1043C58.2505 82.1557 58.5644 82.2183 58.8803 82.2813C59.4471 82.3944 60.0213 82.509 60.5709 82.5622L60.5848 82.5092L60.5938 82.4756C60.6179 82.3863 60.642 82.2967 60.6568 82.2057C60.9552 79.0317 61.9239 78.1397 63.8766 76.3413L63.8774 76.3406L63.8794 76.3388C64.0815 76.1526 64.2943 75.9567 64.5179 75.7476C64.4338 75.683 64.3487 75.6152 64.2625 75.5464L64.2607 75.545C63.9821 75.3228 63.6917 75.0912 63.3894 74.9322C62.3543 74.3879 60.6722 74.3719 59.5302 74.517C58.4257 74.6287 57.7312 74.7926 57.0645 75.2938C57.1116 77.3043 57.1394 79.3148 57.1562 81.3211Z" fill="#E8E9EC"/>
<path d="M56.9857 72.501C57.0126 72.5219 57.0398 72.5424 57.0673 72.5627C58.4547 73.5845 60.7597 73.6486 62.4321 73.6549C63.4267 73.5063 64.0433 73.0089 64.6287 72.2069C64.9702 71.7392 65.2874 71.2171 65.5367 70.6943C65.1892 69.5813 65.0456 68.6537 65.6103 67.5644C65.9509 66.9075 66.5738 66.2751 67.2936 66.0473C67.5336 65.9714 67.7967 65.9399 68.0504 65.9096L68.067 65.9076C68.1078 65.9027 68.1485 65.8978 68.1887 65.8927C67.5541 64.2828 66.5724 63.18 64.9713 62.4814C63.7578 61.9521 62.4575 61.9167 61.1565 62.0154C59.3618 62.2562 57.7312 62.8757 56.5589 64.2741C56.5604 64.2939 56.5619 64.3136 56.5633 64.3332C56.761 67.0456 56.8948 69.7715 56.9857 72.501Z" fill="#E8E9EC"/>
<path d="M56.4603 63.1905C57.2006 62.5573 57.9956 62.0773 59.0013 61.6909C60.5126 61.2652 62.3315 60.9269 63.8852 61.3091C63.9715 61.3303 64.1356 61.3803 64.3381 61.4421C64.9686 61.6343 65.9712 61.9399 66.1554 61.8435C66.1837 61.8287 66.2043 61.8036 66.2249 61.7784C66.2306 61.7714 66.2363 61.7644 66.2422 61.7577C66.2469 61.7522 66.2518 61.7469 66.2568 61.7419L66.3582 61.6402C66.6205 60.8847 66.2221 59.8627 65.8907 59.1635C65.2188 57.747 63.9954 56.7319 62.5202 56.2292C61.7537 55.9679 60.9064 55.8551 60.0996 55.9431C58.2639 56.1577 56.5763 56.9359 55.4169 58.4142C55.2961 58.5681 55.1814 58.7301 55.0745 58.8987C55.9501 60.0783 56.2921 61.694 56.4603 63.1905Z" fill="#E8E9EC"/>
<path fill-rule="evenodd" clip-rule="evenodd" d="M52.0068 55.0913C52.4567 54.9434 52.9077 54.7926 53.357 54.6425C57.1938 53.3603 60.903 52.1208 62.7305 53.0069C63.2527 53.2601 63.758 53.5276 64.2543 53.7903C66.518 54.9887 68.5968 56.0892 71.2677 55.2952C73.8042 54.5411 80.9326 54.9618 84.7095 55.1846C85.7815 55.2479 86.5837 55.2952 86.9339 55.2952C88.5181 55.2952 90.9825 52.4788 92.5667 49.2223C93.1543 48.0144 93.9842 45.874 94.8586 43.6188L95.0824 43.0416C95.0663 42.1153 95.053 41.1892 95.0428 40.2635C95.0188 37.8799 95.0197 35.4962 95.0457 33.1125C95.0525 32.6806 95.0633 32.249 95.0741 31.8176C95.1143 30.2165 95.1544 28.6183 94.9902 27.0187C94.8035 25.1977 94.3199 23.3012 93.3528 21.7296C92.6171 20.5341 91.6285 19.6629 90.441 18.9331C90.3095 18.8523 90.1732 18.7773 90.0368 18.7023C89.8188 18.5823 89.6001 18.462 89.4 18.3174C89.0773 18.0841 88.7761 17.8011 88.481 17.5239C88.4026 17.4502 88.3246 17.3769 88.2467 17.3051L88.0413 17.3076C80.3228 18.4621 72.4378 18.7219 64.6409 18.6985C64.0818 18.6968 63.5219 18.6972 62.9619 18.6975C61.0675 18.6987 59.1691 18.7 57.2796 18.6221C55.0759 18.532 52.8738 18.4116 50.6734 18.2611C50.2077 18.2256 49.742 18.1727 49.2762 18.1198C48.6506 18.0488 48.0246 17.9777 47.3988 17.9486C47.0441 18.1844 46.711 18.4025 46.3975 18.6077C43.1482 20.7345 42.0154 21.476 41.0485 26.1922C40.4095 29.3094 40.5285 32.7001 40.642 35.9349C40.6614 36.4882 40.6807 37.037 40.6959 37.5791C40.7005 37.7789 40.7049 37.9788 40.7091 38.1786L40.7084 38.1454C41.5306 39.3984 42.1435 41.3905 42.2877 44.6934C45.9169 44.8314 50.9458 45.3061 52.5037 46.9502C52.9847 47.458 53.2212 48.1063 53.194 48.805C53.1572 49.7563 52.6368 50.4015 51.9595 51.0003C51.9075 52.3582 51.8983 53.7321 52.0068 55.0913ZM91.9895 21.3282C91.1944 20.4238 89.6679 19.371 88.4435 19.2737C88.5063 19.443 88.575 19.6249 88.6963 19.7618C88.8906 19.9809 89.1655 20.1676 89.4257 20.3443C89.5135 20.4039 89.5999 20.4626 89.6806 20.5208C90.4713 21.091 91.1543 21.6468 91.7549 22.424C92.2546 23.0704 92.5606 23.8282 92.8648 24.5815C92.9186 24.7147 92.9724 24.8479 93.0272 24.9802C93.0455 25.0244 93.0626 25.069 93.0797 25.1135C93.1605 25.3242 93.2397 25.5308 93.4363 25.6627C93.5466 24.135 93.0024 22.48 91.9895 21.3282ZM46.6939 19.7021L46.5255 19.5618C44.8404 20.2043 43.6189 21.2599 42.8754 22.9254C42.4963 23.7749 42.005 25.2766 42.1613 26.2002L42.303 26.2219L42.3816 25.9933C42.9732 24.271 43.5869 22.4844 45.0298 21.2796C45.2129 21.1267 45.4219 20.9871 45.6327 20.8462C45.98 20.6141 46.3325 20.3785 46.5837 20.0742C46.6944 19.9398 46.6943 19.8861 46.694 19.7353L46.6939 19.7021Z" fill="#E8E9EC"/>
<path d="M57.0185 73.5494C57.0252 73.7776 57.0316 74.0059 57.0378 74.2341C57.2014 74.129 57.3674 74.0263 57.5363 73.9241C57.3632 73.8088 57.1908 73.6825 57.0185 73.5494Z" fill="#E8E9EC"/>
<path d="M84.9335 91.9682C84.7151 91.9045 84.5549 91.8916 84.3277 91.902C83.2441 92.3903 82.2463 93.3004 81.8028 94.423C81.6012 94.9332 81.5097 95.5121 81.732 96.031C81.754 96.0831 81.7784 96.1341 81.8054 96.1838C81.8324 96.2335 81.8619 96.2816 81.8938 96.3283C81.9257 96.3751 81.9598 96.42 81.9962 96.4633C82.0327 96.5065 82.0713 96.5478 82.1119 96.5873C82.1524 96.6266 82.1948 96.6638 82.2391 96.6991C82.2835 96.7341 82.3295 96.7669 82.3771 96.7973C82.4248 96.8278 82.4738 96.8558 82.5243 96.8812C82.5748 96.9068 82.6264 96.9298 82.6792 96.9501C83.5426 96.6998 83.9585 96.0501 84.3741 95.2956C84.7514 94.6105 85.5007 93.0993 85.2022 92.3217C85.1388 92.1567 85.0624 92.0819 84.9335 91.9682Z" fill="#E8E9EC"/>
<path d="M80.1467 80.6512C80.5561 80.6459 80.8839 80.7255 81.2671 80.86C81.744 81.0275 82.2064 81.2257 82.4208 81.7204C82.5667 82.0576 82.556 82.4266 82.4173 82.7638C82.0314 83.7022 80.6146 84.5267 79.71 84.8786L79.6453 84.8994C79.1411 85.0621 78.6677 85.2148 78.1633 84.9495C77.8311 84.7749 77.6357 84.4854 77.5366 84.1287C77.3699 83.5288 77.4697 82.84 77.7788 82.3032C78.2752 81.4407 79.2036 80.8872 80.1467 80.6512Z" fill="#E8E9EC"/>
<path d="M67.5707 66.7405L67.5943 66.7396C67.6582 66.7372 67.7222 66.7348 67.7861 66.7357C68.7053 66.7491 69.9611 67.5185 70.572 68.1971C70.7815 68.4298 70.916 68.6602 70.8917 68.9839C70.8194 69.9507 69.4865 71.085 68.7592 71.6442L68.1867 72.0255C67.4434 71.4976 66.5955 70.6968 66.1992 69.8632C65.9368 69.311 65.9153 68.712 66.1376 68.1415C66.374 67.5345 66.9824 66.9899 67.5707 66.7405Z" fill="#E8E9EC"/>
<path d="M95.1101 88.2625C95.2509 86.9009 95.8531 78.7758 95.5994 78.0601C94.5862 80.6038 93.2131 81.8773 90.8709 83.2431C92.0846 83.7944 92.8608 84.4563 93.6081 85.5538C94.1546 86.435 94.6669 87.3232 95.1101 88.2625Z" fill="#E8E9EC"/>
<path d="M90.7825 73.5513C91.2349 73.5314 91.6688 73.5263 92.1162 73.6176C92.9736 73.7924 93.7522 74.2154 94.2148 74.9795C94.7339 75.8371 94.771 76.9168 94.545 77.8718C94.1483 79.5482 93.1321 80.6766 91.6962 81.5655L91.3651 81.7079C91.2021 81.5181 91.3419 81.1385 91.4415 80.8682C91.4619 80.8127 91.4806 80.7619 91.4947 80.7183C91.8538 79.6044 91.9235 78.5454 91.5714 77.4145C91.0479 75.7322 89.7869 74.8028 88.3053 74.0186C89.1229 73.7619 89.9297 73.6229 90.7825 73.5513Z" fill="#E8E9EC"/>
<path d="M94.0174 93.357C94.0141 93.339 94.0107 93.321 94.0082 93.3029C92.2437 95.1511 90.0622 96.7083 87.4243 96.7713C86.5977 96.7912 85.729 96.7164 84.9205 96.5439L84.8848 96.5875C84.3941 97.1874 83.8698 97.8283 83.0367 97.892C82.5865 97.9265 82.1203 97.7927 81.703 97.6345C80.2228 98.9755 78.4965 99.5116 76.4972 99.4074C76.285 99.3965 76.0733 99.3783 75.8623 99.3529C75.6512 99.3275 75.4412 99.295 75.2323 99.2553C75.0236 99.2157 74.8163 99.1689 74.6106 99.115C74.405 99.0613 74.2015 99.0006 74 98.9329C73.7984 98.8653 73.5993 98.7909 73.4029 98.7097C73.2065 98.6285 73.013 98.5407 72.8225 98.4463C72.6321 98.352 72.4451 98.2512 72.2616 98.1441C72.0779 98.037 71.8981 97.9237 71.7222 97.8044C71.6027 97.7222 71.4844 97.6389 71.3666 97.5558C70.8045 97.1597 70.2498 96.7689 69.5923 96.5315C69.0868 97.722 68.2447 98.3958 67.173 99.0643C66.3869 99.4995 65.5828 99.8205 64.7242 100.082C72.6916 100.193 80.1293 99.8264 87.7621 97.299C89.56 96.7037 92.305 95.5898 93.623 94.2399C93.8191 94.0392 94.0314 93.762 94.0309 93.4655C94.0309 93.4535 94.0302 93.4415 94.0289 93.4295C94.0264 93.4053 94.0219 93.3811 94.0174 93.357Z" fill="#E8E9EC"/>
<path d="M72.5306 73.1224C71.9772 72.98 71.3597 72.8825 70.7883 72.9274C69.8454 73.0527 68.7802 73.2136 68.1664 74.0288C67.7383 74.5975 67.7086 75.3285 67.8311 76.0051C67.8457 76.0858 67.8622 76.166 67.8808 76.2458C67.8993 76.3256 67.9198 76.4049 67.9424 76.4836C67.9649 76.5623 67.9894 76.6405 68.0158 76.718C68.0422 76.7956 68.0704 76.8725 68.1006 76.9486C68.1309 77.0248 68.163 77.1001 68.1971 77.1747C68.2311 77.2492 68.2669 77.3228 68.3046 77.3956C68.3423 77.4683 68.3817 77.5401 68.4229 77.6109C68.4642 77.6816 68.5072 77.7513 68.5519 77.82C68.5966 77.8886 68.6431 77.9561 68.6912 78.0224C68.7393 78.0887 68.789 78.1538 68.8404 78.2176C68.8917 78.2814 68.9446 78.3439 68.999 78.4051C69.0536 78.4663 69.1096 78.5261 69.167 78.5844C69.2245 78.6429 69.2834 78.6999 69.3437 78.7554C69.4039 78.8108 69.4655 78.8647 69.5285 78.9171C69.5915 78.9695 69.6558 79.0202 69.7213 79.0694C69.7868 79.1186 69.8535 79.1661 69.9214 79.212C70.5539 79.63 71.2379 79.8606 71.9901 79.6923C72.062 79.6763 72.1333 79.6576 72.2047 79.6389L72.253 79.6263C73.3701 79.0448 74.6684 78.138 75.0821 76.8848C75.3152 76.1787 75.2043 75.3722 74.8462 74.7274C74.3664 73.8631 73.4625 73.3623 72.5306 73.1224Z" fill="#E8E9EC"/>
<path d="M92.7812 69.1444C91.0843 67.7478 88.4746 67.0787 86.3097 67.2903C85.3621 67.4644 84.5864 67.7406 83.7735 68.2685C84.5561 70.1007 84.996 71.4452 84.6415 73.4598L84.7405 73.4631L84.8585 73.4669L84.954 73.4698C85.5677 73.4886 86.1836 73.5074 86.7881 73.6168C88.2155 73.0259 89.8054 72.6036 91.3618 72.6258C91.7157 72.6666 92.2893 72.8414 92.7954 72.9957C93.2583 73.1368 93.6648 73.2607 93.7951 73.2491C94.1211 72.8798 94.188 72.0053 94.1519 71.52C94.0827 70.5869 93.4829 69.7217 92.7812 69.1444Z" fill="#E8E9EC"/>
<path d="M64.339 88.5821C65.4236 88.5221 66.4629 88.6962 67.3782 89.3172C68.2522 89.9103 68.741 90.8104 68.9452 91.83C69.2476 93.3399 68.9834 95.0509 68.1057 96.3318C67.0955 97.8064 65.4882 98.6252 63.7702 98.944C63.6948 98.9471 63.6189 98.9505 63.5425 98.9539C62.9687 98.9795 62.3711 99.0062 61.8107 98.91C60.6072 98.7034 59.7643 98.059 59.0799 97.0729C59.9515 96.2829 60.8023 95.4753 61.4141 94.4596C62.3483 92.9087 62.3988 91.4522 61.9711 89.7349C62.7042 89.0762 63.3907 88.7853 64.339 88.5821Z" fill="#E8E9EC"/>
<path d="M88.7783 57.842C88.4479 57.8269 88.1231 57.8494 87.7942 57.8793C86.0351 58.1305 84.8362 58.5539 83.6489 59.9564C84.4342 60.5481 85.2205 61.1661 85.3853 62.2046C85.5178 63.0399 85.1745 63.8769 84.6669 64.5267C84.2249 65.0925 83.665 65.52 83.0381 65.8645C83.1953 66.3442 83.361 66.7974 83.5787 67.2535C85.1606 66.6408 86.4474 66.2525 88.164 66.3889C89.6165 66.6709 90.9277 67.1245 92.3094 67.6288C93.3416 66.7328 93.9388 65.6376 94.0286 64.2555C94.1365 62.5956 93.4526 60.832 92.3578 59.5938C91.4403 58.5563 90.1668 57.9052 88.7783 57.842Z" fill="#E8E9EC"/>
<path d="M84.5246 74.4991L84.5489 74.4967L84.5593 74.496C86.1705 74.3808 88.042 74.5871 89.3108 75.6896C90.2035 76.4653 90.7422 77.6429 90.7938 78.8195C90.8636 80.4169 90.2527 82.3289 89.1513 83.5024C87.6598 83.9606 86.3381 84.4667 85.0226 85.3269L84.8876 85.3554C84.6694 85.1344 84.5257 84.5423 84.4076 84.0557C84.3597 83.858 84.3159 83.6778 84.2731 83.5468C83.6442 81.6223 82.6377 79.807 80.3008 79.9937C80.2126 80.0008 80.1189 80.0125 80.0224 80.0246C79.6765 80.0679 79.2949 80.1156 79.0068 79.9689C78.9318 79.867 78.8677 79.7753 78.8477 79.6466C78.7197 78.8281 79.2242 77.6799 79.6658 77.0281C80.6438 75.5845 82.9075 74.8422 84.5246 74.4991Z" fill="#E8E9EC"/>
<path d="M91.5249 84.9785C90.7275 84.4555 89.978 84.4668 89.0694 84.5303C86.6793 85.0661 84.7784 86.5519 83.4509 88.5831C83.4593 88.7037 83.4649 88.8452 83.4711 88.9995C83.5002 89.7303 83.5409 90.7478 83.9404 91.1851C84.2902 91.3293 84.5286 91.3103 84.7354 91.2937C85.0922 91.2652 85.3551 91.2441 85.9342 92.0821C86.0768 93.19 85.9358 94.0062 85.5577 95.0464C86.3373 95.6713 87.0205 95.8469 88.003 95.7501L88.0394 95.7463L88.0784 95.7419L88.0816 95.7415L88.1 95.7394L88.1169 95.7374C90.0525 95.3919 92.2091 94.2082 93.3653 92.5855C94.0796 91.5831 94.2665 90.4083 94.0359 89.2129C93.7573 87.7688 92.7784 85.8007 91.5249 84.9785Z" fill="#E8E9EC"/>
<path d="M74.0655 56.1159C75.0084 56.0002 76.0276 56.1081 76.9503 56.319C78.9507 56.776 80.4319 57.8647 81.5122 59.5964L81.4043 59.5989L81.2876 59.6014C80.4171 59.62 79.5136 59.6392 78.7074 59.9905C77.9929 60.3019 77.4272 60.8714 77.157 61.6063C76.7181 62.7992 77.0903 63.9296 77.6014 65.0171C76.4879 65.276 75.4627 65.6057 74.4129 66.0592C73.3599 66.53 72.4638 67.1005 71.5302 67.7717C69.8532 66.6237 68.3693 65.066 67.8083 63.0541C68.1121 61.5489 68.6156 60.0175 69.5216 58.761C70.6319 57.2215 72.2198 56.4176 74.0655 56.1159Z" fill="#E8E9EC"/>
<path d="M79.3516 66.3396C78.5614 66.156 77.6885 66.1281 76.8855 66.2324C75.1177 66.5976 72.9992 67.3351 71.9371 68.8967C71.3255 69.7958 70.9819 70.9019 70.658 71.9445C70.6313 72.0305 70.6048 72.1161 70.5782 72.201C72.0556 72.2168 73.7373 72.4138 74.8125 73.5562C75.5959 74.3885 75.6616 75.102 75.7194 75.7298C75.802 76.6267 75.8684 77.3485 77.9887 77.9911C78.0756 77.9448 78.2821 77.6609 78.5492 77.2934C79.0064 76.6645 79.6414 75.7909 80.1599 75.4451C80.4271 75.2669 80.8709 75.0547 81.3604 74.8206L81.3615 74.8201C82.4203 74.3138 83.6926 73.7053 83.8538 73.1186C84.2015 71.8535 83.7369 70.0508 83.0693 68.9509C82.2632 67.6229 80.855 66.6888 79.3516 66.3396Z" fill="#E8E9EC"/>
<path d="M67.0534 75.8033C67.0657 75.8214 67.0727 75.8317 67.0776 75.843C67.0842 75.8579 67.0871 75.8745 67.094 75.9131L67.0976 75.9336L67.1 75.9469L67.1076 75.9888C67.2271 76.647 67.3536 77.3438 67.6814 77.9323C68.3163 79.072 69.4476 80.018 70.7159 80.3554C72.1031 80.7246 72.6802 80.295 73.4563 79.7173C73.7297 79.5139 74.0277 79.2921 74.3944 79.0803C74.5587 79.2493 74.6249 79.3873 74.6879 79.6156C75.1989 81.4631 75.3603 83.8305 74.423 85.5717C73.6534 87.0018 72.3399 87.6729 70.8498 88.1037C68.7815 88.4376 66.9887 88.1989 65.2091 87.0377C63.6427 86.0155 62.0497 84.4197 61.6691 82.5244C61.4 81.1831 61.9034 79.8819 62.6508 78.7844C63.6745 77.2813 65.2044 76.0831 67.0139 75.743C67.0313 75.7705 67.0439 75.7892 67.0534 75.8033Z" fill="#E8E9EC"/>
<path d="M80.8017 87.3498C79.7685 86.5439 78.2691 85.9983 76.9494 86.1301C74.948 86.3932 73.0686 87.5432 71.8373 89.1461C70.8215 90.4686 70.3173 92.1054 70.5506 93.768C70.7375 95.1005 71.3641 96.2436 72.4518 97.054C73.7377 98.0123 75.0855 98.2249 76.6474 98.3233L76.6793 98.3221C77.7221 98.2809 79.7159 98.2023 80.4755 97.4222C80.7869 97.1026 80.8031 96.7347 80.773 96.3135C80.7645 96.1941 80.7553 96.0799 80.7464 95.9701C80.6646 94.9549 80.6128 94.312 81.3902 93.3922C81.5039 93.2576 81.6171 93.1302 81.7269 93.0066C82.361 92.2928 82.8846 91.7034 82.7749 90.5775C82.6507 89.2989 81.7941 88.1238 80.8017 87.3498Z" fill="#E8E9EC"/>
<path d="M35.4956 45.9995C39.2898 45.7752 48.8509 45.7943 51.868 47.9349C47.8535 49.0002 42.6284 49.0414 38.3189 49.0753C38.0851 49.0772 37.8541 49.079 37.6261 49.081C34.8269 49.1569 32.0132 49.0314 29.211 48.9064C28.6732 48.8824 28.1358 48.8584 27.599 48.8359C27.127 48.8161 26.6419 48.805 26.1511 48.7938C24.7902 48.7628 23.3863 48.7307 22.103 48.5082C21.8306 48.461 21.6127 48.4066 21.4012 48.2199C21.3995 48.1861 21.3966 48.1597 21.3942 48.1379C21.3851 48.0554 21.3831 48.0377 21.4799 47.9369C22.904 46.452 31.7329 46.135 34.9266 46.0203C35.1437 46.0125 35.3347 46.0057 35.4956 45.9995Z" fill="#E8E9EC"/>
<path d="M50.7027 54.6031L50.6063 54.5586C43.0071 55.6535 35.3457 55.7254 27.6915 55.1666C26.6458 55.0903 25.6059 54.9659 24.5666 54.8416C23.6097 54.7271 22.6534 54.6127 21.6937 54.536C21.6899 54.6194 21.6844 54.7042 21.6787 54.7899C21.6564 55.1295 21.6332 55.4822 21.7191 55.8038C21.7332 55.8127 21.7501 55.8243 21.7683 55.8369C21.8193 55.8719 21.8814 55.9145 21.9243 55.9285C28.2682 57.2297 44.83 57.5872 50.7854 55.6293C50.7861 55.5644 50.7887 55.4961 50.7915 55.4259C50.8025 55.1471 50.8146 54.8392 50.7027 54.6031Z" fill="#E8E9EC"/>
<path d="M45.2939 80.3595C45.258 80.363 45.222 80.3666 45.1867 80.3699C44.0627 80.7818 43.351 81.2242 42.83 82.3414L42.7794 82.4524L42.8007 82.4521C43.9596 82.4347 44.9195 82.4204 46.0106 82.9095C46.4323 83.1852 46.7798 83.4751 47.1411 83.8247C47.3813 82.9422 47.5324 82.0413 47.0766 81.1878C46.8673 80.7957 46.4848 80.4786 46.0508 80.3695C45.8081 80.3083 45.5442 80.3346 45.2939 80.3595Z" fill="#E8E9EC"/>
<path d="M53.5713 87.2714C54.0189 87.4921 54.4677 87.7142 54.7597 88.1358C54.8015 88.195 54.8401 88.2563 54.8756 88.3195C54.911 88.3828 54.9431 88.4477 54.9718 88.5142C55.0006 88.5809 55.0258 88.6488 55.0474 88.7179C55.0691 88.7871 55.0871 88.8572 55.1015 88.9281C55.1159 88.9992 55.1267 89.0708 55.1338 89.143C55.1407 89.2152 55.144 89.2876 55.1434 89.3601C55.143 89.4325 55.1388 89.5047 55.1308 89.5768C55.1228 89.6488 55.1112 89.7203 55.0957 89.7912C54.9351 90.5304 54.5069 90.9499 53.8866 91.3351C53.767 91.3578 53.647 91.3803 53.5261 91.3942C53.2381 91.4275 52.8418 91.4383 52.6059 91.2502C52.6729 91.0544 52.7794 90.8692 52.8856 90.6843C52.9568 90.5606 53.0279 90.4369 53.087 90.3104C53.5519 89.3152 53.6308 88.3541 53.5713 87.2714Z" fill="#E8E9EC"/>
<path d="M32.2889 90.5653C32.3725 90.7883 32.3076 91.1579 32.2489 91.492C32.2199 91.6571 32.1924 91.8135 32.1852 91.9393C32.1422 92.6876 32.205 93.3262 32.346 94.06C31.8214 94.1395 31.31 94.1641 30.7808 94.1806C30.7741 94.1754 30.7673 94.1704 30.7604 94.1655L30.7529 94.1601C30.734 94.1468 30.7151 94.1334 30.6994 94.1166C30.4503 93.8528 30.4274 92.925 30.4131 92.3424C30.4098 92.2097 30.407 92.0948 30.402 92.0099C30.9672 91.4665 31.6414 91.0048 32.2889 90.5653Z" fill="#E8E9EC"/>
<path d="M17.8125 97.2596C17.4835 97.0442 17.2105 96.8931 16.8272 96.7981C16.6485 97.6943 16.9474 98.5367 17.4616 99.274C17.6601 99.5585 17.9163 99.804 18.1675 100.045L18.1683 100.046C18.2008 100.077 18.2333 100.108 18.2655 100.139C18.245 100.053 18.2244 99.967 18.2038 99.8815L18.2021 99.8745C17.9926 99.0048 17.7915 98.1698 17.8125 97.2596Z" fill="#E8E9EC"/>
<path d="M38.161 100.9C37.8757 100.574 37.5926 100.25 37.275 99.9746C37.242 100.068 37.2095 100.161 37.177 100.254C37.0379 100.654 36.8983 101.055 36.7133 101.435C37.3874 101.661 38.035 101.787 38.735 101.899L39.0523 101.834C38.7293 101.551 38.4441 101.224 38.161 100.9Z" fill="#E8E9EC"/>
<path d="M54.8354 98.9413C55.5337 97.2602 56.2283 92.4562 55.8306 90.7055C55.5817 91.3786 55.327 91.959 54.6272 92.2727C54.3801 92.3834 54.1066 92.4556 53.8406 92.5259L53.7427 92.5518L53.6666 92.5723C54.7907 94.1053 55.4551 95.2799 55.1595 97.2571C55.0559 97.9496 54.8241 98.6555 54.4759 99.2635C54.4435 99.3094 54.41 99.3552 54.3764 99.401C54.2068 99.6329 54.0349 99.8678 53.9828 100.154L53.9939 100.18C54.3497 100.034 54.693 99.2839 54.8354 98.9413Z" fill="#E8E9EC"/>
<path d="M43.556 83.5445C44.0722 83.4593 44.7513 83.557 45.255 83.7128C45.3236 83.7338 45.391 83.7584 45.4571 83.7864C45.5232 83.8145 45.5876 83.8459 45.6504 83.8806C45.7133 83.9153 45.7742 83.9532 45.8331 83.9942C45.892 84.0353 45.9486 84.0792 46.0029 84.1261C46.0574 84.173 46.1092 84.2225 46.1583 84.2748C46.2076 84.3271 46.254 84.3818 46.2976 84.4388C46.3412 84.4959 46.3817 84.5551 46.4192 84.6162C46.4565 84.6775 46.4907 84.7406 46.5216 84.8053C46.8627 85.5373 46.7444 86.4314 46.4813 87.1691L46.4789 87.1757C46.3915 87.4209 46.2973 87.6853 46.048 87.8033L45.7972 87.6746C45.7313 87.6341 45.6649 87.5948 45.5976 87.5568C44.5114 86.9408 43.7035 86.8884 42.5037 87.2148C42.7741 86.1441 42.6762 85.2093 42.5672 84.169C42.5521 84.0247 42.5368 83.8784 42.5222 83.7294C42.8095 83.6484 43.1038 83.6075 43.3987 83.5666L43.4004 83.5664C43.4523 83.5592 43.5041 83.552 43.556 83.5445Z" fill="#E8E9EC"/>
<path d="M26.4983 89.8054C26.3063 89.8075 26.1145 89.8149 25.923 89.8274L25.8169 89.9865C26.3159 91.6103 26.462 92.625 25.7069 94.2269L25.8596 94.3275C26.2595 94.5914 26.6578 94.8542 27.0905 95.0635C27.5216 95.0462 27.8799 95.0123 28.2957 94.8829C28.8674 94.3469 29.2668 93.7159 29.3038 92.9133C29.3423 92.0838 29.0023 91.2348 28.4255 90.6409C27.9227 90.1235 27.2227 89.8023 26.4983 89.8054Z" fill="#E8E9EC"/>
<path d="M43.4034 88.0958C43.8251 88.0709 44.2077 88.1156 44.6123 88.2441C45.8982 88.6531 46.9125 89.5348 47.5424 90.7155C47.4727 90.7762 47.3967 90.8431 47.3156 90.9143C46.6983 91.4568 45.7911 92.2541 45.2141 92.5585C45.0486 92.6459 44.9793 92.6178 44.848 92.5646C44.8184 92.5526 44.7854 92.5393 44.7477 92.5257C44.5673 92.6114 44.4407 92.671 44.2394 92.6782L44.1747 92.5941L44.1549 92.5688L44.1168 92.5206L44.0985 92.4974L44.0825 92.4765C43.8956 92.2299 43.8098 92.1659 43.5329 92.0502C43.2004 92.0456 42.9046 92.1883 42.6097 92.3307C42.5507 92.3591 42.4915 92.3877 42.4323 92.415C42.1683 91.3514 41.6709 90.7107 40.9733 89.8946C41.035 89.8276 41.0952 89.7617 41.1542 89.697C41.8297 88.9568 42.3632 88.3723 43.4034 88.0958Z" fill="#E8E9EC"/>
<path d="M50.0439 85.6167C49.9001 85.6031 49.756 85.5969 49.6115 85.5979C48.7206 85.8975 48.0563 86.3426 47.6433 87.2132C47.4891 87.5383 47.4128 87.9007 47.3385 88.2536L47.3323 88.2834L47.3105 88.3861C47.5495 88.8079 47.8319 89.1998 48.1142 89.5918C48.3332 89.8957 48.5522 90.1997 48.751 90.5176L50.5209 90.7225C50.6323 90.7504 50.744 90.7776 50.8558 90.8049C51.0988 90.8641 51.3426 90.9236 51.5832 90.99C51.623 90.9053 51.6642 90.819 51.7061 90.7311L51.7083 90.7264C52.2418 89.6068 52.8902 88.2459 52.4143 87.0416C52.2145 86.536 51.7949 86.1451 51.2983 85.9336C51.1652 85.8773 51.0297 85.8279 50.8917 85.7854C50.7536 85.743 50.6137 85.7077 50.4721 85.6796C50.3304 85.6513 50.1877 85.6304 50.0439 85.6167Z" fill="#E8E9EC"/>
<path d="M50.8086 102.028L50.9436 102.024C48.36 103.091 45.7539 103.565 43.0054 103.951C36.9854 104.795 31.322 104.745 25.3622 103.503C24.8366 103.384 24.3178 103.228 23.8007 103.071L23.7991 103.071C23.6571 103.028 23.5151 102.985 23.3732 102.943C24.466 102.775 25.2863 102.323 26.2394 101.799L26.242 101.798C27.3701 102.75 28.4783 103.579 29.952 103.892C32.0715 104.343 33.979 103.568 35.7248 102.421C35.8035 102.446 35.8824 102.47 35.9617 102.495C36.6708 102.716 37.402 102.944 38.1471 102.944C38.4462 102.944 38.7469 102.921 39.0478 102.898C39.4891 102.864 39.9308 102.83 40.3685 102.869C40.7354 102.901 41.0957 102.965 41.4558 103.028C41.9738 103.119 42.4911 103.21 43.0263 103.209C44.5537 103.207 45.6 102.613 46.6542 101.557C48.0562 102.124 49.3396 102.079 50.8086 102.028Z" fill="#E8E9EC"/>
<path d="M23.6968 89.0791C22.9621 88.6363 22.2115 88.5956 21.3773 88.6451C20.2141 88.9406 19.2247 89.5745 18.6075 90.6319C18.1729 91.3765 18.0754 92.2188 18.3161 93.0458C18.3439 93.1408 18.3756 93.2345 18.4112 93.3269C18.4468 93.4192 18.4862 93.5098 18.5294 93.5989C18.5727 93.688 18.6196 93.7751 18.6701 93.8601C18.7207 93.9452 18.7747 94.028 18.8322 94.1086C18.8897 94.1892 18.9505 94.2672 19.0146 94.3426C19.0787 94.4181 19.1458 94.4907 19.216 94.5604C19.2861 94.6303 19.3591 94.6971 19.4349 94.7608C19.5107 94.8245 19.589 94.8848 19.6699 94.9419C20.2166 94.5752 20.7248 94.2641 21.3583 94.0625C22.1109 93.9453 22.8408 93.949 23.5808 93.9528C23.9068 93.9544 24.2348 93.9561 24.5675 93.9474C25.1183 93.0799 25.3749 92.151 25.1426 91.129C24.9514 90.2881 24.44 89.5271 23.6968 89.0791Z" fill="#E8E9EC"/>
<path d="M34.9787 89.2719C35.2611 89.2401 35.5437 89.2373 35.8267 89.2633C37.1503 89.3874 39.8445 89.9303 40.7083 91.0035C41.0439 91.4205 41.2542 92.0401 41.1835 92.5772C41.1275 93.0034 40.0361 93.6136 39.1102 94.1313C38.6342 94.3975 38.2019 94.6392 37.9766 94.8188C37.5395 95.2242 37.1585 95.6671 36.7718 96.1199C36.5966 96.0084 36.4104 95.8947 36.2184 95.7776L36.2173 95.7769C35.166 95.1353 33.9428 94.3888 33.4244 93.3377C33.0397 92.5572 33.1058 91.691 33.3953 90.8908C33.6995 90.0492 34.2051 89.6487 34.9787 89.2719Z" fill="#E8E9EC"/>
<path d="M22.4133 95.0041C23.3635 95.0027 24.4628 95.1215 25.3261 95.5376C26.0298 95.8767 26.6027 96.4336 26.8341 97.1935C27.0998 98.0659 26.9142 99.1084 26.4663 99.8895C25.8483 100.967 24.7561 101.486 23.6066 101.788C22.4627 101.925 21.2983 101.687 20.3582 101.001C19.6835 100.509 19.1263 99.7546 19.0192 98.9098C18.9099 98.0475 19.2613 97.1527 19.7799 96.4764C20.4639 95.5844 21.3216 95.1453 22.4133 95.0041Z" fill="#E8E9EC"/>
<path d="M38.6397 81.6446C38.3345 81.5926 38.0301 81.5754 37.7211 81.5668C36.4395 81.691 35.0992 81.9595 34.2508 83.0308C33.9241 83.4433 33.818 83.8437 33.711 84.3481C34.2658 86.0377 34.1896 87.2575 33.5569 88.885C34.9544 88.1989 35.8065 88.1372 37.322 88.4188C37.5483 88.4701 37.7751 88.5239 38.0023 88.5778C38.5941 88.7183 39.189 88.8594 39.7853 88.9575C40.673 88.4085 41.2892 87.5978 41.5133 86.5653C41.7612 85.4227 41.5781 84.0413 40.9233 83.0648C40.3947 82.2762 39.565 81.8026 38.6397 81.6446Z" fill="#E8E9EC"/>
<path d="M48.5621 91.752C49.3748 91.6975 50.2456 91.8713 51.0032 92.1634C52.252 92.645 53.2171 93.5379 53.732 94.7869C54.1864 95.8895 54.1432 97.12 53.6644 98.207C53.1016 99.4847 52.1205 100.197 50.8503 100.669C50.519 100.748 50.1869 100.802 49.8465 100.821C49.2846 100.854 48.0171 100.865 47.6146 100.449C47.5255 100.357 47.6505 99.8587 47.77 99.3823C47.852 99.0556 47.9314 98.7391 47.9374 98.5708C48.0059 96.6644 46.9567 95.1915 45.73 93.852L45.7383 93.8382C45.7735 93.7793 45.8088 93.7203 45.8471 93.6633C46.5241 92.6559 47.3591 91.9937 48.5621 91.752Z" fill="#E8E9EC"/>
<path d="M32.3517 95.0188C32.1559 95.0202 31.9607 95.0379 31.7664 95.0589C30.481 95.3804 29.0706 95.8497 28.338 97.0454C28.0798 97.4665 27.2156 100.599 27.3125 100.982C27.4519 101.535 28.0143 101.899 28.4844 102.148C29.6257 102.752 30.6888 102.89 31.9652 102.779C33.5497 102.504 34.9722 101.891 35.9095 100.507C36.6263 99.4491 36.5501 98.5631 36.3428 97.3753C35.4334 96.4672 33.7015 95.0097 32.3517 95.0188Z" fill="#E8E9EC"/>
<path d="M42.6843 93.8343L42.7164 93.8315C42.844 93.8203 42.9704 93.8092 43.0991 93.8176C44.0563 93.88 44.9317 94.4779 45.5355 95.1894C46.3202 96.1137 46.8625 97.317 46.7291 98.5489C46.6132 99.6183 46.0486 100.709 45.1877 101.365C44.1954 102.122 43.0324 102.156 41.8485 102.011C41.2007 101.861 40.6119 101.602 40.0558 101.241C38.9724 100.537 37.9364 99.3427 37.7007 98.045C37.5718 97.335 37.7576 96.6948 38.19 96.1239C39.2103 94.7765 41.0588 94.0484 42.6843 93.8343Z" fill="#E8E9EC"/>
<path d="M30.4613 82.6185C29.8275 82.41 29.1077 82.3685 28.4481 82.4633C26.7616 82.7046 24.5275 83.3012 23.4619 84.7453C22.8505 85.5739 22.7498 86.5345 22.921 87.5257L22.9347 87.6012C23.8206 87.9266 24.5274 88.2761 25.25 88.8899C26.4643 88.5433 27.3244 88.6076 28.4358 89.2247C28.5206 89.2719 28.6019 89.3213 28.6839 89.3731C29.1794 89.7846 29.57 90.2163 29.9486 90.738C31.1746 90.1608 32.2345 89.15 32.7009 87.8579C32.7259 87.7893 32.7493 87.7201 32.7709 87.6503C32.7924 87.5805 32.8123 87.5103 32.8304 87.4397C32.8484 87.3689 32.8647 87.2978 32.8793 87.2262C32.8938 87.1546 32.9065 87.0827 32.9175 87.0105C32.9285 86.9384 32.9376 86.866 32.9449 86.7933C32.9523 86.7207 32.9578 86.6479 32.9615 86.5749C32.9652 86.502 32.9671 86.429 32.9672 86.356C32.9673 86.283 32.9656 86.21 32.9621 86.1371C32.9585 86.0642 32.9531 85.9914 32.9459 85.9188C32.9387 85.8461 32.9297 85.7736 32.919 85.7013C32.9081 85.6292 32.8955 85.5573 32.8811 85.4858C32.8667 85.4141 32.8506 85.3428 32.8327 85.2721C32.8148 85.2013 32.7951 85.131 32.7737 85.0613C32.7522 84.9915 32.7291 84.9223 32.7043 84.8536C32.6793 84.785 32.6527 84.717 32.6244 84.6497C32.5962 84.5824 32.5663 84.5158 32.5347 84.4499C32.5093 84.3965 32.4825 84.3437 32.4544 84.2915C32.4263 84.2393 32.397 84.1878 32.3662 84.1371C32.3355 84.0865 32.3035 84.0366 32.2703 83.9875C32.2371 83.9385 32.2028 83.8903 32.1672 83.8429C32.1315 83.7956 32.0947 83.7492 32.0568 83.7038C32.0187 83.6583 31.9796 83.6138 31.9395 83.5704C31.8992 83.5269 31.8579 83.4845 31.8156 83.4431C31.7732 83.4016 31.7298 83.3612 31.6853 83.3221C31.641 83.2828 31.5957 83.2447 31.5492 83.2079C31.5029 83.1709 31.4557 83.1352 31.4076 83.1005C31.3595 83.066 31.3105 83.0327 31.2606 83.0007C31.2109 82.9686 31.1603 82.9378 31.1089 82.9082C31.0576 82.8787 31.0055 82.8506 30.9527 82.8236C30.8999 82.7967 30.8465 82.7712 30.7925 82.747C30.7383 82.7229 30.6836 82.7001 30.6284 82.6785C30.5732 82.6571 30.5175 82.6371 30.4613 82.6185Z" fill="#E8E9EC"/>
<path d="M50.6446 51.0415L50.5697 51.0305C43.4524 52.2237 35.5387 52.1902 28.3302 51.7694L28.0029 51.7503C25.8918 51.6276 23.7643 51.504 21.6788 51.1451C21.6793 51.2666 21.674 51.424 21.668 51.6014C21.645 52.2863 21.6119 53.268 21.8628 53.6217L21.938 53.6545C31.247 54.8654 41.4211 55.1136 50.7102 53.691C50.7113 53.5634 50.72 53.3778 50.73 53.1622L50.7301 53.1608C50.7641 52.4328 50.8139 51.3651 50.6446 51.0415Z" fill="#E8E9EC"/>
<path fill-rule="evenodd" clip-rule="evenodd" d="M50.638 56.6481C50.6441 56.6473 50.6501 56.6461 50.6561 56.6449C50.6683 56.6426 50.6805 56.6402 50.6928 56.6407C50.6928 56.6407 50.9105 56.67 50.916 56.673C51.1228 56.7921 51.3273 57.052 51.5225 57.3002C51.6459 57.457 51.7656 57.6092 51.8798 57.7181C52.1396 57.9658 52.4301 58.1795 52.7212 58.3937C53.0345 58.6242 53.3485 58.8553 53.6256 59.1296C54.5983 60.0931 54.9137 61.3553 55.1506 62.6587C55.4732 64.4338 55.5057 66.3246 55.5375 68.1753C55.5487 68.8234 55.5598 69.4665 55.5832 70.0981C55.6122 70.8281 55.6393 71.5581 55.6644 72.2881C55.6596 72.1503 55.6548 72.0125 55.6499 71.8748C54.9841 73.5071 53.6551 76.0205 51.5068 78.3837C49.477 80.6165 49.4075 80.4501 49.139 79.8077C48.9418 79.3359 48.6373 78.6073 47.3702 78.3837C45.5244 78.058 43.1763 77.9331 41.1108 77.8234C39.8278 77.7552 38.6536 77.6927 37.7768 77.5916C36.3524 77.4272 34.7916 78.4223 33.4765 79.2608C32.6788 79.7694 31.9716 80.2203 31.44 80.32C30.6919 80.4602 29.8444 80.3024 28.8845 80.1237C28.0374 79.9659 27.1026 79.7919 26.0712 79.7919C24.7802 79.7919 23.4892 81.216 22.1804 82.6597C21.2586 83.6765 20.3279 84.7031 19.3823 85.2486C17.7269 86.2037 17.5914 84.8098 17.3766 82.5996C17.2944 81.7545 17.2007 80.79 17.0059 79.7919C16.8401 78.9422 16.7134 78.0291 16.613 77.1295V77.1295L16.5953 72.4024C16.5962 72.0212 16.5956 71.6398 16.595 71.2584C16.5919 69.1604 16.5887 67.0599 16.8278 64.9738C17.2599 61.203 18.3781 59.0888 21.3458 56.7322C28.2104 58.2748 43.7148 58.2174 50.638 56.6481ZM20.778 58.9642C20.7057 58.897 20.6892 58.8816 20.5468 58.8591C19.5472 59.4087 18.6792 60.204 18.3468 61.34L18.3363 61.3757C18.2347 61.7218 18.1015 62.1753 18.3042 62.493C18.3218 62.5206 18.3346 62.5421 18.3447 62.559C18.3642 62.5917 18.3734 62.6071 18.3869 62.6161C18.399 62.6241 18.4144 62.6271 18.4437 62.6326C18.4636 62.6363 18.4898 62.6413 18.5256 62.6499C18.5591 62.549 18.592 62.4474 18.625 62.3454C18.8263 61.723 19.0317 61.0879 19.3967 60.5455C19.536 60.3383 19.7909 60.1293 20.0477 59.9186C20.4134 59.6188 20.7829 59.3157 20.8284 59.0103C20.8085 58.9926 20.7922 58.9774 20.778 58.9642ZM51.5078 59.0997C52.025 59.2165 52.4065 59.3768 52.8015 59.7404C53.6976 60.5657 54.0762 61.8249 54.1356 63.0104C54.1272 63.0049 54.1188 62.9994 54.1103 62.994C54.1048 62.9904 54.0993 62.9869 54.0938 62.9834C54.0653 62.9652 54.0366 62.9469 54.0091 62.9271C53.78 62.7623 53.4019 62.1019 53.0574 61.5003C52.8407 61.1217 52.6372 60.7664 52.4926 60.5725C52.4119 60.4643 52.2913 60.33 52.1622 60.1863C51.911 59.9066 51.6277 59.591 51.5428 59.362C51.5224 59.3068 51.5188 59.2475 51.5152 59.1882C51.5135 59.1585 51.5117 59.1288 51.5078 59.0997Z" fill="#E8E9EC"/>
<path d="M47.7898 85.4269V85.4269Z" fill="#E8E9EC"/>
<path d="M17.6059 94.2882V94.2882Z" fill="#E8E9EC"/>
</svg>
