<svg width="163" height="33" viewBox="0 0 163 33" fill="none" xmlns="http://www.w3.org/2000/svg">
<path d="M24.1404 18.8476V8.31131C24.1404 7.20674 23.245 6.31131 22.1404 6.31131H2C0.895431 6.31131 0 7.20674 0 8.31131V18.8476C0 25.5138 5.40402 30.9178 12.0702 30.9178C18.7364 30.9178 24.1404 25.5138 24.1404 18.8476Z" fill="#0F121A"/>
<path d="M11.1459 6.72126C11.0784 5.78006 11.4574 4.78873 12.1378 4.13674C12.6643 3.63217 13.6041 3.03719 14.3767 3.05957C15.3062 3.08651 15.6143 4.2658 14.9714 4.85301C14.6699 5.09142 14.4824 5.04949 14.1503 5.1655C13.4351 5.41531 13.1527 6.07766 13.1697 6.77921C13.0161 6.76462 12.8676 6.75117 12.7159 6.72126C12.1936 6.73897 11.6686 6.70859 11.1459 6.72126Z" fill="#0F121A"/>
<path d="M147.804 16.4234V14.5034H151.86V16.0634C152.276 15.4714 152.828 15.0074 153.516 14.6714C154.204 14.3194 154.948 14.1434 155.748 14.1434C156.964 14.1434 157.9 14.4954 158.556 15.1994C159.228 15.8874 159.564 16.9274 159.564 18.3194V24.5834L160.932 24.6554V26.5754H155.22V24.7514L156.012 24.6794C156.252 24.6474 156.428 24.5834 156.54 24.4874C156.652 24.3754 156.708 24.1754 156.708 23.8874V18.9434C156.708 18.0634 156.572 17.4154 156.3 16.9994C156.028 16.5674 155.508 16.3514 154.74 16.3514C153.988 16.3514 153.388 16.5914 152.94 17.0714C152.492 17.5514 152.268 18.1194 152.268 18.7754V24.5834L153.636 24.6554V26.5754H147.924V24.7514L148.716 24.6794C148.956 24.6474 149.132 24.5834 149.244 24.4874C149.356 24.3754 149.412 24.1754 149.412 23.8874V17.2394C149.412 16.7594 149.212 16.5114 148.812 16.4954L147.804 16.4234Z" fill="#0F121A"/>
<path d="M144.626 14.9834V23.9114C144.626 24.1674 144.666 24.3434 144.746 24.4394C144.842 24.5354 145.002 24.5914 145.226 24.6074L145.994 24.6554V26.5754H142.178V25.1834L142.106 25.1594C141.306 26.3114 140.21 26.8874 138.818 26.8874C137.186 26.8874 135.978 26.3674 135.194 25.3274C134.41 24.2874 134.018 22.8634 134.018 21.0554C134.018 18.8794 134.546 17.1834 135.602 15.9674C136.658 14.7514 138.242 14.1434 140.354 14.1434C141.714 14.1434 143.138 14.4234 144.626 14.9834ZM141.842 22.7594V16.5434C141.394 16.3354 140.778 16.2314 139.994 16.2314C138.922 16.2314 138.146 16.6634 137.666 17.5274C137.186 18.3914 136.946 19.5354 136.946 20.9594C136.946 23.5514 137.778 24.8474 139.442 24.8474C140.146 24.8474 140.722 24.6394 141.17 24.2234C141.618 23.7914 141.842 23.3034 141.842 22.7594Z" fill="#0F121A"/>
<path d="M130.518 9.46338V24.5834L131.886 24.6554V26.5754H126.174V24.7514L126.966 24.6794C127.43 24.6314 127.662 24.3754 127.662 23.9114V12.0794C127.662 11.7274 127.462 11.5354 127.062 11.5034L126.222 11.4554V9.46338H130.518Z" fill="#0F121A"/>
<path d="M111.562 26.5754V24.6314L112.354 24.5594C112.818 24.5114 113.05 24.2874 113.05 23.8874V12.7274L111.682 12.6554V10.6154H118.546C120.338 10.6154 121.73 11.0394 122.722 11.8874C123.73 12.7194 124.234 13.9754 124.234 15.6554C124.234 17.3354 123.666 18.6474 122.53 19.5914C121.394 20.5194 119.89 20.9834 118.018 20.9834H115.978V24.4634L118.282 24.5354V26.5754H111.562ZM115.978 18.6554H117.706C120.042 18.6554 121.21 17.7034 121.21 15.7994C121.21 14.6474 120.906 13.8874 120.298 13.5194C119.706 13.1354 118.754 12.9434 117.442 12.9434H115.978V18.6554Z" fill="#0F121A"/>
<path d="M99.4382 11.9594H100.998V14.5034H104.19L103.95 16.5194H100.998V22.8314C100.998 23.5354 101.126 24.0314 101.382 24.3194C101.638 24.5914 102.03 24.7274 102.558 24.7274C103.102 24.7274 103.646 24.5594 104.19 24.2234L104.91 26.0714C104.11 26.6314 103.094 26.9114 101.862 26.9114C101.142 26.9114 100.534 26.8154 100.038 26.6234C99.5422 26.4474 99.1742 26.2474 98.9342 26.0234C98.6942 25.7994 98.5102 25.4714 98.3822 25.0394C98.2542 24.6074 98.1822 24.2714 98.1662 24.0314C98.1502 23.7754 98.1422 23.4074 98.1422 22.9274V16.5194H96.4382L96.6782 14.7674C97.4302 14.7034 97.9982 14.4394 98.3822 13.9754C98.7662 13.4954 99.1182 12.8234 99.4382 11.9594Z" fill="#0F121A"/>
<path d="M90.6932 14.1434C91.8932 14.1434 92.8452 14.4394 93.5492 15.0314C94.2532 15.6074 94.6052 16.4234 94.6052 17.4794C94.6052 18.1834 94.4532 18.8074 94.1492 19.3514C93.8452 19.8794 93.4692 20.2954 93.0212 20.5994C92.5732 20.9034 92.0292 21.1514 91.3892 21.3434C90.3172 21.6634 89.1092 21.8234 87.7652 21.8234C87.8132 22.6714 88.0772 23.3594 88.5572 23.8874C89.0372 24.3994 89.7732 24.6554 90.7652 24.6554C91.7572 24.6554 92.7492 24.3034 93.7412 23.5994L94.6532 25.5434C94.3332 25.8314 93.7892 26.1274 93.0212 26.4314C92.2692 26.7354 91.4052 26.8874 90.4292 26.8874C88.4772 26.8874 87.0452 26.3514 86.1332 25.2794C85.2212 24.1914 84.7652 22.7034 84.7652 20.8154C84.7652 18.9274 85.2852 17.3434 86.3252 16.0634C87.3652 14.7834 88.8212 14.1434 90.6932 14.1434ZM89.5892 19.6394C90.1812 19.5274 90.7252 19.2954 91.2212 18.9434C91.7172 18.5754 91.9652 18.1434 91.9652 17.6474C91.9652 16.6714 91.4852 16.1834 90.5252 16.1834C89.6292 16.1834 88.9412 16.5434 88.4612 17.2634C87.9812 17.9674 87.7172 18.8154 87.6692 19.8074C88.3732 19.7914 89.0132 19.7354 89.5892 19.6394Z" fill="#0F121A"/>
<path d="M72.3413 23.8874V12.1994C72.3413 11.9434 72.2933 11.7674 72.1973 11.6714C72.1173 11.5754 71.9653 11.5194 71.7413 11.5034L70.9013 11.4554V9.46338H75.1733V19.8554C76.0533 19.7754 76.8213 19.5034 77.4773 19.0394C78.1333 18.5754 78.5813 17.9674 78.8213 17.2154C78.8693 17.0554 78.8933 16.9274 78.8933 16.8314C78.8933 16.5594 78.7413 16.4234 78.4373 16.4234L77.5253 16.3754V14.5034H82.4933V16.4474L81.3413 16.4954C81.1333 18.1274 80.4293 19.4154 79.2293 20.3594L81.5813 24.5834L83.0453 24.6554V26.5754H79.5413L76.8053 21.5834C76.2773 21.7274 75.7333 21.8394 75.1733 21.9194V24.5834H75.1973L76.5653 24.6554V26.5754H70.8533V24.7514L71.6453 24.6794C71.8853 24.6474 72.0613 24.5834 72.1733 24.4874C72.2853 24.3754 72.3413 24.1754 72.3413 23.8874Z" fill="#0F121A"/>
<path d="M62.0976 20.4074C62.0976 21.7674 62.3536 22.8234 62.8656 23.5754C63.3776 24.3274 64.1136 24.7034 65.0736 24.7034C66.0496 24.7034 67.0096 24.3594 67.9536 23.6714L68.9856 25.5194C67.8496 26.4474 66.4256 26.9114 64.7136 26.9114C63.0016 26.9114 61.6496 26.3754 60.6576 25.3034C59.6816 24.2154 59.1936 22.6154 59.1936 20.5034C59.1936 18.3914 59.7536 16.8074 60.8736 15.7514C62.0096 14.6794 63.2816 14.1434 64.6896 14.1434C66.1136 14.1434 67.4336 14.4714 68.6496 15.1274V18.2474L66.4416 18.4154V17.2634C66.4416 16.8314 66.2816 16.5674 65.9616 16.4714C65.6576 16.3594 65.3376 16.3034 65.0016 16.3034C63.0656 16.3034 62.0976 17.6714 62.0976 20.4074Z" fill="#0F121A"/>
<path d="M51.5539 24.8234C53.2979 24.8234 54.1699 23.4154 54.1699 20.5994C54.1699 19.1754 53.9699 18.0954 53.5699 17.3594C53.1859 16.6234 52.5299 16.2554 51.6019 16.2554C50.6899 16.2554 50.0179 16.6074 49.5859 17.3114C49.1539 18.0154 48.9379 18.9754 48.9379 20.1914C48.9379 22.4474 49.3539 23.8634 50.1859 24.4394C50.5539 24.6954 51.0099 24.8234 51.5539 24.8234ZM46.0339 20.5274C46.0339 19.3434 46.2099 18.3194 46.5619 17.4554C46.9139 16.5754 47.3859 15.9034 47.9779 15.4394C49.1139 14.5754 50.3699 14.1434 51.7459 14.1434C52.7059 14.1434 53.5139 14.3034 54.1699 14.6234C54.8419 14.9274 55.3619 15.2874 55.7299 15.7034C56.1139 16.1034 56.4339 16.6954 56.6899 17.4794C56.9619 18.2474 57.0979 19.1594 57.0979 20.2154C57.0979 22.4234 56.5619 24.0954 55.4899 25.2314C54.4179 26.3674 53.0419 26.9354 51.3619 26.9354C49.6979 26.9354 48.3939 26.3994 47.4499 25.3274C46.5059 24.2394 46.0339 22.6394 46.0339 20.5274Z" fill="#0F121A"/>
<path d="M32.1002 26.5754V24.6314L32.8922 24.5594C33.3562 24.5114 33.5882 24.2874 33.5882 23.8874V12.7274L32.2202 12.6554V10.6154H39.0842C40.8762 10.6154 42.2682 11.0394 43.2602 11.8874C44.2682 12.7194 44.7722 13.9754 44.7722 15.6554C44.7722 17.3354 44.2042 18.6474 43.0682 19.5914C41.9322 20.5194 40.4282 20.9834 38.5562 20.9834H36.5162V24.4634L38.8202 24.5354V26.5754H32.1002ZM36.5162 18.6554H38.2442C40.5802 18.6554 41.7482 17.7034 41.7482 15.7994C41.7482 14.6474 41.4442 13.8874 40.8362 13.5194C40.2442 13.1354 39.2922 12.9434 37.9802 12.9434H36.5162V18.6554Z" fill="#0F121A"/>
<path fill-rule="evenodd" clip-rule="evenodd" d="M147.804 16.4234L148.812 16.4954C149.212 16.5114 149.412 16.7594 149.412 17.2394V23.8874C149.412 24.1754 149.356 24.3754 149.244 24.4874C149.132 24.5834 148.956 24.6474 148.716 24.6794L147.924 24.7514V26.5754H153.636V24.6554L152.268 24.5834V18.7754C152.268 18.1194 152.492 17.5514 152.94 17.0714C153.388 16.5914 153.988 16.3514 154.74 16.3514C155.508 16.3514 156.028 16.5674 156.3 16.9994C156.572 17.4154 156.708 18.0634 156.708 18.9434V23.8874C156.708 24.1754 156.652 24.3754 156.54 24.4874C156.428 24.5834 156.252 24.6474 156.012 24.6794L155.22 24.7514V26.5754H160.932V24.6554L159.564 24.5834V18.3194C159.564 16.9274 159.228 15.8874 158.556 15.1994C157.9 14.4954 156.964 14.1434 155.748 14.1434C154.948 14.1434 154.204 14.3194 153.516 14.6714C153.029 14.9091 152.61 15.2109 152.26 15.5767C152.115 15.728 151.981 15.8902 151.86 16.0634V14.5034H147.804V16.4234ZM152.26 15.024V14.5034C152.26 14.2825 152.081 14.1034 151.86 14.1034H147.804C147.583 14.1034 147.404 14.2825 147.404 14.5034V16.4234C147.404 16.6332 147.566 16.8074 147.775 16.8224L148.783 16.8944L148.796 16.8951C148.912 16.8997 148.941 16.9325 148.95 16.9445C148.97 16.9692 149.012 17.0464 149.012 17.2394V23.8874C149.012 24.0079 149 24.0912 148.984 24.1455C148.977 24.1719 148.97 24.1879 148.965 24.1968C148.926 24.2215 148.839 24.2586 148.671 24.2818L147.887 24.353C147.681 24.3718 147.524 24.5445 147.524 24.7514V26.5754C147.524 26.7963 147.703 26.9754 147.924 26.9754H153.636C153.857 26.9754 154.036 26.7963 154.036 26.5754V24.6554C154.036 24.4426 153.869 24.2671 153.657 24.2559L152.668 24.2039V18.7754C152.668 18.2208 152.853 17.7503 153.232 17.3443C153.593 16.9575 154.081 16.7514 154.74 16.7514C155.444 16.7514 155.795 16.9481 155.961 17.2125L155.965 17.2183C156.173 17.5361 156.308 18.0888 156.308 18.9434V23.8874C156.308 24.0079 156.296 24.0912 156.28 24.1455C156.273 24.1719 156.266 24.1879 156.261 24.1968C156.222 24.2215 156.135 24.2586 155.967 24.2818L155.183 24.353C154.977 24.3718 154.82 24.5445 154.82 24.7514V26.5754C154.82 26.7963 154.999 26.9754 155.22 26.9754H160.932C161.153 26.9754 161.332 26.7963 161.332 26.5754V24.6554C161.332 24.4426 161.165 24.2671 160.953 24.2559L159.964 24.2039V18.3194C159.964 16.8717 159.615 15.7137 158.845 14.9233C158.095 14.1201 157.042 13.7434 155.748 13.7434C154.888 13.7434 154.082 13.9328 153.337 14.3135C152.937 14.5091 152.578 14.7459 152.26 15.024Z" fill="#0F121A"/>
<path fill-rule="evenodd" clip-rule="evenodd" d="M144.626 23.9114V14.9834C143.138 14.4234 141.714 14.1434 140.354 14.1434C138.242 14.1434 136.658 14.7514 135.602 15.9674C134.546 17.1834 134.018 18.8794 134.018 21.0554C134.018 22.8634 134.41 24.2874 135.194 25.3274C135.978 26.3674 137.186 26.8874 138.818 26.8874C140.029 26.8874 141.016 26.4518 141.778 25.5806C141.887 25.457 141.99 25.3246 142.09 25.1834C142.095 25.1754 142.101 25.1674 142.106 25.1594L142.178 25.1834V26.5754H145.994V24.6554L145.226 24.6074C145.002 24.5914 144.842 24.5354 144.746 24.4394C144.666 24.3434 144.626 24.1674 144.626 23.9114ZM145.052 24.1687C145.05 24.1627 145.048 24.1554 145.047 24.1467C145.035 24.0971 145.026 24.0209 145.026 23.9114V14.9834C145.026 14.8168 144.923 14.6677 144.767 14.609C143.242 14.0349 141.77 13.7434 140.354 13.7434C138.165 13.7434 136.454 14.3763 135.3 15.7051C134.162 17.016 133.618 18.8171 133.618 21.0554C133.618 22.9172 134.022 24.4364 134.875 25.5682C135.754 26.7335 137.096 27.2874 138.818 27.2874C139.992 27.2874 140.985 26.907 141.778 26.1571V26.5754C141.778 26.7963 141.958 26.9754 142.178 26.9754H145.994C146.215 26.9754 146.394 26.7963 146.394 26.5754V24.6554C146.394 24.4442 146.23 24.2693 146.019 24.2562L145.255 24.2084C145.254 24.2084 145.254 24.2083 145.253 24.2083C145.167 24.202 145.108 24.189 145.071 24.1758C145.063 24.1733 145.057 24.1709 145.052 24.1687ZM141.842 16.5434V22.7594C141.842 23.3034 141.618 23.7914 141.17 24.2234C140.722 24.6394 140.146 24.8474 139.442 24.8474C137.778 24.8474 136.946 23.5514 136.946 20.9594C136.946 19.5354 137.186 18.3914 137.666 17.5274C138.146 16.6634 138.922 16.2314 139.994 16.2314C140.778 16.2314 141.394 16.3354 141.842 16.5434ZM141.442 16.8156V22.7594C141.442 23.1778 141.276 23.5652 140.895 23.9329C140.533 24.2681 140.06 24.4474 139.442 24.4474C138.734 24.4474 138.243 24.1821 137.907 23.6593C137.552 23.1062 137.346 22.2254 137.346 20.9594C137.346 19.5753 137.581 18.5057 138.016 17.7216C138.419 16.9973 139.053 16.6314 139.994 16.6314C140.607 16.6314 141.085 16.6981 141.442 16.8156Z" fill="#0F121A"/>
<path fill-rule="evenodd" clip-rule="evenodd" d="M130.518 9.06339C130.739 9.06339 130.918 9.24247 130.918 9.46338V24.2039L131.907 24.2559C132.119 24.2671 132.286 24.4426 132.286 24.6554V26.5754C132.286 26.7963 132.107 26.9754 131.886 26.9754H126.174C125.953 26.9754 125.774 26.7963 125.774 26.5754V24.7514C125.774 24.5445 125.932 24.3718 126.138 24.353L126.925 24.2815C126.926 24.2814 126.926 24.2814 126.927 24.2813C127.094 24.2636 127.162 24.2152 127.192 24.1828C127.221 24.1505 127.262 24.0787 127.262 23.9114V12.0794C127.262 11.9842 127.238 11.9627 127.235 11.9601C127.226 11.9513 127.179 11.9147 127.034 11.9025C127.033 11.9023 127.031 11.9022 127.03 11.9021L126.199 11.8547C125.987 11.8426 125.822 11.6674 125.822 11.4554V9.46338C125.822 9.24247 126.001 9.06339 126.222 9.06339H130.518ZM127.062 11.5034C127.462 11.5354 127.662 11.7274 127.662 12.0794V23.9114C127.662 24.3754 127.43 24.6314 126.966 24.6794L126.174 24.7514V26.5754H131.886V24.6554L130.518 24.5834V9.46338H126.222V11.4554L127.062 11.5034Z" fill="#0F121A"/>
<path fill-rule="evenodd" clip-rule="evenodd" d="M111.562 24.6314V26.5754H118.282V24.5354L115.978 24.4634V20.9834H118.018C119.89 20.9834 121.394 20.5194 122.53 19.5914C123.666 18.6474 124.234 17.3354 124.234 15.6554C124.234 13.9754 123.73 12.7194 122.722 11.8874C121.73 11.0394 120.338 10.6154 118.546 10.6154H111.682V12.6554L113.05 12.7274V23.8874C113.05 24.2874 112.818 24.5114 112.354 24.5594L111.562 24.6314ZM112.313 24.1615L111.526 24.233C111.32 24.2518 111.162 24.4245 111.162 24.6314V26.5754C111.162 26.7963 111.341 26.9754 111.562 26.9754H118.282C118.503 26.9754 118.682 26.7963 118.682 26.5754V24.5354C118.682 24.3193 118.51 24.1423 118.294 24.1356L116.378 24.0757V21.3834H118.018C119.956 21.3834 121.558 20.9021 122.783 19.9012L122.785 19.899C124.026 18.868 124.634 17.436 124.634 15.6554C124.634 13.8942 124.102 12.5098 122.979 11.5811C121.892 10.653 120.396 10.2154 118.546 10.2154H111.682C111.461 10.2154 111.282 10.3945 111.282 10.6154V12.6554C111.282 12.8681 111.448 13.0437 111.661 13.0548L112.65 13.1069V23.8874C112.65 24.0066 112.618 24.0483 112.598 24.0676C112.57 24.095 112.495 24.1423 112.315 24.1613C112.314 24.1614 112.313 24.1614 112.313 24.1615ZM117.706 18.6554H115.978V12.9434H117.442C118.754 12.9434 119.706 13.1354 120.298 13.5194C120.906 13.8874 121.21 14.6474 121.21 15.7994C121.21 17.7034 120.042 18.6554 117.706 18.6554ZM116.378 13.3434H117.442C118.733 13.3434 119.588 13.5358 120.08 13.855L120.091 13.8616C120.518 14.1201 120.81 14.6967 120.81 15.7994C120.81 16.6657 120.548 17.2507 120.081 17.6313C119.598 18.0247 118.83 18.2554 117.706 18.2554H116.378V13.3434Z" fill="#0F121A"/>
<path fill-rule="evenodd" clip-rule="evenodd" d="M93.5492 15.0314C92.8452 14.4394 91.8932 14.1434 90.6932 14.1434C88.8212 14.1434 87.3652 14.7834 86.3252 16.0634C85.2852 17.3434 84.7652 18.9274 84.7652 20.8154C84.7652 22.7034 85.2212 24.1914 86.1332 25.2794C87.0452 26.3514 88.4772 26.8874 90.4292 26.8874C91.4052 26.8874 92.2692 26.7354 93.0212 26.4314C93.7892 26.1274 94.3332 25.8314 94.6532 25.5434L93.7412 23.5994C93.6291 23.6789 93.517 23.754 93.405 23.8245C92.5251 24.3784 91.6451 24.6554 90.7652 24.6554C89.7732 24.6554 89.0372 24.3994 88.5572 23.8874C88.155 23.445 87.9045 22.8903 87.8056 22.2233C87.7864 22.0942 87.773 21.9609 87.7652 21.8234C87.9 21.8234 88.0335 21.8218 88.1656 21.8186C89.3502 21.7897 90.4247 21.6313 91.3892 21.3434C92.0292 21.1514 92.5732 20.9034 93.0212 20.5994C93.4692 20.2954 93.8452 19.8794 94.1492 19.3514C94.4532 18.8074 94.6052 18.1834 94.6052 17.4794C94.6052 16.4234 94.2532 15.6074 93.5492 15.0314ZM93.8045 14.7234C93.0091 14.0556 91.9571 13.7434 90.6932 13.7434C88.7191 13.7434 87.1416 14.4243 86.0147 15.8111C84.9086 17.1726 84.3652 18.8495 84.3652 20.8154C84.3652 22.7661 84.8369 24.3555 85.8266 25.5364L85.8285 25.5386C86.8427 26.7306 88.4074 27.2874 90.4292 27.2874C91.4459 27.2874 92.3619 27.1291 93.1699 26.8027C93.9485 26.4944 94.5465 26.1776 94.9208 25.8407C95.0518 25.7228 95.0902 25.5331 95.0153 25.3735L94.1033 23.4295C94.053 23.3222 93.9577 23.2428 93.843 23.2126C93.7284 23.1824 93.6063 23.2046 93.5097 23.2732C92.5698 23.9402 91.657 24.2554 90.7652 24.2554C89.8388 24.2554 89.2287 24.0173 88.8511 23.616C88.5215 23.2525 88.3032 22.792 88.2095 22.2176C89.4103 22.1858 90.5093 22.0235 91.5036 21.7267C92.1739 21.5256 92.7573 21.2619 93.2458 20.9304C93.7499 20.5883 94.1654 20.1248 94.4958 19.551L94.4984 19.5465C94.8398 18.9355 95.0052 18.2427 95.0052 17.4794C95.0052 16.326 94.6155 15.388 93.8045 14.7234ZM91.2212 18.9434C90.7252 19.2954 90.1812 19.5274 89.5892 19.6394C89.1246 19.7168 88.6183 19.7682 88.0704 19.7936C87.9391 19.7997 87.8053 19.8043 87.6692 19.8074C87.6758 19.671 87.6865 19.5374 87.7012 19.4065C87.7938 18.585 88.0472 17.8706 88.4612 17.2634C88.9412 16.5434 89.6292 16.1834 90.5252 16.1834C91.4852 16.1834 91.9652 16.6714 91.9652 17.6474C91.9652 18.1434 91.7172 18.5754 91.2212 18.9434ZM90.9862 18.6197C90.5388 18.9364 90.0509 19.1443 89.519 19.2456C89.0884 19.3171 88.6175 19.366 88.1058 19.3915C88.1973 18.6517 88.4289 18.0208 88.7917 17.4887L88.794 17.4853C89.1967 16.8812 89.7572 16.5834 90.5252 16.5834C90.9418 16.5834 91.1812 16.6888 91.32 16.8299C91.46 16.9722 91.5652 17.2194 91.5652 17.6474C91.5652 17.9849 91.4057 18.3073 90.9862 18.6197Z" fill="#0F121A"/>
<path fill-rule="evenodd" clip-rule="evenodd" d="M71.9 11.939C71.8968 11.9375 71.892 11.9353 71.885 11.9327C71.8552 11.9218 71.8016 11.9089 71.7154 11.9026C71.7145 11.9025 71.7136 11.9024 71.7128 11.9024L70.8784 11.8547C70.6667 11.8426 70.5013 11.6674 70.5013 11.4554V9.46338C70.5013 9.24247 70.6803 9.06339 70.9013 9.06339H75.1733C75.3942 9.06339 75.5733 9.24247 75.5733 9.46338V19.3987C76.2061 19.2855 76.7617 19.0556 77.2463 18.7128C77.8317 18.2987 78.2258 17.7632 78.4391 17.0972C78.4821 16.9533 78.4933 16.8697 78.4933 16.8314C78.4933 16.8297 78.4932 16.8281 78.4932 16.8265C78.4793 16.8247 78.4609 16.8234 78.4373 16.8234C78.4302 16.8234 78.4232 16.8232 78.4162 16.8228L77.5042 16.7748C77.2918 16.7637 77.1253 16.5881 77.1253 16.3754V14.5034C77.1253 14.2825 77.3043 14.1034 77.5253 14.1034H82.4933C82.7142 14.1034 82.8933 14.2825 82.8933 14.5034V16.4474C82.8933 16.6618 82.7242 16.8381 82.5099 16.847L81.6879 16.8813C81.4373 18.3353 80.7893 19.5331 79.7402 20.4547L81.8227 24.1948L83.0649 24.2559C83.2779 24.2663 83.4453 24.4421 83.4453 24.6554V26.5754C83.4453 26.7963 83.2662 26.9754 83.0453 26.9754H79.5413C79.3952 26.9754 79.2607 26.8957 79.1905 26.7676L76.6043 22.0489C76.2665 22.1324 75.9228 22.2035 75.5733 22.2621V24.2026L76.5863 24.2559C76.7987 24.2671 76.9653 24.4426 76.9653 24.6554V26.5754C76.9653 26.7963 76.7862 26.9754 76.5653 26.9754H70.8533C70.6323 26.9754 70.4533 26.7963 70.4533 26.5754V24.7514C70.4533 24.5445 70.611 24.3718 70.817 24.353L71.6003 24.2818C71.7688 24.2586 71.8555 24.2215 71.8948 24.1967C71.8996 24.1879 71.9067 24.1719 71.9141 24.1455C71.9293 24.0912 71.9413 24.0079 71.9413 23.8874V12.1994C71.9413 12.0938 71.9311 12.0236 71.9194 11.9806C71.9143 11.9621 71.9098 11.9518 71.9076 11.9473C71.905 11.9445 71.9025 11.9418 71.9 11.939ZM72.1733 24.4874C72.0613 24.5834 71.8853 24.6474 71.6453 24.6794L70.8533 24.7514V26.5754H76.5653V24.6554L75.1973 24.5834H75.1733V21.9194C75.7333 21.8394 76.2773 21.7274 76.8053 21.5834L79.5413 26.5754H83.0453V24.6554L81.5813 24.5834L79.2293 20.3594C80.4293 19.4154 81.1333 18.1274 81.3413 16.4954L82.4933 16.4474V14.5034H77.5253V16.3754L78.4373 16.4234C78.7413 16.4234 78.8933 16.5594 78.8933 16.8314C78.8933 16.9274 78.8693 17.0554 78.8213 17.2154C78.5813 17.9674 78.1333 18.5754 77.4773 19.0394C76.9226 19.4317 76.288 19.6867 75.5733 19.8045C75.4426 19.8261 75.3093 19.843 75.1733 19.8554V9.46338H70.9013V11.4554L71.7413 11.5034C71.9653 11.5194 72.1173 11.5754 72.1973 11.6714C72.2933 11.7674 72.3413 11.9434 72.3413 12.1994V23.8874C72.3413 24.1754 72.2853 24.3754 72.1733 24.4874Z" fill="#0F121A"/>
<path fill-rule="evenodd" clip-rule="evenodd" d="M62.8656 23.5754C62.3536 22.8234 62.0976 21.7674 62.0976 20.4074C62.0976 17.6714 63.0656 16.3034 65.0016 16.3034C65.3376 16.3034 65.6576 16.3594 65.9616 16.4714C66.2816 16.5674 66.4416 16.8314 66.4416 17.2634V18.4154L68.6496 18.2474V15.1274C67.4336 14.4714 66.1136 14.1434 64.6896 14.1434C63.2816 14.1434 62.0096 14.6794 60.8736 15.7514C59.7536 16.8074 59.1936 18.3914 59.1936 20.5034C59.1936 22.6154 59.6816 24.2154 60.6576 25.3034C61.6496 26.3754 63.0016 26.9114 64.7136 26.9114C66.4256 26.9114 67.8496 26.4474 68.9856 25.5194L67.9536 23.6714C67.8433 23.7517 67.7329 23.8274 67.6222 23.8984C66.7851 24.435 65.9356 24.7034 65.0736 24.7034C64.1136 24.7034 63.3776 24.3274 62.8656 23.5754ZM60.5992 15.4603C61.8006 14.3267 63.168 13.7434 64.6896 13.7434C66.1778 13.7434 67.5633 14.0869 68.8395 14.7753C68.9689 14.8452 69.0496 14.9803 69.0496 15.1274V18.2474C69.0496 18.4565 68.8885 18.6304 68.6799 18.6462L66.4719 18.8142C66.3609 18.8227 66.2513 18.7845 66.1697 18.7088C66.088 18.6331 66.0416 18.5267 66.0416 18.4154V17.2634C66.0416 17.0926 66.0094 16.998 65.9795 16.9487C65.9552 16.9087 65.9202 16.8766 65.8466 16.8545C65.8388 16.8522 65.831 16.8496 65.8233 16.8467C65.5652 16.7516 65.2922 16.7034 65.0016 16.7034C64.1402 16.7034 63.5467 17 63.1501 17.5604C62.7356 18.1462 62.4976 19.0744 62.4976 20.4074C62.4976 21.7245 62.7467 22.69 63.1962 23.3503C63.629 23.9859 64.2372 24.3034 65.0736 24.3034C65.9493 24.3034 66.8286 23.9963 67.718 23.3481C67.8105 23.2807 67.9274 23.2562 68.0392 23.2807C68.151 23.3052 68.247 23.3764 68.3028 23.4764L69.3348 25.3244C69.4294 25.4937 69.3888 25.7065 69.2386 25.8292C68.0196 26.825 66.5016 27.3114 64.7136 27.3114C62.9111 27.3114 61.4448 26.7431 60.364 25.5751L60.3598 25.5705C59.2938 24.3823 58.7936 22.6707 58.7936 20.5034C58.7936 18.3235 59.3727 16.6167 60.5992 15.4603Z" fill="#0F121A"/>
<path fill-rule="evenodd" clip-rule="evenodd" d="M54.1699 20.5994C54.1699 23.4154 53.2979 24.8234 51.5539 24.8234C51.0099 24.8234 50.5539 24.6954 50.1859 24.4394C49.3539 23.8634 48.9379 22.4474 48.9379 20.1914C48.9379 18.9754 49.1539 18.0154 49.5859 17.3114C50.0179 16.6074 50.6899 16.2554 51.6019 16.2554C52.5299 16.2554 53.1859 16.6234 53.5699 17.3594C53.9699 18.0954 54.1699 19.1754 54.1699 20.5994ZM46.5619 17.4554C46.2099 18.3194 46.0339 19.3434 46.0339 20.5274C46.0339 22.6394 46.5059 24.2394 47.4499 25.3274C48.3939 26.3994 49.6979 26.9354 51.3619 26.9354C53.0419 26.9354 54.4179 26.3674 55.4899 25.2314C56.5619 24.0954 57.0979 22.4234 57.0979 20.2154C57.0979 19.1594 56.9619 18.2474 56.6899 17.4794C56.4339 16.6954 56.1139 16.1034 55.7299 15.7034C55.3619 15.2874 54.8419 14.9274 54.1699 14.6234C53.5139 14.3034 52.7059 14.1434 51.7459 14.1434C50.3699 14.1434 49.1139 14.5754 47.9779 15.4394C47.3859 15.9034 46.9139 16.5754 46.5619 17.4554ZM46.191 17.3056C45.8153 18.2283 45.6339 19.3055 45.6339 20.5274C45.6339 22.6918 46.1168 24.4014 47.1477 25.5895L47.1497 25.5917C48.1824 26.7645 49.6039 27.3354 51.3619 27.3354C53.1427 27.3354 54.6271 26.7285 55.7808 25.5059C56.9473 24.2697 57.4979 22.4831 57.4979 20.2154C57.4979 19.1287 57.3584 18.1709 57.0686 17.3505C56.8036 16.5406 56.4615 15.8904 56.0241 15.4323C55.6101 14.9664 55.0419 14.5795 54.34 14.2613C53.616 13.9094 52.7459 13.7434 51.7459 13.7434C50.279 13.7434 48.9386 14.2062 47.7357 15.121L47.7311 15.1246C47.0713 15.6417 46.5624 16.3775 46.191 17.3056ZM53.2153 17.5444C53.0553 17.2379 52.8475 17.0223 52.5942 16.8802C52.3384 16.7368 52.0132 16.6554 51.6019 16.6554C50.8116 16.6554 50.2774 16.9492 49.9268 17.5206C49.5476 18.1386 49.3379 19.0165 49.3379 20.1914C49.3379 21.2991 49.4405 22.1752 49.6337 22.8326C49.8273 23.4919 50.1005 23.8938 50.4136 24.1105C50.7013 24.3107 51.0738 24.4234 51.5539 24.4234C52.2963 24.4234 52.8173 24.1357 53.1758 23.5568C53.5539 22.9462 53.7699 21.9791 53.7699 20.5994C53.7699 19.2012 53.5715 18.2001 53.2184 17.5504L53.2153 17.5444Z" fill="#0F121A"/>
<path fill-rule="evenodd" clip-rule="evenodd" d="M32.1002 24.6314V26.5754H38.8202V24.5354L36.5162 24.4634V20.9834H38.5562C40.4282 20.9834 41.9322 20.5194 43.0682 19.5914C44.2042 18.6474 44.7722 17.3354 44.7722 15.6554C44.7722 13.9754 44.2682 12.7194 43.2602 11.8874C42.2682 11.0394 40.8762 10.6154 39.0842 10.6154H32.2202V12.6554L33.5882 12.7274V23.8874C33.5882 24.2874 33.3562 24.5114 32.8922 24.5594L32.1002 24.6314ZM32.8533 24.1613L32.064 24.233C31.8579 24.2518 31.7002 24.4245 31.7002 24.6314V26.5754C31.7002 26.7963 31.8793 26.9754 32.1002 26.9754H38.8202C39.0411 26.9754 39.2202 26.7963 39.2202 26.5754V24.5354C39.2202 24.3193 39.0486 24.1423 38.8327 24.1356L36.9162 24.0757V21.3834H38.5562C40.4945 21.3834 42.096 20.9021 43.3213 19.9012L43.3238 19.899C44.5645 18.868 45.1722 17.436 45.1722 15.6554C45.1722 13.8942 44.6408 12.5098 43.5175 11.5811C42.4302 10.653 40.9345 10.2154 39.0842 10.2154H32.2202C31.9993 10.2154 31.8202 10.3945 31.8202 10.6154V12.6554C31.8202 12.8681 31.9867 13.0437 32.1992 13.0548L33.1882 13.1069V23.8874C33.1882 24.0066 33.1563 24.0483 33.1364 24.0676C33.108 24.095 33.0332 24.1423 32.8533 24.1613ZM38.2442 18.6554H36.5162V12.9434H37.9802C39.2922 12.9434 40.2442 13.1354 40.8362 13.5194C41.4442 13.8874 41.7482 14.6474 41.7482 15.7994C41.7482 17.7034 40.5802 18.6554 38.2442 18.6554ZM36.9162 13.3434H37.9802C39.2716 13.3434 40.1265 13.5358 40.6185 13.855L40.6291 13.8616C41.0562 14.1201 41.3482 14.6967 41.3482 15.7994C41.3482 16.6657 41.0865 17.2507 40.6195 17.6313C40.1368 18.0247 39.3681 18.2554 38.2442 18.2554H36.9162V13.3434Z" fill="#0F121A"/>
</svg>
