<svg width="163" height="33" viewBox="0 0 163 33" fill="none" xmlns="http://www.w3.org/2000/svg">
<path d="M11.1743 9.82823C11.6809 9.81738 12.1898 9.8434 12.696 9.82823C12.8431 9.85386 12.9871 9.86538 13.1359 9.87789C15.1926 9.9908 17.7019 11.1566 19.0319 12.4879C19.4222 12.8786 19.7027 13.3298 19.6627 13.8641C19.6206 14.4236 19.2657 14.6235 18.7621 14.8526C18.2298 14.9897 17.6569 14.9541 17.1082 14.9537L6.93746 14.9538C6.39476 14.9538 5.8293 14.9801 5.31076 14.8145C4.50878 14.4993 4.22017 13.5595 4.72633 12.9303C6.04831 11.287 8.25632 10.2416 10.4824 9.94C10.5882 9.92567 11.1165 9.90044 11.1743 9.82823Z" fill="#6FE2BB"/>
<path d="M6.09522 16.5754C6.55357 16.741 7.05338 16.7146 7.53309 16.7147L16.5232 16.7146C17.0082 16.7149 17.5146 16.7506 17.9851 16.6135C18.8152 17.7048 18.8912 19.8612 18.5675 21.1153C17.8531 23.8834 14.9151 27.2854 11.7961 27.0732C10.0459 26.954 8.56733 25.8057 7.45358 24.527C5.90484 22.7487 5.09328 20.6853 5.52128 18.3322C5.58468 17.9838 5.87134 16.7701 6.09522 16.5754Z" fill="#6FE2BB"/>
</svg>
