<svg width="163" height="33" viewBox="0 0 163 33" fill="none" xmlns="http://www.w3.org/2000/svg">
<path d="M24.1404 18.8476V8.31131C24.1404 7.20674 23.245 6.31131 22.1404 6.31131H2C0.895431 6.31131 0 7.20674 0 8.31131V18.8476C0 25.5138 5.40402 30.9178 12.0702 30.9178C18.7364 30.9178 24.1404 25.5138 24.1404 18.8476Z" fill="#1B2732"/>
<path d="M11.1459 6.72126C11.0784 5.78006 11.4574 4.78873 12.1378 4.13674C12.6643 3.63217 13.6041 3.03719 14.3767 3.05957C15.3062 3.08651 15.6143 4.2658 14.9714 4.85301C14.6699 5.09142 14.4824 5.04949 14.1503 5.1655C13.4351 5.41531 13.1527 6.07766 13.1697 6.77921C13.0161 6.76462 12.8676 6.75117 12.7159 6.72126C12.1936 6.73897 11.6686 6.70859 11.1459 6.72126Z" fill="#1B2732"/>
<path d="M147.432 16.848V14.928H151.488V16.488C151.904 15.896 152.456 15.432 153.144 15.096C153.832 14.744 154.576 14.568 155.376 14.568C156.592 14.568 157.528 14.92 158.184 15.624C158.856 16.312 159.192 17.352 159.192 18.744V25.008L160.56 25.08V27H154.848V25.176L155.64 25.104C155.88 25.072 156.056 25.008 156.168 24.912C156.28 24.8 156.336 24.6 156.336 24.312V19.368C156.336 18.488 156.2 17.84 155.928 17.424C155.656 16.992 155.136 16.776 154.368 16.776C153.616 16.776 153.016 17.016 152.568 17.496C152.12 17.976 151.896 18.544 151.896 19.2V25.008L153.264 25.08V27H147.552V25.176L148.344 25.104C148.584 25.072 148.76 25.008 148.872 24.912C148.984 24.8 149.04 24.6 149.04 24.312V17.664C149.04 17.184 148.84 16.936 148.44 16.92L147.432 16.848Z" fill="#151F2E"/>
<path d="M144.254 15.408V24.336C144.254 24.592 144.294 24.768 144.374 24.864C144.47 24.96 144.63 25.016 144.854 25.032L145.622 25.08V27H141.806V25.608L141.734 25.584C140.934 26.736 139.838 27.312 138.446 27.312C136.814 27.312 135.606 26.792 134.822 25.752C134.038 24.712 133.646 23.288 133.646 21.48C133.646 19.304 134.174 17.608 135.23 16.392C136.286 15.176 137.87 14.568 139.982 14.568C141.342 14.568 142.766 14.848 144.254 15.408ZM141.47 23.184V16.968C141.022 16.76 140.406 16.656 139.622 16.656C138.55 16.656 137.774 17.088 137.294 17.952C136.814 18.816 136.574 19.96 136.574 21.384C136.574 23.976 137.406 25.272 139.07 25.272C139.774 25.272 140.35 25.064 140.798 24.648C141.246 24.216 141.47 23.728 141.47 23.184Z" fill="#151F2E"/>
<path d="M130.146 9.88801V25.008L131.514 25.08V27H125.802V25.176L126.594 25.104C127.058 25.056 127.29 24.8 127.29 24.336V12.504C127.29 12.152 127.09 11.96 126.69 11.928L125.85 11.88V9.88801H130.146Z" fill="#151F2E"/>
<path d="M111.19 27V25.056L111.982 24.984C112.446 24.936 112.678 24.712 112.678 24.312V13.152L111.31 13.08V11.04H118.174C119.966 11.04 121.358 11.464 122.35 12.312C123.358 13.144 123.862 14.4 123.862 16.08C123.862 17.76 123.294 19.072 122.158 20.016C121.022 20.944 119.518 21.408 117.646 21.408H115.606V24.888L117.91 24.96V27H111.19ZM115.606 19.08H117.334C119.67 19.08 120.838 18.128 120.838 16.224C120.838 15.072 120.534 14.312 119.926 13.944C119.334 13.56 118.382 13.368 117.07 13.368H115.606V19.08Z" fill="#151F2E"/>
<path d="M99.0664 12.384H100.626V14.928H103.818L103.578 16.944H100.626V23.256C100.626 23.96 100.754 24.456 101.01 24.744C101.266 25.016 101.658 25.152 102.186 25.152C102.73 25.152 103.274 24.984 103.818 24.648L104.538 26.496C103.738 27.056 102.722 27.336 101.49 27.336C100.77 27.336 100.162 27.24 99.6664 27.048C99.1704 26.872 98.8024 26.672 98.5624 26.448C98.3224 26.224 98.1384 25.896 98.0104 25.464C97.8824 25.032 97.8104 24.696 97.7944 24.456C97.7784 24.2 97.7704 23.832 97.7704 23.352V16.944H96.0664L96.3064 15.192C97.0584 15.128 97.6264 14.864 98.0104 14.4C98.3944 13.92 98.7464 13.248 99.0664 12.384Z" fill="#151F2E"/>
<path fill-rule="evenodd" clip-rule="evenodd" d="M98.6914 12.2451C98.7495 12.0882 98.8992 11.984 99.0665 11.984H100.627C100.847 11.984 101.027 12.1631 101.027 12.384V14.528H103.819C103.933 14.528 104.042 14.5769 104.118 14.6624C104.194 14.7479 104.229 14.8618 104.216 14.9753L103.976 16.9913C103.952 17.1925 103.781 17.344 103.579 17.344H101.027V23.256C101.027 23.9289 101.152 24.2979 101.306 24.4741C101.46 24.635 101.726 24.752 102.187 24.752C102.644 24.752 103.116 24.6116 103.608 24.3077C103.709 24.2453 103.833 24.231 103.945 24.2687C104.058 24.3064 104.148 24.3922 104.191 24.5028L104.911 26.3508C104.978 26.5226 104.919 26.7179 104.768 26.8237C103.885 27.4418 102.783 27.736 101.491 27.736C100.74 27.736 100.082 27.6366 99.5275 27.4231C99.0097 27.2389 98.5856 27.0167 98.2896 26.7404C97.9815 26.4529 97.768 26.0536 97.627 25.5776C97.4965 25.1373 97.4144 24.7674 97.3954 24.4826L97.3953 24.481C97.3785 24.2124 97.3705 23.8345 97.3705 23.352V17.344H96.0665C95.951 17.344 95.841 17.294 95.7651 17.207C95.6891 17.1199 95.6545 17.0042 95.6702 16.8897L95.9102 15.1377C95.9356 14.9523 96.0861 14.8093 96.2726 14.7934C96.9447 14.7362 97.4011 14.5075 97.7003 14.1475C98.047 13.7132 98.3802 13.0852 98.6914 12.2451ZM98.0104 14.4C97.6264 14.864 97.0584 15.128 96.3064 15.192L96.0664 16.944H97.7704V23.352C97.7704 23.832 97.7784 24.2 97.7944 24.456C97.8104 24.696 97.8824 25.032 98.0104 25.464C98.1384 25.896 98.3224 26.224 98.5624 26.448C98.8024 26.672 99.1704 26.872 99.6664 27.048C100.162 27.24 100.77 27.336 101.49 27.336C102.722 27.336 103.738 27.056 104.538 26.496L103.818 24.648C103.701 24.7208 103.583 24.7857 103.465 24.8427C103.039 25.0489 102.613 25.152 102.186 25.152C101.658 25.152 101.266 25.016 101.01 24.744C100.754 24.456 100.626 23.96 100.626 23.256V16.944H103.578L103.818 14.928H100.626V12.384H99.0664C98.7464 13.248 98.3944 13.92 98.0104 14.4Z" fill="#151F2E"/>
<path d="M90.3216 14.568C91.5216 14.568 92.4736 14.864 93.1776 15.456C93.8816 16.032 94.2336 16.848 94.2336 17.904C94.2336 18.608 94.0816 19.232 93.7776 19.776C93.4736 20.304 93.0976 20.72 92.6496 21.024C92.2016 21.328 91.6576 21.576 91.0176 21.768C89.9456 22.088 88.7376 22.248 87.3936 22.248C87.4416 23.096 87.7056 23.784 88.1856 24.312C88.6656 24.824 89.4016 25.08 90.3936 25.08C91.3856 25.08 92.3776 24.728 93.3696 24.024L94.2816 25.968C93.9616 26.256 93.4176 26.552 92.6496 26.856C91.8976 27.16 91.0336 27.312 90.0576 27.312C88.1056 27.312 86.6736 26.776 85.7616 25.704C84.8496 24.616 84.3936 23.128 84.3936 21.24C84.3936 19.352 84.9136 17.768 85.9536 16.488C86.9936 15.208 88.4496 14.568 90.3216 14.568ZM89.2176 20.064C89.8096 19.952 90.3536 19.72 90.8496 19.368C91.3456 19 91.5936 18.568 91.5936 18.072C91.5936 17.096 91.1136 16.608 90.1536 16.608C89.2576 16.608 88.5696 16.968 88.0896 17.688C87.6096 18.392 87.3456 19.24 87.2976 20.232C88.0016 20.216 88.6416 20.16 89.2176 20.064Z" fill="#151F2E"/>
<path d="M71.9694 24.312V12.624C71.9694 12.368 71.9214 12.192 71.8254 12.096C71.7454 12 71.5934 11.944 71.3694 11.928L70.5294 11.88V9.88801H74.8014V20.28C75.6814 20.2 76.4494 19.928 77.1054 19.464C77.7614 19 78.2094 18.392 78.4494 17.64C78.4974 17.48 78.5214 17.352 78.5214 17.256C78.5214 16.984 78.3694 16.848 78.0654 16.848L77.1534 16.8V14.928H82.1214V16.872L80.9694 16.92C80.7614 18.552 80.0574 19.84 78.8574 20.784L81.2094 25.008L82.6734 25.08V27H79.1694L76.4334 22.008C75.9054 22.152 75.3614 22.264 74.8014 22.344V25.008H74.8254L76.1934 25.08V27H70.4814V25.176L71.2734 25.104C71.5134 25.072 71.6894 25.008 71.8014 24.912C71.9134 24.8 71.9694 24.6 71.9694 24.312Z" fill="#151F2E"/>
<path d="M61.7258 20.832C61.7258 22.192 61.9818 23.248 62.4938 24C63.0058 24.752 63.7418 25.128 64.7018 25.128C65.6778 25.128 66.6378 24.784 67.5818 24.096L68.6138 25.944C67.4778 26.872 66.0538 27.336 64.3418 27.336C62.6298 27.336 61.2778 26.8 60.2858 25.728C59.3098 24.64 58.8218 23.04 58.8218 20.928C58.8218 18.816 59.3818 17.232 60.5018 16.176C61.6378 15.104 62.9098 14.568 64.3178 14.568C65.7418 14.568 67.0618 14.896 68.2778 15.552V18.672L66.0698 18.84V17.688C66.0698 17.256 65.9098 16.992 65.5898 16.896C65.2858 16.784 64.9658 16.728 64.6298 16.728C62.6938 16.728 61.7258 18.096 61.7258 20.832Z" fill="#151F2E"/>
<path d="M51.1821 25.248C52.9261 25.248 53.7981 23.84 53.7981 21.024C53.7981 19.6 53.5981 18.52 53.1981 17.784C52.8141 17.048 52.1581 16.68 51.2301 16.68C50.3181 16.68 49.6461 17.032 49.2141 17.736C48.7821 18.44 48.5661 19.4 48.5661 20.616C48.5661 22.872 48.9821 24.288 49.8141 24.864C50.1821 25.12 50.6381 25.248 51.1821 25.248ZM45.6621 20.952C45.6621 19.768 45.8381 18.744 46.1901 17.88C46.5421 17 47.0141 16.328 47.6061 15.864C48.7421 15 49.9981 14.568 51.3741 14.568C52.3341 14.568 53.1421 14.728 53.7981 15.048C54.4701 15.352 54.9901 15.712 55.3581 16.128C55.7421 16.528 56.0621 17.12 56.3181 17.904C56.5901 18.672 56.7261 19.584 56.7261 20.64C56.7261 22.848 56.1901 24.52 55.1181 25.656C54.0461 26.792 52.6701 27.36 50.9901 27.36C49.3261 27.36 48.0221 26.824 47.0781 25.752C46.1341 24.664 45.6621 23.064 45.6621 20.952Z" fill="#151F2E"/>
<path d="M31.7285 27V25.056L32.5205 24.984C32.9845 24.936 33.2165 24.712 33.2165 24.312V13.152L31.8485 13.08V11.04H38.7125C40.5045 11.04 41.8965 11.464 42.8885 12.312C43.8965 13.144 44.4005 14.4 44.4005 16.08C44.4005 17.76 43.8325 19.072 42.6965 20.016C41.5605 20.944 40.0565 21.408 38.1845 21.408H36.1445V24.888L38.4485 24.96V27H31.7285ZM36.1445 19.08H37.8725C40.2085 19.08 41.3765 18.128 41.3765 16.224C41.3765 15.072 41.0725 14.312 40.4645 13.944C39.8725 13.56 38.9205 13.368 37.6085 13.368H36.1445V19.08Z" fill="#151F2E"/>
<path fill-rule="evenodd" clip-rule="evenodd" d="M147.432 16.848L148.44 16.92C148.84 16.936 149.04 17.184 149.04 17.664V24.312C149.04 24.6 148.984 24.8 148.872 24.912C148.76 25.008 148.584 25.072 148.344 25.104L147.552 25.176V27H153.264V25.08L151.896 25.008V19.2C151.896 18.544 152.12 17.976 152.568 17.496C153.016 17.016 153.616 16.776 154.368 16.776C155.136 16.776 155.656 16.992 155.928 17.424C156.2 17.84 156.336 18.488 156.336 19.368V24.312C156.336 24.6 156.28 24.8 156.168 24.912C156.056 25.008 155.88 25.072 155.64 25.104L154.848 25.176V27H160.56V25.08L159.192 25.008V18.744C159.192 17.352 158.856 16.312 158.184 15.624C157.528 14.92 156.592 14.568 155.376 14.568C154.576 14.568 153.832 14.744 153.144 15.096C152.657 15.3337 152.238 15.6355 151.888 16.0013C151.743 16.1526 151.61 16.3148 151.488 16.488V14.928H147.432V16.848ZM151.888 15.4486V14.928C151.888 14.7071 151.709 14.528 151.488 14.528H147.432C147.211 14.528 147.032 14.7071 147.032 14.928V16.848C147.032 17.0579 147.194 17.232 147.403 17.247L148.411 17.319L148.424 17.3197C148.54 17.3243 148.569 17.3571 148.578 17.3691C148.598 17.3938 148.64 17.4711 148.64 17.664V24.312C148.64 24.4325 148.628 24.5159 148.613 24.5702C148.605 24.5965 148.598 24.6126 148.593 24.6214C148.554 24.6461 148.467 24.6832 148.299 24.7064L147.516 24.7776C147.309 24.7964 147.152 24.9691 147.152 25.176V27C147.152 27.2209 147.331 27.4 147.552 27.4H153.264C153.485 27.4 153.664 27.2209 153.664 27V25.08C153.664 24.8673 153.497 24.6917 153.285 24.6806L152.296 24.6285V19.2C152.296 18.6454 152.481 18.1749 152.86 17.7689C153.221 17.3821 153.709 17.176 154.368 17.176C155.072 17.176 155.423 17.3727 155.589 17.6372L155.593 17.6429C155.801 17.9607 155.936 18.5134 155.936 19.368V24.312C155.936 24.4325 155.924 24.5159 155.909 24.5702C155.901 24.5965 155.894 24.6126 155.889 24.6214C155.85 24.6461 155.763 24.6832 155.595 24.7064L154.812 24.7776C154.605 24.7964 154.448 24.9691 154.448 25.176V27C154.448 27.2209 154.627 27.4 154.848 27.4H160.56C160.781 27.4 160.96 27.2209 160.96 27V25.08C160.96 24.8673 160.793 24.6917 160.581 24.6806L159.592 24.6285V18.744C159.592 17.2963 159.243 16.1383 158.473 15.3479C157.723 14.5448 156.67 14.168 155.376 14.168C154.516 14.168 153.71 14.3574 152.965 14.7382C152.565 14.9337 152.206 15.1705 151.888 15.4486Z" fill="#151F2E"/>
<path fill-rule="evenodd" clip-rule="evenodd" d="M144.254 24.336V15.408C142.766 14.848 141.342 14.568 139.982 14.568C137.87 14.568 136.286 15.176 135.23 16.392C134.174 17.608 133.646 19.304 133.646 21.48C133.646 23.288 134.038 24.712 134.822 25.752C135.606 26.792 136.814 27.312 138.446 27.312C139.657 27.312 140.644 26.8764 141.407 26.0052C141.515 25.8816 141.619 25.7492 141.718 25.608C141.723 25.6 141.729 25.592 141.734 25.584L141.806 25.608V27H145.622V25.08L144.854 25.032C144.63 25.016 144.47 24.96 144.374 24.864C144.294 24.768 144.254 24.592 144.254 24.336ZM144.68 24.5933C144.679 24.5873 144.677 24.58 144.675 24.5714C144.663 24.5217 144.655 24.4455 144.655 24.336V15.408C144.655 15.2414 144.551 15.0923 144.395 15.0336C142.87 14.4595 141.398 14.168 139.983 14.168C137.793 14.168 136.083 14.8009 134.929 16.1297C133.79 17.4407 133.247 19.2417 133.247 21.48C133.247 23.3419 133.65 24.861 134.503 25.9928C135.382 27.1582 136.724 27.712 138.447 27.712C139.621 27.712 140.613 27.3316 141.407 26.5817V27C141.407 27.2209 141.586 27.4 141.807 27.4H145.623C145.843 27.4 146.023 27.2209 146.023 27V25.08C146.023 24.8688 145.858 24.694 145.648 24.6808L144.883 24.633C144.883 24.633 144.882 24.6329 144.881 24.6329C144.795 24.6266 144.736 24.6136 144.699 24.6005C144.692 24.5979 144.685 24.5955 144.68 24.5933ZM141.47 16.968V23.184C141.47 23.728 141.246 24.216 140.798 24.648C140.35 25.064 139.774 25.272 139.07 25.272C137.406 25.272 136.574 23.976 136.574 21.384C136.574 19.96 136.814 18.816 137.294 17.952C137.774 17.088 138.55 16.656 139.622 16.656C140.406 16.656 141.022 16.76 141.47 16.968ZM141.071 17.2402V23.184C141.071 23.6025 140.904 23.9898 140.524 24.3575C140.161 24.6927 139.688 24.872 139.071 24.872C138.362 24.872 137.871 24.6067 137.535 24.0839C137.18 23.5308 136.975 22.65 136.975 21.384C136.975 19.9999 137.209 18.9304 137.644 18.1463C138.047 17.4219 138.681 17.056 139.623 17.056C140.235 17.056 140.713 17.1227 141.071 17.2402Z" fill="#151F2E"/>
<path fill-rule="evenodd" clip-rule="evenodd" d="M130.146 9.48801C130.367 9.48801 130.546 9.66709 130.546 9.88801V24.6285L131.535 24.6806C131.748 24.6917 131.914 24.8673 131.914 25.08V27C131.914 27.2209 131.735 27.4 131.514 27.4H125.802C125.581 27.4 125.402 27.2209 125.402 27V25.176C125.402 24.9691 125.56 24.7964 125.766 24.7777L126.553 24.7061C126.554 24.7061 126.555 24.706 126.555 24.7059C126.722 24.6882 126.791 24.6399 126.82 24.6074C126.849 24.5751 126.89 24.5033 126.89 24.336V12.504C126.89 12.4088 126.866 12.3873 126.864 12.3847C126.854 12.3759 126.807 12.3393 126.663 12.3271C126.661 12.327 126.66 12.3268 126.658 12.3267L125.828 12.2794C125.616 12.2673 125.45 12.0921 125.45 11.88V9.88801C125.45 9.66709 125.629 9.48801 125.85 9.48801H130.146ZM126.69 11.928C127.09 11.96 127.29 12.152 127.29 12.504V24.336C127.29 24.8 127.058 25.056 126.594 25.104L125.802 25.176V27H131.514V25.08L130.146 25.008V9.88801H125.85V11.88L126.69 11.928Z" fill="#151F2E"/>
<path fill-rule="evenodd" clip-rule="evenodd" d="M111.19 25.056V27H117.91V24.96L115.606 24.888V21.408H117.646C119.518 21.408 121.022 20.944 122.158 20.016C123.294 19.072 123.862 17.76 123.862 16.08C123.862 14.4 123.358 13.144 122.35 12.312C121.358 11.464 119.966 11.04 118.174 11.04H111.31V13.08L112.678 13.152V24.312C112.678 24.712 112.446 24.936 111.982 24.984L111.19 25.056ZM111.941 24.5861L111.154 24.6576C110.948 24.6764 110.79 24.8491 110.79 25.056V27C110.79 27.2209 110.969 27.4 111.19 27.4H117.91C118.131 27.4 118.31 27.2209 118.31 27V24.96C118.31 24.744 118.138 24.567 117.923 24.5602L116.006 24.5003V21.808H117.646C119.584 21.808 121.186 21.3267 122.411 20.3258L122.414 20.3237C123.654 19.2927 124.262 17.8606 124.262 16.08C124.262 14.3188 123.731 12.9344 122.607 12.0058C121.52 11.0776 120.024 10.64 118.174 10.64H111.31C111.089 10.64 110.91 10.8191 110.91 11.04V13.08C110.91 13.2928 111.077 13.4683 111.289 13.4795L112.278 13.5315V24.312C112.278 24.4313 112.246 24.473 112.226 24.4922C112.198 24.5196 112.123 24.567 111.943 24.5859C111.942 24.586 111.942 24.5861 111.941 24.5861ZM117.334 19.08H115.606V13.368H117.07C118.382 13.368 119.334 13.56 119.926 13.944C120.534 14.312 120.838 15.072 120.838 16.224C120.838 18.128 119.67 19.08 117.334 19.08ZM116.006 13.768H117.07C118.361 13.768 119.216 13.9604 119.708 14.2796L119.719 14.2862C120.146 14.5447 120.438 15.1214 120.438 16.224C120.438 17.0903 120.176 17.6753 119.709 18.056C119.227 18.4493 118.458 18.68 117.334 18.68H116.006V13.768Z" fill="#151F2E"/>
<path fill-rule="evenodd" clip-rule="evenodd" d="M93.1776 15.456C92.4736 14.864 91.5216 14.568 90.3216 14.568C88.4496 14.568 86.9936 15.208 85.9536 16.488C84.9136 17.768 84.3936 19.352 84.3936 21.24C84.3936 23.128 84.8496 24.616 85.7616 25.704C86.6736 26.776 88.1056 27.312 90.0576 27.312C91.0336 27.312 91.8976 27.16 92.6496 26.856C93.4176 26.552 93.9616 26.256 94.2816 25.968L93.3696 24.024C93.2575 24.1035 93.1455 24.1786 93.0334 24.2491C92.1535 24.8031 91.2735 25.08 90.3936 25.08C89.4016 25.08 88.6656 24.824 88.1856 24.312C87.7834 23.8696 87.533 23.315 87.4341 22.648C87.4149 22.5188 87.4013 22.3855 87.3936 22.248C87.5284 22.248 87.662 22.2464 87.7941 22.2432C88.9787 22.2143 90.0531 22.0559 91.0176 21.768C91.6576 21.576 92.2016 21.328 92.6496 21.024C93.0976 20.72 93.4736 20.304 93.7776 19.776C94.0816 19.232 94.2336 18.608 94.2336 17.904C94.2336 16.848 93.8816 16.032 93.1776 15.456ZM93.433 15.1481C92.6376 14.4803 91.5856 14.168 90.3217 14.168C88.3475 14.168 86.77 14.8489 85.6432 16.2358C84.537 17.5972 83.9937 19.2742 83.9937 21.24C83.9937 23.1907 84.4653 24.7802 85.4551 25.961L85.457 25.9632C86.4711 27.1553 88.0358 27.712 90.0577 27.712C91.0743 27.712 91.9904 27.5537 92.7984 27.2273C93.5769 26.9191 94.1749 26.6022 94.5492 26.2653C94.6802 26.1474 94.7186 25.9577 94.6438 25.7981L93.7318 23.8541C93.6814 23.7468 93.5861 23.6674 93.4715 23.6372C93.3569 23.607 93.2348 23.6292 93.1382 23.6978C92.1983 24.3648 91.2855 24.68 90.3937 24.68C89.4672 24.68 88.8572 24.4419 88.4796 24.0407C88.1499 23.6771 87.9317 23.2167 87.8379 22.6422C89.0387 22.6104 90.1377 22.4481 91.1321 22.1513C91.8023 21.9502 92.3858 21.6865 92.8743 21.355C93.3783 21.013 93.7939 20.5494 94.1243 19.9756L94.1268 19.9711C94.4683 19.3601 94.6337 18.6673 94.6337 17.904C94.6337 16.7506 94.244 15.8126 93.433 15.1481ZM90.8496 19.368C90.3536 19.72 89.8096 19.952 89.2176 20.064C88.7529 20.1414 88.2468 20.1929 87.6989 20.2182C87.5675 20.2243 87.4337 20.2289 87.2976 20.232C87.3041 20.0957 87.3149 19.962 87.3297 19.8311C87.4223 19.0096 87.6755 18.2952 88.0896 17.688C88.5696 16.968 89.2576 16.608 90.1536 16.608C91.1136 16.608 91.5936 17.096 91.5936 18.072C91.5936 18.568 91.3456 19 90.8496 19.368ZM90.6146 19.0443C90.1673 19.3611 89.6793 19.569 89.1474 19.6702C88.7169 19.7417 88.246 19.7906 87.7342 19.8161C87.8258 19.0763 88.0574 18.4454 88.4202 17.9134L88.4225 17.9099C88.8252 17.3058 89.3857 17.008 90.1537 17.008C90.5703 17.008 90.8097 17.1134 90.9485 17.2545C91.0885 17.3968 91.1937 17.644 91.1937 18.072C91.1937 18.4095 91.0342 18.7319 90.6146 19.0443Z" fill="#151F2E"/>
<path fill-rule="evenodd" clip-rule="evenodd" d="M71.5283 12.3636C71.5251 12.3621 71.5203 12.3599 71.5133 12.3573C71.4835 12.3464 71.4299 12.3335 71.3436 12.3272C71.3428 12.3271 71.3419 12.3271 71.341 12.327L70.5067 12.2794C70.295 12.2673 70.1295 12.0921 70.1295 11.88V9.88801C70.1295 9.66709 70.3086 9.48801 70.5295 9.48801H74.8015C75.0225 9.48801 75.2015 9.66709 75.2015 9.88801V19.8233C75.8344 19.7102 76.39 19.4802 76.8746 19.1374C77.46 18.7234 77.8541 18.1878 78.0674 17.5218C78.1104 17.3779 78.1215 17.2943 78.1215 17.256C78.1215 17.2543 78.1215 17.2527 78.1215 17.2511C78.1076 17.2494 78.0892 17.248 78.0655 17.248C78.0585 17.248 78.0515 17.2478 78.0445 17.2475L77.1325 17.1995C76.9201 17.1883 76.7535 17.0128 76.7535 16.8V14.928C76.7535 14.7071 76.9326 14.528 77.1535 14.528H82.1215C82.3425 14.528 82.5215 14.7071 82.5215 14.928V16.872C82.5215 17.0864 82.3524 17.2627 82.1382 17.2717L81.3162 17.3059C81.0656 18.7599 80.4175 19.9577 79.3684 20.8793L81.451 24.6194L82.6932 24.6805C82.9062 24.691 83.0735 24.8667 83.0735 25.08V27C83.0735 27.2209 82.8945 27.4 82.6735 27.4H79.1695C79.0235 27.4 78.889 27.3204 78.8188 27.1923L76.2325 22.4735C75.8948 22.5571 75.5511 22.6281 75.2015 22.6867V24.6272L76.2146 24.6806C76.427 24.6917 76.5935 24.8673 76.5935 25.08V27C76.5935 27.2209 76.4145 27.4 76.1935 27.4H70.4815C70.2606 27.4 70.0815 27.2209 70.0815 27V25.176C70.0815 24.9691 70.2393 24.7964 70.4453 24.7777L71.2285 24.7064C71.3971 24.6832 71.4838 24.6461 71.5231 24.6214C71.5278 24.6126 71.535 24.5966 71.5424 24.5702C71.5576 24.5159 71.5695 24.4325 71.5695 24.312V12.624C71.5695 12.5185 71.5594 12.4483 71.5476 12.4053C71.5426 12.3867 71.5381 12.3764 71.5359 12.3719C71.5333 12.3692 71.5308 12.3664 71.5283 12.3636ZM71.8014 24.912C71.6894 25.008 71.5134 25.072 71.2734 25.104L70.4814 25.176V27H76.1934V25.08L74.8254 25.008H74.8014V22.344C75.3614 22.264 75.9054 22.152 76.4334 22.008L79.1694 27H82.6734V25.08L81.2094 25.008L78.8574 20.784C80.0574 19.84 80.7614 18.552 80.9694 16.92L82.1214 16.872V14.928H77.1534V16.8L78.0654 16.848C78.3694 16.848 78.5214 16.984 78.5214 17.256C78.5214 17.352 78.4974 17.48 78.4494 17.64C78.2094 18.392 77.7614 19 77.1054 19.464C76.5508 19.8563 75.9163 20.1113 75.2015 20.2292C75.0709 20.2507 74.9375 20.2676 74.8014 20.28V9.88801H70.5294V11.88L71.3694 11.928C71.5934 11.944 71.7454 12 71.8254 12.096C71.9214 12.192 71.9694 12.368 71.9694 12.624V24.312C71.9694 24.6 71.9134 24.8 71.8014 24.912Z" fill="#151F2E"/>
<path fill-rule="evenodd" clip-rule="evenodd" d="M62.4938 24C61.9818 23.248 61.7258 22.192 61.7258 20.832C61.7258 18.096 62.6938 16.728 64.6298 16.728C64.9658 16.728 65.2858 16.784 65.5898 16.896C65.9098 16.992 66.0698 17.256 66.0698 17.688V18.84L68.2778 18.672V15.552C67.0618 14.896 65.7418 14.568 64.3178 14.568C62.9098 14.568 61.6378 15.104 60.5018 16.176C59.3818 17.232 58.8218 18.816 58.8218 20.928C58.8218 23.04 59.3098 24.64 60.2858 25.728C61.2778 26.8 62.6298 27.336 64.3418 27.336C66.0538 27.336 67.4778 26.872 68.6138 25.944L67.5818 24.096C67.4715 24.1764 67.3612 24.252 67.2505 24.323C66.4134 24.8597 65.5638 25.128 64.7018 25.128C63.7418 25.128 63.0058 24.752 62.4938 24ZM60.2275 15.885C61.4289 14.7513 62.7963 14.168 64.3179 14.168C65.8061 14.168 67.1916 14.5115 68.4678 15.2C68.5972 15.2698 68.6779 15.405 68.6779 15.552V18.672C68.6779 18.8811 68.5168 19.055 68.3082 19.0709L66.1002 19.2389C65.9892 19.2473 65.8797 19.2091 65.798 19.1334C65.7163 19.0577 65.6699 18.9514 65.6699 18.84V17.688C65.6699 17.5172 65.6377 17.4226 65.6078 17.3733C65.5835 17.3333 65.5485 17.3012 65.4749 17.2791C65.4671 17.2768 65.4593 17.2742 65.4516 17.2713C65.1935 17.1763 64.9205 17.128 64.6299 17.128C63.7685 17.128 63.175 17.4246 62.7784 17.9851C62.3639 18.5709 62.1259 19.499 62.1259 20.832C62.1259 22.1491 62.375 23.1146 62.8245 23.7749C63.2573 24.4105 63.8655 24.728 64.7019 24.728C65.5776 24.728 66.4569 24.4209 67.3463 23.7727C67.4388 23.7053 67.5557 23.6808 67.6675 23.7053C67.7794 23.7298 67.8753 23.801 67.9311 23.901L68.9631 25.749C69.0577 25.9183 69.0171 26.1311 68.8669 26.2538C67.6479 27.2496 66.1299 27.736 64.3419 27.736C62.5394 27.736 61.0731 27.1677 59.9923 25.9997L59.9881 25.9951C58.9222 24.8069 58.4219 23.0953 58.4219 20.928C58.4219 18.7481 59.001 17.0413 60.2275 15.885Z" fill="#151F2E"/>
<path fill-rule="evenodd" clip-rule="evenodd" d="M53.7981 21.024C53.7981 23.84 52.9261 25.248 51.1821 25.248C50.6381 25.248 50.1821 25.12 49.8141 24.864C48.9821 24.288 48.5661 22.872 48.5661 20.616C48.5661 19.4 48.7821 18.44 49.2141 17.736C49.6461 17.032 50.3181 16.68 51.2301 16.68C52.1581 16.68 52.8141 17.048 53.1981 17.784C53.5981 18.52 53.7981 19.6 53.7981 21.024ZM46.1901 17.88C45.8381 18.744 45.6621 19.768 45.6621 20.952C45.6621 23.064 46.1341 24.664 47.0781 25.752C48.0221 26.824 49.3261 27.36 50.9901 27.36C52.6701 27.36 54.0461 26.792 55.1181 25.656C56.1901 24.52 56.7261 22.848 56.7261 20.64C56.7261 19.584 56.5901 18.672 56.3181 17.904C56.0621 17.12 55.7421 16.528 55.3581 16.128C54.9901 15.712 54.4701 15.352 53.7981 15.048C53.1421 14.728 52.3341 14.568 51.3741 14.568C49.9981 14.568 48.7421 15 47.6061 15.864C47.0141 16.328 46.5421 17 46.1901 17.88ZM45.8193 17.7302C45.4436 18.6529 45.2622 19.7301 45.2622 20.952C45.2622 23.1165 45.7452 24.826 46.7761 26.0142L46.778 26.0164C47.8107 27.1891 49.2322 27.76 50.9902 27.76C52.771 27.76 54.2554 27.1531 55.4091 25.9305C56.5757 24.6944 57.1262 22.9078 57.1262 20.64C57.1262 19.5533 56.9867 18.5956 56.6969 17.7751C56.4319 16.9652 56.0898 16.3151 55.6524 15.8569C55.2384 15.3911 54.6702 15.0041 53.9683 14.6859C53.2443 14.334 52.3742 14.168 51.3742 14.168C49.9073 14.168 48.5669 14.6308 47.3641 15.5456L47.3595 15.5492C46.6996 16.0664 46.1907 16.8021 45.8193 17.7302ZM52.8436 17.969C52.6836 17.6625 52.4758 17.447 52.2225 17.3049C51.9667 17.1614 51.6415 17.08 51.2302 17.08C50.44 17.08 49.9058 17.3738 49.5551 17.9452C49.1759 18.5633 48.9662 19.4412 48.9662 20.616C48.9662 21.7237 49.0688 22.5998 49.262 23.2573C49.4557 23.9165 49.7288 24.3184 50.0419 24.5351C50.3296 24.7353 50.7022 24.848 51.1822 24.848C51.9246 24.848 52.4456 24.5603 52.8041 23.9814C53.1823 23.3709 53.3982 22.4037 53.3982 21.024C53.3982 19.6259 53.1999 18.6247 52.8468 17.975L52.8436 17.969Z" fill="#151F2E"/>
<path fill-rule="evenodd" clip-rule="evenodd" d="M31.7285 25.056V27H38.4485V24.96L36.1445 24.888V21.408H38.1845C40.0565 21.408 41.5605 20.944 42.6965 20.016C43.8325 19.072 44.4005 17.76 44.4005 16.08C44.4005 14.4 43.8965 13.144 42.8885 12.312C41.8965 11.464 40.5045 11.04 38.7125 11.04H31.8485V13.08L33.2165 13.152V24.312C33.2165 24.712 32.9845 24.936 32.5205 24.984L31.7285 25.056ZM32.4818 24.5859L31.6924 24.6576C31.4864 24.6764 31.3286 24.8491 31.3286 25.056V27C31.3286 27.2209 31.5077 27.4 31.7286 27.4H38.4486C38.6695 27.4 38.8486 27.2209 38.8486 27V24.96C38.8486 24.744 38.6771 24.567 38.4611 24.5602L36.5446 24.5003V21.808H38.1846C40.1229 21.808 41.7244 21.3267 42.9497 20.3258L42.9523 20.3237C44.1929 19.2927 44.8006 17.8606 44.8006 16.08C44.8006 14.3188 44.2692 12.9344 43.1459 12.0057C42.0586 11.0776 40.5629 10.64 38.7126 10.64H31.8486C31.6277 10.64 31.4486 10.8191 31.4486 11.04V13.08C31.4486 13.2928 31.6151 13.4683 31.8276 13.4795L32.8166 13.5315V24.312C32.8166 24.4313 32.7848 24.473 32.7648 24.4922C32.7364 24.5196 32.6616 24.5669 32.4818 24.5859ZM37.8725 19.08H36.1445V13.368H37.6085C38.9205 13.368 39.8725 13.56 40.4645 13.944C41.0725 14.312 41.3765 15.072 41.3765 16.224C41.3765 18.128 40.2085 19.08 37.8725 19.08ZM36.5446 13.768H37.6086C38.9 13.768 39.7549 13.9604 40.2469 14.2796L40.2575 14.2862C40.6846 14.5447 40.9766 15.1214 40.9766 16.224C40.9766 17.0903 40.7149 17.6753 40.2479 18.056C39.7653 18.4493 38.9965 18.68 37.8726 18.68H36.5446V13.768Z" fill="#151F2E"/>
</svg>
