<svg width="112" height="112" viewBox="0 0 112 112" fill="none" xmlns="http://www.w3.org/2000/svg">
<path d="M86.8391 10.5C86.9311 10.5002 86.9466 10.5124 87.0233 10.5572C87.2428 10.9742 87.3336 11.489 87.4787 11.9403L88.5522 15.2605C90.3701 20.7905 91.9949 26.3837 93.8135 31.9158C95.2791 36.4392 96.9109 40.9018 98.7088 45.3036C99.3533 46.8737 99.9903 48.4562 100.668 50.0111C101.431 51.7594 102.241 53.4847 102.969 55.2479C104.3 58.468 105.81 61.6298 107.321 64.7693C107.657 65.4678 108.033 66.1471 108.363 66.8478C108.417 66.9612 108.523 67.1691 108.495 67.2914C108.205 68.5739 96.3079 79.4305 94.4343 81.0561C93.4687 81.894 92.475 82.6973 91.4933 83.5159C90.171 84.6185 88.8256 85.7634 87.4076 86.7403C87.1609 86.9102 86.8877 87.0894 86.599 87.1747C86.2148 87.288 85.6987 87.2807 85.2946 87.3082C82.9333 87.4695 80.5014 87.0875 78.1764 86.7156C74.6651 86.1487 71.1764 85.4661 67.7104 84.6678C65.9365 84.2722 64.1788 83.79 62.3923 83.451C60.9957 84.9606 59.4238 86.3287 57.9186 87.7276C54.5196 90.8866 51.051 93.9736 47.2571 96.652C46.7322 97.0225 46.1309 97.581 45.5166 97.7808C44.8973 97.9822 44.1897 98.0343 43.5459 98.1198L39.8188 98.5867C34.8847 99.2392 29.9556 99.7999 25.0442 100.623C24.1719 100.848 23.1859 100.914 22.2922 101.063C20.945 101.287 19.5462 101.639 18.1825 101.698L18.1883 101.651L18.0626 101.692C17.6665 100.999 16.8469 95.6596 16.6182 94.3865L15.7154 89.6217C14.8875 85.2582 14.0172 80.9032 13.1048 76.5566C12.8978 75.5793 12.728 74.5933 12.5064 73.6195C11.7506 70.157 10.8933 66.7199 9.93459 63.3082C8.97582 59.8964 7.91721 56.516 6.75877 53.1668C6.21681 51.6074 5.63374 50.0636 5.00956 48.5352C4.52392 47.3745 3.8467 45.9688 3.5 44.7874C3.87631 44.1442 4.20201 43.474 4.58873 42.8346C6.41073 39.8223 8.65271 36.8715 11.5467 34.8135C12.196 34.3518 13.0451 33.603 13.8003 33.37C14.6615 33.1042 15.7903 33.1637 16.6907 33.1237C21.7519 32.8991 26.9464 32.9342 31.9508 33.7857C35.043 31.0359 38.1821 28.3408 41.3682 25.7003C42.7492 24.5574 44.0765 23.2786 45.5768 22.2943C46.3469 22.3242 47.1158 22.4812 47.8738 22.613C49.0754 22.8218 50.2763 23.0487 51.4858 23.2079C55.6991 23.763 59.9639 24.1615 64.1991 24.5079C66.4079 23.3089 68.5768 21.977 70.6981 20.6287C71.5227 20.1046 72.3258 19.5472 73.1563 19.0323L83.6765 12.4291C84.7221 11.772 85.8 11.1677 86.8391 10.5Z" fill="#BDC2DB"/>
<path fill-rule="evenodd" clip-rule="evenodd" d="M63.5561 25.616C63.4351 25.6002 63.3183 25.585 63.2101 25.5757C63.2339 25.651 63.2582 25.7272 63.2829 25.804C63.4826 26.4276 63.6965 27.0954 63.6832 27.7427C63.6226 27.8513 63.6157 27.8549 63.5029 27.9082L63.3718 27.8411C63.0819 27.4361 62.9592 26.7524 62.85 26.1441C62.8061 25.8999 62.7645 25.6677 62.7151 25.4707C61.2882 25.3264 59.8595 25.2025 58.4308 25.0786C56.4729 24.9088 54.515 24.7391 52.5615 24.5166C52.5791 25.7403 52.4531 26.4464 51.7547 27.478C52.1144 28.31 52.2548 29.0439 52.4111 29.8609C52.4487 30.0574 52.4873 30.2588 52.53 30.4675C52.5577 30.6026 52.5907 30.7419 52.6242 30.8831L52.6242 30.8832C52.7105 31.2469 52.7998 31.6237 52.8089 31.9775C52.8124 32.1171 52.8079 32.1303 52.7165 32.2264C52.5668 32.2425 52.4316 32.1899 52.2965 32.1373C52.18 32.092 52.0636 32.0467 51.9381 32.0454C51.8595 32.0445 51.8469 32.058 51.8123 32.0951C51.8028 32.1054 51.7916 32.1174 51.7769 32.1314C51.7265 32.5681 51.8628 32.9099 51.9997 33.2531C52.0995 33.5034 52.1997 33.7544 52.2279 34.0437C52.251 34.2799 52.2459 34.5194 52.2408 34.7592C52.2359 34.9872 52.2311 35.2156 52.2504 35.4422C52.2513 35.4533 52.2523 35.4651 52.2533 35.4774C52.2555 35.505 52.258 35.5357 52.2606 35.5689L52.2609 35.5723V35.5727L52.2609 35.5729C52.3023 36.0961 52.394 37.2549 52.6834 37.4973C52.6981 37.4872 52.7169 37.4758 52.7376 37.4633C52.8119 37.4185 52.9093 37.3597 52.9167 37.2961C52.9281 37.198 52.9059 37.092 52.884 36.9872C52.8706 36.9234 52.8573 36.86 52.8518 36.7991C52.8415 36.686 52.8439 36.5176 52.8466 36.3282V36.3281C52.8533 35.8567 52.862 35.2547 52.6808 35.0476C52.6704 35.0356 52.66 35.0239 52.6499 35.0124C52.5455 34.894 52.4605 34.7975 52.4196 34.6369L52.4426 34.5425L52.6117 34.4698C52.6806 34.2555 52.6388 34.008 52.5962 33.7561C52.5372 33.4065 52.4767 33.0483 52.7081 32.758L52.8064 32.75C53.0299 33.0137 53.3456 34.5569 53.3775 34.9266C53.4242 35.4687 53.4223 36.0737 53.3782 36.6157C53.3731 36.6787 53.3654 36.7431 53.3575 36.8081L53.3575 36.8083C53.3385 36.9652 53.3192 37.1256 53.3359 37.2775C53.3518 37.4226 53.3908 37.5607 53.4301 37.6997C53.4758 37.861 53.5217 38.0235 53.5322 38.1995C53.5467 38.4442 53.5392 38.6917 53.5317 38.9392C53.5222 39.2495 53.5128 39.56 53.5468 39.8652C53.5646 40.0243 53.6016 40.1824 53.6386 40.3406C53.686 40.5431 53.7335 40.7455 53.7403 40.9497C53.7573 41.454 53.6927 41.9963 53.6212 42.4954C53.3848 44.1432 52.8497 45.1007 51.9002 46.4271C51.8732 46.4648 51.8463 46.5025 51.8194 46.5402C51.4741 47.0242 51.1351 47.4995 50.6711 47.8821C50.3039 48.1851 49.9188 48.4718 49.5347 48.7579L49.5339 48.7585L49.5333 48.759C49.3291 48.9111 49.1251 49.063 48.9241 49.2171C48.7664 49.3381 48.6095 49.4607 48.4526 49.5834C47.9181 50.0012 47.3827 50.4198 46.8056 50.7771C46.508 50.9613 46.1933 51.1075 45.878 51.2539C45.489 51.4346 45.0989 51.6158 44.7386 51.8696C44.5551 51.9988 44.3144 52.2444 44.0545 52.5097C43.5681 53.0062 43.0141 53.5716 42.6404 53.5721C42.5842 53.5722 42.5357 53.5581 42.4844 53.5433C42.4755 53.5407 42.4665 53.5381 42.4574 53.5356C42.4189 53.3691 42.4756 53.2195 42.5349 53.0629C42.5437 53.0398 42.5525 53.0165 42.5611 52.9929C43.1671 52.5472 43.6982 52.0818 44.2228 51.5438C44.2453 51.5443 44.2684 51.545 44.2919 51.5458C44.4379 51.5504 44.5986 51.5555 44.7329 51.5097C45.0097 51.4155 45.295 51.2151 45.5566 51.0313C45.6371 50.9747 45.7154 50.9198 45.7905 50.8699C45.9787 50.7451 46.1709 50.6219 46.3638 50.4983C46.8055 50.2153 47.2511 49.9298 47.6612 49.6159C48.0203 49.3411 48.3631 49.0428 48.7062 48.7442L48.7064 48.744C49.0169 48.4738 49.3276 48.2033 49.6511 47.9497C49.7078 47.8248 49.7373 47.7245 49.7567 47.5887C49.9115 47.514 50.0681 47.4994 50.2344 47.4839L50.2346 47.4839L50.249 47.4826C50.267 47.4809 50.2851 47.4792 50.3033 47.4774C50.7243 47.0786 51.1308 46.6091 51.4306 46.1113C51.4865 46.0186 51.5353 45.9202 51.5841 45.8218L51.5841 45.8216L51.5846 45.8207C51.6528 45.6832 51.721 45.5454 51.8088 45.4225C51.8781 45.3252 51.9572 45.2453 52.0352 45.1665C52.1568 45.0437 52.2755 44.9238 52.3497 44.7456C52.5351 44.3006 53.0647 42.9287 53.0317 42.4923C53.0248 42.4017 52.9818 42.2977 52.9443 42.207L52.9441 42.2066C52.9364 42.188 52.9289 42.1699 52.922 42.1526L52.8976 42.0925C52.949 42.0099 53.0016 41.9541 53.0735 41.8886C53.0979 41.74 53.1158 41.5899 53.1337 41.4399L53.1339 41.4384L53.1339 41.4382L53.1341 41.4374C53.1581 41.2363 53.1821 41.0353 53.2214 40.8378C53.1998 40.8074 53.1769 40.7769 53.1537 40.746C53.0427 40.5984 52.9257 40.4428 52.925 40.2577C52.9791 40.1436 53.0439 40.0703 53.1301 39.9787C53.1393 39.6754 53.1019 39.375 53.0642 39.0727C53.0265 38.7699 52.9886 38.4652 52.997 38.1537C52.971 38.1178 52.9445 38.0781 52.9174 38.0375C52.8581 37.9487 52.7959 37.8555 52.7291 37.7868L52.7257 37.8165C52.6992 38.0522 52.667 38.3374 52.4735 38.4972C52.4224 38.5394 52.3876 38.5321 52.3385 38.5217C52.3245 38.5188 52.3093 38.5156 52.2923 38.5133C52.0125 38.2815 51.8035 36.5449 51.7652 36.1349C51.7358 35.8212 51.7295 35.5068 51.7231 35.1926V35.1924C51.7177 34.9228 51.7123 34.6534 51.6923 34.3844C51.6319 33.5719 51.4968 32.5553 51.313 31.7634C51.1769 31.177 50.985 30.5987 50.7932 30.0207C50.5758 29.3657 50.3585 28.711 50.2225 28.0448C49.0328 27.5025 48.1636 26.7728 47.6966 25.5199C47.4784 24.9345 47.4133 24.367 47.4544 23.7436L45.9634 23.5171L39.375 29.1078C38.697 29.6743 38.0127 30.2345 37.3283 30.7948L37.328 30.7951C36.2783 31.6544 35.2283 32.514 34.2008 33.3968C34.2194 33.5426 34.254 33.7401 34.2936 33.9659C34.4402 34.8019 34.6546 36.025 34.3741 36.4403L34.3594 36.4475C34.2415 36.505 34.2022 36.5242 34.0624 36.4703C33.9148 36.4134 33.85 36.2799 33.8042 36.1392C33.6492 35.6635 33.6388 35.0464 33.6292 34.4795C33.6258 34.2763 33.6225 34.0795 33.6126 33.898C33.2848 34.1345 32.986 34.3974 32.6861 34.6613C32.5312 34.7975 32.376 34.9341 32.2164 35.0674C27.3379 34.2688 22.4123 34.1929 17.4833 34.3554C17.2241 34.364 16.9507 34.363 16.6717 34.3621C15.9544 34.3596 15.1999 34.357 14.5537 34.5151C13.9574 34.6609 13.4133 35.0554 12.9142 35.4171C12.8698 35.4492 12.8259 35.4811 12.7823 35.5125C9.95884 37.5462 7.59526 40.1054 5.50147 42.8702C5.42802 42.9672 5.35405 43.0644 5.28004 43.1616L5.27981 43.1619C4.8521 43.7238 4.42 44.2914 4.04126 44.8833C4.15155 45.0681 4.26288 45.2528 4.37425 45.4374C4.79878 46.1413 5.22426 46.8468 5.59821 47.5778C7.56954 51.4307 8.95056 55.633 10.2448 59.7533C11.1716 62.7725 12.025 65.8124 12.8048 68.8729C13.5845 71.9334 14.2898 75.011 14.9207 78.1057C15.0457 78.6909 15.1746 79.2755 15.3035 79.8601L15.3036 79.8605C15.5495 80.9763 15.7955 82.0922 16.0151 83.2128L18.325 95.4194C18.4327 95.9929 18.5342 96.5677 18.6358 97.1425L18.6358 97.1427L18.6359 97.1432C18.8008 98.0772 18.9658 99.0113 19.1575 99.9399C19.7007 99.8416 20.242 99.7329 20.7832 99.6242L20.7834 99.6242C21.3352 99.5134 21.887 99.4026 22.4411 99.3028C24.6975 98.9184 26.9566 98.551 29.2185 98.2005C30.3853 98.0236 31.5577 97.8755 32.7298 97.7274L32.7325 97.727L32.7337 97.7268C33.4438 97.6371 34.1538 97.5473 34.8624 97.4512C35.0014 97.4324 35.1404 97.4135 35.2794 97.3946L35.6597 97.3427C38.5795 96.9448 41.5206 96.5439 44.46 96.3784C44.4561 96.3398 44.4523 96.3013 44.4485 96.2628L44.4484 96.2611L44.4484 96.2609C44.4271 96.045 44.4058 95.8292 44.367 95.6155C43.3518 95.5077 42.59 95.1085 41.9512 94.3095C41.2964 93.4903 40.8523 92.32 40.9925 91.2624C41.0805 90.5981 41.4018 89.9132 41.961 89.5201C41.9879 89.501 42.0153 89.4828 42.0432 89.4653C42.0711 89.4477 42.0994 89.4308 42.1281 89.4147C42.1439 89.4058 42.1599 89.3972 42.1761 89.3887C42.1891 89.3819 42.2023 89.3752 42.2155 89.3686C42.245 89.3541 42.275 89.3402 42.3052 89.3272C42.3156 89.3227 42.326 89.3183 42.3365 89.314C42.3405 89.3124 42.3445 89.3108 42.3485 89.3092C42.3557 89.3062 42.363 89.3034 42.3702 89.3006C42.3791 89.2971 42.3879 89.2937 42.3968 89.2904C42.4277 89.279 42.4589 89.2683 42.4903 89.2584C42.5218 89.2485 42.5534 89.2395 42.5853 89.2313C42.6172 89.223 42.6493 89.2156 42.6816 89.2091C42.7139 89.2025 42.7463 89.1968 42.7789 89.1919C42.7853 89.191 42.7918 89.19 42.7983 89.1891C42.8023 89.1886 42.8063 89.188 42.8104 89.1875C42.8148 89.1869 42.8193 89.1863 42.8238 89.1858C42.8415 89.1835 42.8592 89.1816 42.8769 89.1798C42.9097 89.1766 42.9425 89.1742 42.9754 89.1728C42.9845 89.1723 42.9935 89.172 43.0025 89.1717C43.0133 89.1714 43.024 89.1712 43.0348 89.171C43.048 89.1708 43.0611 89.1708 43.0742 89.1709C43.1072 89.171 43.1401 89.172 43.173 89.174C43.2059 89.1759 43.2387 89.1787 43.2715 89.1823C43.3042 89.1859 43.3368 89.1904 43.3693 89.1956C43.4019 89.2009 43.4342 89.2071 43.4664 89.214C44.2139 89.3787 44.8003 89.942 45.2572 90.524C45.0656 89.613 44.8691 88.703 44.6678 87.7941C44.6345 87.6428 44.5966 87.4877 44.5582 87.3306C44.437 86.8342 44.3106 86.3165 44.305 85.8277C44.3029 85.6458 44.3409 85.4754 44.4482 85.3259C44.4905 85.2668 44.4986 85.2617 44.5389 85.2362C44.5481 85.2304 44.559 85.2235 44.5724 85.2147C44.578 85.2153 44.5834 85.2158 44.5885 85.2164L44.5916 85.2167C44.6917 85.2269 44.7131 85.2291 44.7841 85.3239C45.0744 85.7111 45.1896 86.7425 45.2798 87.5488C45.3148 87.8623 45.346 88.1418 45.3823 88.3362C45.4524 88.7122 45.5378 89.0852 45.6231 89.4581C45.7177 89.8715 45.8123 90.2849 45.8861 90.7023C46.0804 91.8012 46.2773 92.8872 46.4919 93.9831C46.5266 94.1605 46.5542 94.3412 46.5819 94.5224L46.5819 94.5225C46.6259 94.81 46.6699 95.0982 46.7427 95.3748C46.8525 95.2973 46.9636 95.2191 47.0756 95.1404C48.0359 94.4653 49.0602 93.7451 49.8835 92.9403C49.8165 92.8755 49.7341 92.7977 49.641 92.7101C49.0075 92.1129 47.8852 91.055 47.8292 90.4597C47.8362 90.446 47.8416 90.433 47.8467 90.4208C47.8642 90.379 47.8774 90.3474 47.9338 90.3331C48.308 90.2383 48.9367 90.6931 49.2485 90.9186L49.2486 90.9187L49.2742 90.9372C49.7635 91.2972 50.2366 91.6772 50.6935 92.0773C50.4274 91.3786 50.0293 90.7573 49.5671 90.1719C49.3962 89.9555 49.1205 89.6717 48.8233 89.3659L48.8228 89.3654C48.2611 88.7874 47.6232 88.131 47.4728 87.7028C47.4263 87.5707 47.4455 87.4716 47.4756 87.3414C47.4864 87.3286 47.4959 87.3159 47.505 87.3037C47.5364 87.2615 47.5629 87.2259 47.6248 87.218C48.1153 87.1558 49.1416 88.1057 49.6341 88.5615C49.6831 88.6068 49.7268 88.6473 49.7642 88.6814C49.9059 88.8114 50.0457 88.9435 50.1836 89.0777C49.858 88.4262 49.6419 87.7216 49.4253 87.0155C49.2456 86.4297 49.0656 85.8429 48.8226 85.2848C48.052 85.2333 47.3367 84.7381 46.8334 84.1714C46.1676 83.4218 45.7466 82.3588 45.8144 81.3502C45.8593 80.6833 46.1001 79.9845 46.6072 79.5294C47.0146 79.1639 47.5367 78.956 48.0874 78.9997C48.7513 79.0523 49.332 79.4545 49.7465 79.9565C50.4375 80.7934 50.819 81.9981 50.7025 83.0798C50.622 83.8276 50.2989 84.4948 49.7102 84.9698C49.627 85.0363 49.5419 85.1004 49.4549 85.162C49.5153 85.3277 49.576 85.4934 49.6367 85.6591C49.8926 86.3571 50.1487 87.0559 50.379 87.7621C50.4409 87.9518 50.4979 88.1465 50.5551 88.342L50.5553 88.3428C50.6732 88.7455 50.7922 89.1521 50.9572 89.5272C50.9396 89.275 50.8909 88.9359 50.8361 88.5542L50.836 88.5541C50.6624 87.3452 50.4276 85.71 50.9252 85.0595C51.0146 84.9427 51.1199 84.9008 51.262 84.879C51.4004 84.9322 51.451 84.9626 51.5131 85.1024C51.659 85.4307 51.6643 86.1344 51.6685 86.7025V86.7027C51.6702 86.9214 51.6717 87.1201 51.681 87.2694C51.6867 87.3616 51.6924 87.4547 51.6981 87.5485L51.6982 87.5499C51.7661 88.6683 51.8403 89.889 52.1533 90.949L52.1737 90.8762C52.2906 90.4519 52.3625 89.9422 52.4358 89.4226C52.5486 88.6234 52.6646 87.8008 52.9526 87.2299C53.055 87.1768 53.0915 87.1783 53.197 87.1828C53.2052 87.1831 53.2138 87.1835 53.2228 87.1839C53.3891 87.2774 53.455 87.3819 53.5059 87.5604C53.6467 88.055 53.5861 88.6516 53.5285 89.2191C53.502 89.4793 53.4762 89.7334 53.4708 89.9687L53.5503 89.8994C54.3981 89.1596 55.3066 88.3668 56.061 87.5404C56.0153 87.4745 55.9679 87.4085 55.9201 87.3421C55.7934 87.1658 55.6647 86.987 55.5636 86.8004C55.3892 86.5615 55.2286 86.313 55.0679 86.0644L55.0678 86.0641C54.9636 85.903 54.8595 85.7418 54.7516 85.5833C53.8417 84.2471 53.3959 83.5431 52.8009 82.0019C52.5918 81.4602 52.5465 80.9268 52.512 80.3522C52.3923 78.3594 52.8436 77.34 53.6582 75.5477C54.1228 74.5257 54.7822 73.2005 55.4756 72.3225C55.7228 72.0095 56.0256 71.731 56.3199 71.4602C56.3462 71.436 56.3725 71.4118 56.3986 71.3877C56.424 71.3643 56.4498 71.3402 56.4762 71.3156L56.4766 71.3151C56.6875 71.118 56.9286 70.8926 57.1986 70.8065C57.3693 70.752 57.4952 70.7759 57.6512 70.8521C57.6577 70.8688 57.6638 70.8834 57.6693 70.8967C57.695 70.9584 57.7085 70.9908 57.6951 71.077C57.6356 71.4629 57.2881 71.645 56.954 71.8203C56.8143 71.8935 56.6769 71.9655 56.5638 72.0507C56.4137 72.1662 56.2725 72.2916 56.1403 72.4272C56.0081 72.5627 55.8863 72.707 55.7747 72.86C55.6201 73.0738 55.4961 73.3129 55.3728 73.5505C55.3117 73.6685 55.2507 73.7861 55.1862 73.9001C55.1579 73.9501 55.1296 74.0002 55.1012 74.0503L55.0477 74.1446C54.5231 75.0698 53.9865 76.0164 53.6125 77.0106C53.379 77.6316 53.1617 78.3821 53.0742 79.0393C52.9437 80.0175 53.0106 81.294 53.6248 82.0947L53.4504 82.6818C53.5187 82.7324 53.5844 82.7838 53.651 82.8362C54.0293 83.1335 54.7994 84.4167 54.8703 84.8764C54.8719 84.8868 54.8732 84.8973 54.8745 84.9077C54.8754 84.9143 54.8762 84.9209 54.8771 84.9274L55.0793 85.0753C55.0858 85.0932 55.092 85.1112 55.0989 85.1291C55.1968 85.3853 55.4139 85.6078 55.6291 85.8284C55.7692 85.972 55.9085 86.1147 56.0136 86.2655C56.07 86.3463 56.1204 86.4475 56.1724 86.5517C56.281 86.7694 56.3961 87.0004 56.5857 87.0867C56.6827 87.0428 56.7295 87.0202 56.7641 86.9125C56.8634 86.604 56.3819 85.8215 56.1898 85.5499C55.9969 85.2772 55.7634 85.0316 55.5298 84.7859C55.3367 84.5828 55.1436 84.3796 54.9732 84.161C54.568 83.6408 53.7346 81.8395 53.6624 81.2243C53.6274 80.9263 53.6264 80.6525 53.6254 80.3864C53.6236 79.8992 53.6219 79.4379 53.412 78.9016L53.4131 78.8967L53.4144 78.8911C53.4154 78.887 53.4164 78.8829 53.4173 78.8788C53.5084 78.464 53.6857 78.0783 53.8637 77.6909C54.0044 77.3847 54.1457 77.0774 54.2451 76.754C54.8021 74.9431 55.9528 73.2683 57.3492 72.0048L57.3754 71.981L57.4248 71.9361C57.6721 71.711 57.9207 71.4847 58.2191 71.3299C58.2377 71.3203 58.2569 71.3106 58.2766 71.3007C58.3 71.289 58.3241 71.2771 58.3486 71.265C58.5107 71.1851 58.6899 71.0968 58.8123 70.9871C58.923 70.8878 58.9947 70.7604 59.0667 70.6324C59.1521 70.4806 59.238 70.328 59.3901 70.2205C59.5022 70.1842 59.5516 70.1872 59.66 70.2234C59.7554 70.2553 59.8153 70.269 59.9182 70.2605C60.4459 69.8914 61.114 69.2047 61.511 68.7033C61.9078 68.2021 62.9616 65.6351 62.8425 65.1145C62.8314 65.0655 62.8133 65.0169 62.7952 64.9682C62.7697 64.8998 62.7441 64.8309 62.737 64.7593C62.7198 64.5843 62.7946 64.4096 62.8709 64.2316C62.9445 64.0597 63.0195 63.8846 63.0142 63.7032L63.0132 63.6665V63.6664C63.008 63.4895 63.0029 63.3122 62.9876 63.1359C62.8824 61.9255 62.369 60.5798 61.4124 59.7871C61.0807 59.5123 60.6872 59.298 60.3047 59.0897C60.2311 59.0496 60.1577 59.0097 60.0854 58.9696C60.0285 58.9381 59.9716 58.9063 59.9144 58.8743C59.5446 58.6676 59.1677 58.4568 58.7692 58.3188C57.5301 57.89 55.9983 58.0312 54.7232 58.2091L54.6423 58.2204C53.9299 58.3195 53.1987 58.4212 52.5161 58.649C52.1202 58.7812 51.7219 58.9017 51.3239 59.0221C50.9706 59.129 50.6175 59.2359 50.2664 59.3507C50.1382 59.3927 50.0115 59.4468 49.8844 59.5011C49.6417 59.6047 49.3976 59.709 49.1387 59.7304C48.8343 59.7557 48.7914 59.8053 48.716 59.8925C48.6721 59.9433 48.6172 60.0068 48.4932 60.0856C47.9544 60.4283 45.4452 60.8753 44.7253 60.9039C44.4773 60.9138 44.2274 60.8636 43.9834 60.8147C43.9495 60.8079 43.9157 60.8011 43.8821 60.7945L43.596 60.4375C43.4541 60.407 43.3161 60.3856 43.1725 60.3643C42.3324 60.2403 41.47 59.4831 40.981 58.8199C40.3286 57.9349 40.1424 56.424 40.6671 55.4138C40.7334 55.2861 40.8227 55.1602 40.9132 55.0329C41.0804 54.7973 41.2514 54.5566 41.2868 54.2892C41.2884 54.2775 41.2898 54.2665 41.2911 54.2558L41.2912 54.2556C41.301 54.1783 41.3079 54.1245 41.3419 54.0424C41.4027 53.8954 41.5957 53.8227 41.7373 53.7794C41.9101 53.7266 42.001 53.7508 42.157 53.8337C42.2994 54.1584 41.9119 54.6211 41.5893 55.0063C41.4556 55.1659 41.333 55.3123 41.2639 55.43C41.1417 55.6384 41.0754 55.8753 41.0309 56.1115C40.8787 56.9208 40.915 57.7707 41.4033 58.462C41.7916 59.0115 42.3276 59.3699 42.9098 59.6903C44.8866 60.7784 46.4855 60.1391 48.2557 59.4314L48.2559 59.4313C48.6544 59.272 49.0616 59.1092 49.4838 58.9618C49.8361 58.8389 50.1983 58.7468 50.5604 58.6548C50.7744 58.6004 50.9884 58.546 51.2003 58.4853C51.4513 58.4133 51.6984 58.328 51.9454 58.2427L51.9456 58.2427L51.9464 58.2424C52.2184 58.1484 52.4905 58.0545 52.7677 57.9783C53.4426 57.7926 55.4887 57.3814 56.2104 57.3391C56.5747 57.3178 56.9311 57.3603 57.29 57.4191C58.5689 57.6284 60.4391 58.2295 61.4698 59.0489C61.9466 59.4279 62.3787 59.9703 62.7297 60.4648C63.7056 61.8398 63.6579 64.0452 63.3764 65.6364C63.1141 67.1196 62.446 68.8048 61.3101 69.83C60.7536 70.3322 60.1014 70.7671 59.459 71.1954C59.1635 71.3925 58.87 71.5882 58.5888 71.7885C56.7192 73.1199 55.5545 75.0479 54.7156 77.1344C54.6732 77.2397 54.6288 77.3442 54.5844 77.4486L54.5842 77.4491C54.4294 77.8128 54.2749 78.1759 54.2117 78.5693C54.0175 79.7805 54.2268 82.025 54.9351 83.0639C55.0632 83.2518 55.2251 83.4118 55.3868 83.5716C55.5461 83.729 55.7052 83.8862 55.8315 84.0696C56.0677 84.4127 56.2849 84.7652 56.5022 85.1178C56.772 85.5555 57.042 85.9936 57.3487 86.4145C59.0237 85.1263 60.499 83.5495 61.8724 81.9533C62.7209 82.1206 63.563 82.3293 64.405 82.538L64.4059 82.5382C65.0522 82.6984 65.6986 82.8586 66.3477 83C70.3854 83.882 74.4381 84.688 78.506 85.4181C78.4498 85.22 78.3715 85.0101 78.2917 84.7963C78.1446 84.4017 77.9924 83.9937 77.9643 83.6204C77.9438 83.3484 77.9459 82.9985 78.1367 82.7835C78.1503 82.7805 78.1611 82.7775 78.1701 82.7751C78.2048 82.7655 78.214 82.763 78.2621 82.7872C78.6725 82.994 78.9897 84.5338 79.1377 85.2516L79.138 85.2532C79.1484 85.3038 79.158 85.3502 79.1667 85.3918C79.1733 85.4236 79.1795 85.4525 79.1851 85.4783C80.6763 85.7214 82.2016 85.9008 83.714 85.8907C83.8445 85.8898 83.9853 85.8912 84.133 85.8926C84.9141 85.9001 85.8845 85.9094 86.5089 85.6019C87.1681 85.2773 88.0737 84.4744 88.841 83.794L88.8413 83.7938L88.8416 83.7935L88.842 83.7932L88.8424 83.7928C89.1268 83.5406 89.3923 83.3052 89.6191 83.1174C92.4854 80.7514 95.2857 78.3097 98.0201 75.7923C101.044 72.9865 103.976 70.0523 106.876 67.1189C106.427 66.3359 106.04 65.5034 105.658 64.6813C105.595 64.5456 105.532 64.4102 105.469 64.2753C104.951 63.1695 104.452 62.0567 103.953 60.9439C103.63 60.2234 103.306 59.5029 102.978 58.7842C101.413 55.331 99.9112 51.8508 98.4716 48.3436C98.3229 47.9865 98.1736 47.6295 98.0243 47.2724L98.0242 47.2721C97.0924 45.0435 96.1589 42.8109 95.3487 40.5359C93.9918 36.6964 92.6961 32.8363 91.4616 28.9557L91.4164 28.8084C91.1453 27.9266 90.8732 27.0418 90.6391 26.1499C90.578 25.9173 90.5207 25.6841 90.4634 25.4511C90.3409 24.953 90.2185 24.4556 90.0602 23.9658L90.0513 23.9725C90.0453 23.977 90.0392 23.9815 90.0333 23.9861C89.3757 24.4928 88.5092 24.7859 87.6966 25.0608C87.5191 25.1208 87.3441 25.18 87.1745 25.2403C87.2224 25.3564 87.2815 25.4861 87.3445 25.6247C87.6085 26.205 87.9427 26.9398 87.8286 27.4681L87.7443 27.5218C87.7257 27.5132 87.7058 27.5068 87.6883 27.4962C87.3079 27.2671 87.0274 26.4013 86.8343 25.8053C86.7871 25.6596 86.7451 25.53 86.7082 25.4298C86.4955 25.4945 86.2873 25.5756 86.0794 25.6565C85.9772 25.6963 85.875 25.7361 85.7724 25.7739C85.7376 25.7867 85.6966 25.802 85.6502 25.8194C85.1157 26.0189 83.8795 26.4806 83.5438 26.3254C83.3383 25.9782 83.7454 24.9444 84.1431 23.9345C84.4593 23.1315 84.7695 22.3437 84.761 21.9283C84.7578 21.7735 84.7398 21.756 84.6385 21.6575L84.6349 21.654C84.3868 21.6121 84.1339 21.833 83.883 22.0522C83.6795 22.23 83.4772 22.4067 83.2799 22.4411C83.127 22.4677 83.0963 22.447 82.9832 22.3707L82.9684 22.3607C82.9029 22.2302 82.8998 22.1292 82.9182 21.9876C82.938 21.8361 82.9779 21.6851 83.0176 21.5347L83.0177 21.5345C83.0425 21.4406 83.0672 21.347 83.087 21.2536C83.1818 20.8059 83.2538 20.3502 83.3253 19.8973L83.3253 19.8969C83.3361 19.8285 83.3469 19.7602 83.3578 19.692C83.4183 19.312 83.4633 18.9274 83.5083 18.5425C83.5766 17.9583 83.6449 17.3736 83.7679 16.804C83.9255 16.788 84.0109 16.8344 84.1483 16.9183C84.6306 17.2127 85.0972 17.5955 85.5536 17.97L85.5538 17.9701C85.7616 18.1406 85.9673 18.3094 86.1715 18.4673C86.3767 18.626 86.5911 18.7813 86.8067 18.9374L86.8068 18.9375C87.2102 19.2296 87.6174 19.5245 87.9749 19.8496C88.1334 19.9938 88.2822 20.1412 88.337 20.3537C88.2529 20.5107 87.4077 20.8147 86.8071 21.0306C86.5725 21.115 86.3752 21.186 86.2752 21.2295C86.4908 21.37 86.751 21.5335 87.0345 21.7117C88.0713 22.3631 89.4193 23.2102 90.0345 23.8425C89.7685 23.117 89.5785 22.3644 89.3888 21.6125L89.3887 21.6124L89.3884 21.6112C89.2704 21.1438 89.1525 20.6766 89.0164 20.2164C88.8325 19.5945 88.6455 18.9742 88.4586 18.3542C87.8092 16.1998 87.161 14.0496 86.6479 11.8535C86.6043 11.8926 86.5607 11.9316 86.5158 11.9692C85.6133 12.7242 84.5216 13.395 83.473 14.0393C83.1422 14.2426 82.8157 14.4432 82.5008 14.6431L76.3071 18.5871C75.7889 18.9136 75.2752 19.247 74.7615 19.5804C74.1537 19.9748 73.546 20.3692 72.9309 20.7521C71.2844 21.7552 69.632 22.7486 67.9738 23.7323C67.7207 23.8835 67.4368 24.0633 67.1381 24.2526C66.346 24.7545 65.4498 25.3224 64.7464 25.5952C64.407 25.7269 63.9579 25.6684 63.5561 25.616ZM68.7389 26.6022C69.4165 26.8867 72.3296 28.88 72.9269 29.3941C73.094 29.5379 73.2868 29.7052 73.3007 29.9334C73.1477 30.0747 72.8632 30.1237 72.5403 30.1793C72.1722 30.2427 71.7541 30.3148 71.4242 30.542L71.3628 30.5848C71.9843 31.3423 72.9266 31.9875 73.7413 32.5454L73.7931 32.5809C73.9 32.6541 74.0307 32.7315 74.1681 32.813C74.4956 33.007 74.8619 33.2241 75.0384 33.4624C75.0861 33.527 75.0828 33.5415 75.0716 33.5899C75.0686 33.603 75.065 33.6187 75.0617 33.6385C74.5523 34.0543 73.8346 34.2884 73.1495 34.5118C72.8449 34.6111 72.5469 34.7083 72.2764 34.8185C72.321 34.931 72.3722 35.0503 72.4253 35.1741L72.4255 35.1745L72.4261 35.176L72.4265 35.1768L72.4266 35.1771C72.6656 35.7337 72.9439 36.3821 72.8478 36.9317L72.7667 37.021C72.5341 36.9327 72.4332 36.7227 72.3353 36.5033C72.1745 36.1428 72.0656 35.7404 71.9595 35.3481L71.9595 35.3479L71.9594 35.3477C71.9241 35.2172 71.8891 35.0877 71.8525 34.9612C71.7201 34.9611 71.5634 35.0069 71.4167 35.0498C71.3546 35.0679 71.2943 35.0855 71.2384 35.0989C71.0547 35.1429 70.8476 35.2003 70.6296 35.2607C70.0284 35.4272 69.3433 35.617 68.832 35.6146C68.8218 35.6067 68.8121 35.5993 68.8031 35.5924C68.7184 35.5279 68.6831 35.501 68.6816 35.3682C68.6789 35.1218 68.814 34.7936 68.9272 34.5187C68.9623 34.4336 68.9953 34.3535 69.0214 34.2826C69.0368 34.2407 69.0535 34.1954 69.0714 34.1471C69.3532 33.3853 69.9118 31.8753 69.8014 31.2306C69.7763 31.0832 69.758 31.0282 69.6375 30.9386C69.3583 30.9406 69.1096 31.1918 68.8635 31.4403C68.6734 31.6322 68.485 31.8225 68.2853 31.8951C68.1381 31.9488 68.1187 31.9385 67.9946 31.8728L67.9869 31.8687C67.9784 31.8499 67.9683 31.8317 67.9583 31.8134C67.9382 31.7769 67.9181 31.7404 67.9102 31.7C67.8794 31.5414 68.0936 30.6703 68.2558 30.0108C68.3297 29.7101 68.3929 29.4535 68.417 29.3283C68.5847 28.4592 68.6583 27.5727 68.7315 26.6913L68.7315 26.6911L68.7315 26.6908L68.7316 26.6906L68.7389 26.6022ZM64.0114 30.5322C63.9702 30.5257 63.9005 30.5265 63.8571 30.5262C63.844 30.6501 63.8427 30.7523 63.8687 30.8753C63.9693 31.3512 64.9581 35.1985 65.1057 35.4523C65.2281 35.533 65.3006 35.5329 65.4336 35.5326L65.4459 35.5326L65.4614 35.5326C65.5843 34.9973 64.5718 31.1807 64.231 30.6683C64.1696 30.576 64.122 30.5494 64.0114 30.5322ZM99.8281 58.2646C99.9067 58.2914 99.9624 58.326 100.032 58.3693L100.033 58.37C100.084 58.4796 100.118 58.5733 100.11 58.6967C100.096 58.9073 100.025 59.0675 99.8735 59.2118C99.8625 59.2024 99.8513 59.1931 99.84 59.1836C99.7806 59.134 99.7183 59.082 99.6748 59.0191C99.5938 58.9019 99.5513 58.7383 99.5772 58.5987C99.6069 58.4385 99.6914 58.3721 99.8074 58.281L99.8191 58.2717L99.8281 58.2646ZM40.6762 68.4128C40.7511 68.4335 40.8261 68.4545 40.8987 68.4814C41.1133 68.5605 41.2281 68.7393 41.3064 68.9275C41.4336 69.2331 41.4022 69.6056 41.2638 69.9012C41.1744 69.899 41.0912 69.8865 41.0038 69.8734L40.9791 69.8697C40.8647 69.7912 40.7845 69.7295 40.7182 69.6118C40.513 69.2477 40.5549 68.7918 40.6762 68.4128ZM73.7615 68.0167C73.6783 67.9146 73.5842 67.8827 73.4555 67.8716C73.4298 68.3325 74.3039 71.5126 74.574 71.8545L74.5806 71.863C74.6116 71.9023 74.6246 71.9187 74.6414 71.9255C74.6535 71.9304 74.6676 71.9304 74.6918 71.9304L74.7 71.9303C74.7076 71.9303 74.716 71.9304 74.7256 71.9306C74.804 71.9321 74.8644 71.9267 74.9405 71.912C74.9983 71.2844 74.1552 68.4992 73.7615 68.0167ZM101.003 58.8058C101.116 58.8204 101.158 58.8367 101.243 58.9143L101.248 59.0334C101.05 59.4152 100.583 59.749 100.184 60.0338C100.079 60.1094 99.9777 60.1816 99.8879 60.2502C99.9869 60.2884 100.134 60.3338 100.303 60.3859C100.83 60.5486 101.572 60.7773 101.735 61.0579L101.704 61.1496C101.58 61.2323 101.475 61.2357 101.338 61.2402C101.326 61.2406 101.315 61.241 101.304 61.2414C101.253 61.2272 101.201 61.213 101.149 61.1988C101.093 61.1837 101.037 61.1686 100.981 61.1534L100.979 61.1529C100.466 61.0144 99.9147 60.8658 99.4552 60.645C99.2906 60.5658 99.2214 60.4989 99.1637 60.326C99.2657 59.9771 100.239 59.3219 100.774 58.9617L100.774 58.9616C100.865 58.9001 100.944 58.8471 101.003 58.8058ZM71.8376 62.056C71.9274 62.0518 72.0007 62.0501 72.0896 62.0679C72.1753 62.0851 72.1886 62.1101 72.2275 62.1836L72.2306 62.1894C72.5836 62.8538 73.5181 65.9329 73.5871 66.6444C73.6022 66.7999 73.5613 66.9168 73.5017 67.0597C73.3658 67.0442 73.302 67.0267 73.1915 66.9493C72.9063 66.4066 71.7347 62.5213 71.8376 62.056ZM69.8622 53.1588L69.6859 53.1228C69.6666 53.2588 69.6568 53.3923 69.6789 53.5289C69.7951 54.2487 70.7063 57.9331 71.0334 58.4444C71.1253 58.5026 71.154 58.5179 71.266 58.5352C71.4643 57.9511 70.3786 53.982 70.003 53.3038C69.9674 53.2394 69.9222 53.1997 69.8622 53.1588ZM37.6429 55.1525C37.6637 55.1543 37.6859 55.1551 37.7086 55.1559C37.783 55.1586 37.8637 55.1614 37.921 55.1995C38.0617 55.293 38.1185 55.4838 38.1645 55.6383C38.1685 55.6517 38.1724 55.6648 38.1763 55.6776C38.4024 56.4217 38.765 58.3182 38.6626 59.0416C38.647 59.1517 38.5926 59.2422 38.5355 59.337L38.5295 59.3471C38.439 59.3409 38.3602 59.3231 38.2728 59.3034L38.2661 59.3019C38.1604 59.1925 38.1127 59.0776 38.06 58.941C37.7721 58.1967 37.4205 56.4458 37.4668 55.6586C37.4768 55.4875 37.5549 55.3299 37.6311 55.1763L37.6429 55.1525ZM39.16 62.7306L39.1346 62.7311C39.0929 62.8801 39.0733 63.0147 39.0958 63.1696C39.1935 63.842 39.8623 66.0852 40.1682 66.6762C40.2183 66.7729 40.2951 66.868 40.4003 66.9026C40.4231 66.91 40.4468 66.914 40.4705 66.9179C40.4825 66.9199 40.4946 66.9219 40.5064 66.9244C40.7624 66.2907 40.236 64.158 39.9702 63.5003C39.8732 63.2599 39.7123 62.9017 39.4736 62.776C39.3794 62.7265 39.2656 62.7286 39.161 62.7306L39.16 62.7306ZM75.9348 75.5842L76.1765 75.6346C76.2748 75.7152 76.3063 75.7883 76.3527 75.9046C76.6466 76.6417 77.5816 79.7538 77.6472 80.463C77.6602 80.6035 77.6161 80.7246 77.5637 80.8522C77.5554 80.8532 77.5471 80.8546 77.5388 80.856C77.5222 80.8588 77.5056 80.8617 77.4889 80.8612C77.3671 80.8581 77.3278 80.8121 77.2625 80.7142C76.8589 80.1101 76.0396 77.24 75.9205 76.4487C75.8759 76.1519 75.8813 75.8808 75.9348 75.5842ZM76.4428 66.095C76.3685 66.0042 76.2794 65.9898 76.1711 65.9772C75.9446 66.2576 75.8222 66.559 75.7005 66.8969C75.6792 66.8824 75.6581 66.8678 75.6372 66.8533C75.6183 66.84 75.5995 66.8268 75.5808 66.8136C75.3294 66.6365 75.0994 66.4745 74.7678 66.5291C74.754 66.5424 74.7417 66.5529 74.7309 66.5621C74.692 66.595 74.6724 66.6116 74.6727 66.6877C74.6736 66.9298 74.8644 67.1068 75.0392 67.2689C75.0842 67.3107 75.1281 67.3514 75.1674 67.392C75.0477 67.6321 74.9019 67.9509 75.006 68.2294C75.0299 68.2934 75.0454 68.3161 75.0747 68.359C75.0799 68.3667 75.0856 68.375 75.0918 68.3843C75.2165 68.4245 75.3098 68.4276 75.4299 68.3583C75.454 68.3444 75.4749 68.3254 75.4973 68.309L75.8256 67.5552C75.9201 67.6176 76.0258 67.7002 76.1363 67.7865C76.368 67.9674 76.6209 68.1649 76.8362 68.2284C76.9324 68.1553 76.9471 68.142 76.9662 68.0132C77.0249 67.6169 76.6883 66.3949 76.4428 66.095ZM92.0408 74.7723C92.1627 74.9003 92.2034 75.067 92.2422 75.2258C92.2782 75.3729 92.3124 75.5132 92.408 75.6098C92.5651 75.6038 92.6982 75.5059 92.8312 75.408C92.952 75.3191 93.0728 75.2303 93.2115 75.2102C93.3505 75.1902 93.4083 75.2295 93.5051 75.2953L93.5053 75.2954C93.5216 75.3065 93.539 75.3183 93.5581 75.3307C93.5619 75.339 93.5657 75.3469 93.5694 75.3545C93.5726 75.3611 93.5757 75.3675 93.5788 75.3737L93.579 75.3743C93.6159 75.4491 93.6415 75.5011 93.5985 75.5961C93.5085 75.7945 93.2892 75.9184 93.1081 76.0093C93.0848 76.021 93.0679 76.0282 93.0549 76.0338C93.0157 76.0504 93.0117 76.0521 92.9761 76.1161C92.7965 76.4399 92.9351 77.0402 93.0429 77.3856C93.0832 77.5149 93.1297 77.6225 93.2502 77.6872C93.3498 77.6186 93.3759 77.3866 93.4004 77.1679C93.4159 77.0295 93.4309 76.8964 93.4635 76.8135L93.466 76.8137C93.5895 76.8219 93.634 76.8248 93.7326 76.919C93.9377 77.1149 94.0282 77.4628 94.0216 77.7404C93.6283 78.0652 93.0937 78.3101 92.5971 78.3978C92.3735 78.4373 92.0647 78.4576 91.878 78.2971C91.822 78.2491 91.8231 78.2234 91.8252 78.1727C91.8257 78.1584 91.8264 78.1422 91.8259 78.123C91.9944 77.8449 92.2381 77.7576 92.5112 77.6599C92.53 77.6531 92.5489 77.6464 92.568 77.6395C92.5878 77.6323 92.6077 77.625 92.6278 77.6175C92.5301 77.1864 92.4349 76.7548 92.3421 76.3225C92.3119 76.3286 92.2795 76.3357 92.2455 76.3432C92.0593 76.3844 91.828 76.4355 91.6652 76.3729L91.6619 76.3716C91.6094 76.3514 91.605 76.3498 91.5938 76.2936C91.5317 75.9829 91.8718 75.0337 92.0408 74.7723ZM36.875 48.6935C36.7201 48.5847 36.5988 48.5557 36.4149 48.5223L36.3935 48.5374C36.2402 48.6453 36.1522 48.7073 36.1214 48.9183C36.013 49.6606 36.6714 52.8436 37.1217 53.4378C37.19 53.5278 37.2789 53.5934 37.3684 53.6595L37.3746 53.6641C37.511 53.5581 37.5625 53.5143 37.5889 53.336C37.6726 52.7715 37.1563 49.1041 36.875 48.6935ZM42.1453 73.5545C42.3782 73.6777 42.4621 73.801 42.5688 74.0468C42.9047 74.8199 43.4993 77.2629 43.2231 78.0481C43.408 78.3329 43.5563 78.5991 43.6658 78.9235C43.8224 79.3876 43.9093 79.8666 43.6917 80.32C43.665 80.3178 43.6412 80.3163 43.6195 80.315C43.5044 80.308 43.4487 80.3046 43.339 80.2066C43.2013 79.8464 41.9252 74.326 41.9279 74.0004C41.9296 73.7872 42.0071 73.6942 42.1453 73.5545ZM66.1125 38.5175C66.1079 38.5161 66.1033 38.5148 66.0988 38.5134L66.0926 38.5115L66.0861 38.5094C66.0242 38.6772 65.9963 38.8154 66.023 38.9942C66.0852 39.4136 66.1909 39.8377 66.2956 40.2581L66.2957 40.2586C66.3484 40.47 66.4008 40.6804 66.4473 40.8889C66.9003 42.8374 67.3792 44.7795 67.8841 46.7151C67.9414 46.9382 68.0004 47.2141 68.0631 47.5071L68.0632 47.5074L68.0634 47.5084L68.0635 47.509L68.0636 47.5092L68.0637 47.5097C68.2021 48.1569 68.3583 48.887 68.5517 49.3154C68.5583 49.3201 68.5648 49.3248 68.5714 49.3296L68.5816 49.3371L68.5895 49.3429L68.6127 49.3601C68.6643 49.3983 68.7164 49.4369 68.7709 49.4695C68.8722 49.2408 68.8673 49.0862 68.8296 48.8394C68.7652 48.4189 68.6562 47.9972 68.5485 47.5802C68.5104 47.433 68.4725 47.2864 68.4368 47.1406C68.2848 46.5197 68.1239 45.9005 67.963 45.2813C67.7775 44.5675 67.5921 43.8539 67.4203 43.138C67.3193 42.7169 67.2211 42.2029 67.1184 41.6658C66.9234 40.6457 66.7126 39.5427 66.4369 38.8359C66.3776 38.6838 66.3246 38.5959 66.1661 38.5349C66.1486 38.5282 66.1305 38.5228 66.1125 38.5175ZM34.8931 39.0507C34.8946 39.0512 34.8962 39.0516 34.8977 39.0521C34.9 39.0528 34.9022 39.0534 34.9044 39.0542C34.9053 39.0545 34.9061 39.0548 34.907 39.0551L34.9086 39.0558L34.9276 39.0636C35.0795 39.1265 35.1762 39.1665 35.2392 39.3457C35.357 39.6805 35.3981 40.0921 35.4375 40.4865C35.457 40.6816 35.4761 40.8726 35.5039 41.0478C35.568 41.4527 35.6441 41.862 35.7206 42.2732L35.7206 42.2733L35.7207 42.2738C35.8766 43.1123 36.0341 43.9587 36.094 44.7918C36.095 44.8059 36.096 44.8199 36.097 44.8339L36.0971 44.8347C36.1135 45.056 36.1295 45.2728 36.0348 45.4795C35.9198 45.6104 35.8109 45.6361 35.6583 45.6722L35.6557 45.6728C35.6448 45.6754 35.6336 45.6781 35.6222 45.6808C35.5574 45.5829 35.5033 45.492 35.466 45.3792C35.156 44.4447 34.3805 40.8167 34.3517 39.8902C34.3457 39.6954 34.3602 39.5092 34.4562 39.3362C34.5581 39.1522 34.7086 39.105 34.8931 39.0507ZM46.6752 51.0972L46.6702 51.0953C46.6684 51.0947 46.6666 51.0939 46.6648 51.0932C46.6376 51.1078 46.6106 51.1218 46.5839 51.1357L46.5837 51.1357L46.5832 51.136C46.385 51.2389 46.2076 51.331 46.1336 51.5644C46.0894 51.7043 46.0937 51.8675 46.098 52.0305C46.1014 52.1574 46.1047 52.2841 46.0851 52.3994C46.051 52.6 45.9792 52.7947 45.9074 52.9895C45.835 53.1857 45.7626 53.3819 45.7286 53.5844C45.707 53.7132 45.7073 53.8266 45.7891 53.938C45.8647 54.0412 45.9764 54.0776 46.1 54.0641C46.2831 54.0438 46.433 53.9084 46.5679 53.7867L46.5688 53.7859L46.5829 53.7731C46.5891 53.7676 46.5953 53.762 46.6015 53.7565C46.6101 53.7488 46.6186 53.7412 46.6271 53.7337L46.6292 53.7501L46.6305 53.7594L46.6325 53.7743C46.6353 53.7958 46.6383 53.8175 46.6414 53.8393C46.6662 54.0193 46.6927 54.2113 46.6709 54.386C46.6413 54.6226 46.5097 54.9372 46.376 55.2571C46.1934 55.6937 46.0066 56.1402 46.0698 56.4113C46.2007 56.5112 46.2867 56.5161 46.4492 56.4893C46.841 56.4246 47.1459 56.2265 47.4577 56.024C47.5906 55.9377 47.7247 55.8505 47.8673 55.7726L47.9061 55.8288C47.9658 55.9173 48.0233 56.04 48.0847 56.1711C48.2382 56.4987 48.4162 56.8787 48.7157 56.9093C48.8098 56.9189 48.899 56.8958 48.9888 56.8726L49.0099 56.8672C48.8987 56.434 48.7807 56.0415 48.5455 55.6545C48.5521 55.6524 48.5588 55.6502 48.5654 55.6481L48.5658 55.648C48.5763 55.6446 48.5868 55.6412 48.5973 55.638L48.6004 55.637C48.6044 55.6358 48.6084 55.6346 48.6124 55.6334C48.7924 55.5795 49.0111 55.5559 49.2349 55.5317C49.6222 55.49 50.0245 55.4465 50.2676 55.2416L50.2712 55.2331C50.3207 55.1176 50.3354 55.0834 50.2887 54.9522C50.1735 54.6288 49.6425 54.3318 49.211 54.0906C49.0439 53.9971 48.8917 53.912 48.7844 53.8369C48.5796 53.6937 48.3959 53.5104 48.2187 53.3337L48.1951 53.3101C48.234 53.3115 48.2783 53.3146 48.3259 53.3179C48.5438 53.3329 48.83 53.3527 48.9785 53.2415C49.0949 53.1544 49.1039 53.0907 49.1211 52.9693C49.1226 52.9591 49.1241 52.9485 49.1257 52.9375C48.957 52.4127 48.335 52.0768 47.8101 51.7933C47.6777 51.7217 47.5514 51.6535 47.4402 51.5865C47.3305 51.5204 47.223 51.447 47.1154 51.3736C46.977 51.2792 46.8386 51.1848 46.6955 51.1058C46.6891 51.1023 46.6822 51.0997 46.6752 51.0972ZM70.1342 36.7422C70.0509 36.6925 69.9599 36.652 69.8702 36.6151C69.722 37.1177 69.6262 37.6372 69.5305 38.1558C69.4793 38.4333 69.4282 38.7106 69.3691 38.9849C69.3145 39.238 69.2514 39.4937 69.1879 39.7506C69.0661 40.2436 68.9433 40.7408 68.8782 41.2322L68.8762 41.2477L68.8744 41.2604L68.872 41.2774C68.8532 41.4116 68.8349 41.5423 68.8998 41.6688C68.9648 41.7956 69.0419 41.859 69.1618 41.9338C69.4457 41.9247 69.7183 41.7017 69.9857 41.483C70.2688 41.2513 70.5462 41.0244 70.8248 41.0616C70.9155 41.2138 70.9033 41.312 70.8634 41.4842C70.7939 41.7847 70.6194 42.2589 70.4266 42.7827C70.04 43.8333 69.5797 45.0837 69.7452 45.5338C69.8557 45.6281 69.8969 45.6514 70.0434 45.6376C70.5555 45.5894 71.0804 45.389 71.5988 45.1912C71.926 45.0663 72.2505 44.9424 72.5674 44.8585C72.5822 44.9146 72.6055 45.0105 72.6351 45.1325L72.6353 45.1332C72.7882 45.7633 73.1099 47.0887 73.3077 47.2359C73.4236 47.3223 73.4711 47.3123 73.5985 47.2856L73.5999 47.2853C73.7276 47.049 73.6612 46.8327 73.589 46.5977C73.5762 46.556 73.5632 46.5137 73.5511 46.4706C73.4952 46.3078 73.4407 46.1439 73.3862 45.9798C73.2429 45.5486 73.0991 45.1158 72.9265 44.6986C73.0628 44.656 73.2983 44.6004 73.5765 44.5346L73.5767 44.5346C74.372 44.3466 75.5168 44.076 75.6965 43.7926C75.7541 43.7017 75.7545 43.6237 75.7551 43.5219L75.7552 43.5121C75.6646 43.2414 74.9198 42.7001 74.155 42.1443C73.2912 41.5164 72.4018 40.87 72.4008 40.574C72.5376 40.3985 72.7109 40.3784 72.9162 40.3545L72.9213 40.3539C72.9937 40.3454 73.0862 40.3399 73.1892 40.3338C73.566 40.3114 74.0829 40.2807 74.2621 40.0674C74.3438 39.9702 74.348 39.8733 74.3325 39.7508C74.3178 39.6361 74.2168 39.5623 74.1277 39.4972L74.1129 39.4863L74.1017 39.478C74.098 39.4753 74.0943 39.4726 74.0907 39.4699C73.7412 39.2059 73.3668 38.9708 72.9925 38.7358C72.7149 38.5616 72.4374 38.3873 72.1702 38.2014C71.9129 38.0224 71.6583 37.829 71.4029 37.635C70.9871 37.3192 70.5692 37.0017 70.1342 36.7422ZM89.6718 39.5919C89.8686 39.6516 90.0495 39.7652 90.2228 39.8748C90.7405 40.2023 91.2527 40.5402 91.7647 40.878L91.765 40.8782L91.7657 40.8787C92.04 41.0597 92.3142 41.2406 92.5892 41.4199C92.7255 41.5088 92.8661 41.5965 93.0076 41.685C93.3842 41.9202 93.7682 42.16 94.0993 42.4374C94.2235 42.5414 94.3681 42.6779 94.3928 42.8447C94.437 43.1421 93.9055 43.2148 93.3787 43.2868C92.9721 43.3424 92.5683 43.3976 92.4345 43.5555C92.4999 44.0415 93.4487 44.6711 94.36 45.2758C95.1224 45.7816 95.8585 46.2701 96.0288 46.6423C96.0593 46.7088 96.0567 46.7138 96.0355 46.7556L96.0308 46.7649C96.0291 46.7683 96.0273 46.7719 96.0254 46.7758C96.0204 46.7862 96.0148 46.7984 96.0087 46.8132C95.4926 47.2312 94.4687 47.5324 93.7148 47.7542C93.5957 47.7892 93.4834 47.8223 93.3808 47.8535C93.6004 48.536 93.8361 49.2129 94.0879 49.884C94.0968 49.9206 94.1065 49.957 94.1145 49.9937C94.1169 50.0047 94.1194 50.0154 94.122 50.026L94.1252 50.0392C94.1494 50.1389 94.1698 50.2234 94.0825 50.3089C93.9812 50.408 93.918 50.4233 93.7888 50.4145C93.5997 50.2273 93.0147 48.3754 92.8973 48.003C92.5654 48.1088 92.2325 48.2268 91.8982 48.3453L91.8979 48.3455C91.1865 48.5977 90.4691 48.8521 89.7413 48.9949C89.821 48.4479 90.0711 47.6378 90.3221 46.8249C90.6356 45.8094 90.9505 44.7896 90.9362 44.2728C90.9325 44.1412 90.921 44.131 90.8291 44.0493L90.8279 44.0482C90.5224 44.052 90.2624 44.3059 90.0049 44.5572C89.7894 44.7677 89.5757 44.9764 89.3385 45.0352C89.1819 45.074 89.1573 45.0591 89.0321 44.9833L89.0244 44.9786C88.978 44.3276 89.1209 43.6424 89.2612 42.97C89.3301 42.6396 89.3984 42.3123 89.4433 41.9937C89.5132 41.4962 89.5531 40.9966 89.593 40.4968L89.593 40.4965C89.6171 40.1949 89.6411 39.8933 89.6718 39.5919ZM78.026 34.3223L78.0167 34.3191C78.0125 34.3177 78.0083 34.3163 78.0041 34.3149C77.8359 34.7245 77.8058 35.3571 77.7778 35.9429V35.943C77.764 36.234 77.7507 36.5134 77.7212 36.7483C77.6831 37.0525 77.6355 37.3571 77.5879 37.6619C77.5165 38.1196 77.4449 38.5777 77.405 39.0357C77.4032 39.0564 77.4012 39.0782 77.3991 39.1008C77.3812 39.2938 77.358 39.5449 77.4148 39.7119C77.4389 39.7827 77.4468 39.7937 77.4756 39.8336C77.4805 39.8404 77.4861 39.8481 77.4924 39.857C77.6284 39.8983 77.6863 39.8911 77.813 39.8203C77.9853 39.7242 78.1544 39.5514 78.3266 39.3755C78.5896 39.1068 78.86 38.8306 79.1601 38.8083C79.2672 38.9141 79.2785 38.9733 79.274 39.1246C79.2588 39.645 78.9395 40.4674 78.6278 41.2701C78.3496 41.9867 78.0775 42.6875 78.0332 43.1438C78.017 43.3122 78.0338 43.3746 78.1306 43.5111C78.4222 43.6512 78.749 43.557 79.0389 43.4546C79.4401 43.3129 79.8299 43.1412 80.2197 42.9696L80.22 42.9694C80.5078 42.8427 80.7956 42.7159 81.088 42.6013L81.1168 42.6697C81.1714 42.802 81.238 43.0152 81.3139 43.2582L81.314 43.2584L81.314 43.2586C81.5116 43.8912 81.7726 44.7265 82.0499 44.869C82.1813 44.811 82.2276 44.7849 82.2817 44.6391C82.3307 44.5074 82.2657 44.3435 82.2126 44.2094C82.2044 44.1888 82.1965 44.1689 82.1894 44.1499C82.1302 43.9803 82.0705 43.8108 82.0108 43.6413L82.01 43.6394L82.01 43.6392C81.8661 43.2309 81.7222 42.8224 81.5863 42.4118C81.7045 42.3696 81.8824 42.3123 82.0918 42.2449C82.8328 42.0065 83.9668 41.6417 84.2343 41.3691C84.2395 41.3536 84.2444 41.3394 84.249 41.326L84.2492 41.3253C84.2847 41.2227 84.301 41.1756 84.2308 41.0577C84.1388 40.9034 83.6556 40.5841 83.0662 40.1947C82.2062 39.6263 81.12 38.9086 80.6933 38.3362C80.8935 38.2546 81.1521 38.2005 81.4209 38.1443C81.9668 38.0301 82.555 37.907 82.7836 37.527C82.7199 37.3876 82.6315 37.3215 82.5126 37.2327L82.4942 37.219C82.166 36.9732 81.8144 36.7576 81.4632 36.5422L81.4629 36.542L81.4628 36.5419C81.2462 36.4091 81.0298 36.2764 80.8191 36.1367C80.5802 35.9784 80.3099 35.7818 80.026 35.5754C79.3641 35.094 78.6283 34.559 78.0458 34.3296C78.0393 34.327 78.0326 34.3246 78.026 34.3223ZM57.5722 26.7414L57.5724 26.7414C57.611 26.7483 57.6177 26.7494 57.6765 26.7689C58.2093 26.9452 61.2665 28.9518 61.817 29.3855C61.9864 29.519 62.1388 29.6675 62.2389 29.8598C62.199 29.9267 61.8428 30.0312 61.4415 30.1489C61.0133 30.2744 60.5338 30.415 60.3324 30.5412C60.3123 30.5538 60.2925 30.5667 60.2727 30.5794C60.8994 31.2487 61.5924 31.8509 62.2966 32.4376C62.4255 32.545 62.5886 32.6596 62.7591 32.7793C63.1015 33.0198 63.4738 33.2813 63.6597 33.5484C63.7224 33.6384 63.7208 33.6461 63.699 33.7513L63.6972 33.7596C63.2484 34.1432 62.2977 34.4849 61.5447 34.7555C61.3235 34.835 61.1194 34.9084 60.9501 34.9749L61.4193 36.376C61.4333 36.421 61.4506 36.4708 61.469 36.5237L61.4691 36.5239C61.5456 36.7443 61.6406 37.0181 61.5982 37.2138C61.5706 37.3411 61.5212 37.368 61.4213 37.4224L61.4128 37.427L61.3069 37.3841C60.9424 36.9569 60.7419 36.0368 60.6011 35.3908L60.601 35.3902L60.6002 35.3866C60.58 35.294 60.5611 35.2071 60.543 35.1281C60.4068 35.1825 60.2705 35.2373 60.1342 35.292C59.5987 35.5073 59.0619 35.723 58.52 35.9188C58.4971 35.927 58.4735 35.9358 58.4492 35.9447C58.208 36.0338 57.9036 36.1462 57.6771 36.0405C57.599 35.8779 57.6042 35.7339 57.6304 35.559C57.6745 35.2647 57.775 34.972 57.8739 34.6842L57.874 34.6838C57.9106 34.5774 57.9469 34.4717 57.98 34.3667C58.1809 33.7315 58.3737 33.0946 58.5232 32.4452C58.532 32.4073 58.5424 32.3654 58.5536 32.3207L58.5536 32.3205C58.6249 32.0351 58.7248 31.6346 58.5886 31.4169C58.3371 31.3684 57.9833 31.6192 57.6597 31.8485C57.4717 31.9817 57.294 32.1077 57.1524 32.1635C57.0419 32.2072 57.0172 32.1978 56.9179 32.16L56.9073 32.156C56.8206 32.0389 56.799 31.9263 56.8186 31.7833C56.8573 31.5017 56.926 31.2184 56.9948 30.9347L56.9949 30.9342C57.0523 30.6973 57.1099 30.46 57.1501 30.2233C57.3465 29.0679 57.4551 27.9049 57.5505 26.7375L57.5606 26.7394L57.5722 26.7414ZM52.299 39.0571C52.2883 39.055 52.2776 39.0529 52.2669 39.0507C52.2578 39.0673 52.2484 39.0838 52.2395 39.1006C51.9723 39.6006 52.0025 40.3627 52.0327 41.1269C52.0558 41.7118 52.079 42.2979 51.969 42.7687C51.7071 43.8893 50.8738 45.1077 50.2008 46.0423C49.4569 47.0755 48.3725 47.7024 47.2959 48.3247L47.2957 48.3248C46.9756 48.5099 46.6561 48.6946 46.3465 48.8894C45.8567 49.1977 45.4179 49.5627 44.9772 49.9293C44.8111 50.0675 44.6448 50.2058 44.4753 50.3414C44.2513 50.5208 44.0206 50.6917 43.79 50.8625L43.7895 50.8629L43.7894 50.863L43.7887 50.8635C43.5334 51.0526 43.278 51.2417 43.0317 51.4424C42.3653 51.9853 41.7469 52.5908 41.1382 53.1966C41.1239 53.2109 41.1095 53.2252 41.095 53.2396C41.0642 53.27 41.0331 53.3005 41.0018 53.3313C40.7129 53.6152 40.408 53.9149 40.1989 54.254C39.7405 54.9978 39.5052 55.9862 39.357 56.8394C39.3701 56.8622 39.3836 56.8849 39.3965 56.9078C39.5829 57.2405 39.6631 57.6052 39.7437 57.9722C39.7784 58.1301 39.8132 58.2883 39.8566 58.4446C40.3623 60.2676 41.615 61.0447 43.3328 61.549C44.5627 61.9101 45.7111 61.9498 46.9668 61.6977C47.631 61.5643 48.2461 61.2997 48.8616 61.0351C49.2768 60.8565 49.6921 60.6779 50.1226 60.5395C50.3718 60.4593 50.6291 60.4099 50.8865 60.3605C51.1146 60.3168 51.3426 60.273 51.5652 60.2078C51.8079 60.1367 52.0474 60.0545 52.287 59.9722C52.5929 59.8672 52.8989 59.7621 53.2115 59.6801C54.0911 59.4493 54.9579 59.3631 55.862 59.3215C57.5875 59.2422 58.5509 59.3152 60.0367 60.236C60.6955 60.6443 61.2965 61.1436 61.6697 61.8371C62.2691 62.9508 61.6324 65.5804 61.261 66.7381C60.9755 67.6281 60.1302 68.7606 59.3813 69.3155C59.105 69.5203 58.8013 69.6866 58.4981 69.8527C58.3198 69.9504 58.1417 70.048 57.9695 70.1532C57.9591 70.1596 57.9486 70.1658 57.9383 70.172C57.9235 70.1808 57.9088 70.1893 57.8943 70.1978C57.7083 70.3065 57.5539 70.3967 57.6477 70.6316C57.7759 70.7065 57.8422 70.7299 57.9925 70.7012C58.1985 70.6618 58.4244 70.5619 58.6371 70.4678C58.7218 70.4303 58.8044 70.3938 58.8828 70.3623C59.8833 69.9456 60.6571 68.9658 61.2666 68.1093C61.3042 68.0565 61.3453 68.0022 61.3872 67.9466L61.3874 67.9465C61.5112 67.7825 61.6432 67.6077 61.717 67.4313C61.7751 67.2928 61.8208 67.1441 61.8656 66.998C61.8793 66.9531 61.893 66.9086 61.907 66.8646L61.7906 66.369C61.841 66.2579 61.8969 66.1433 61.9538 66.0267C62.1083 65.7099 62.2703 65.3775 62.3512 65.0564C62.5935 64.0937 62.5248 62.4587 62.1791 61.5344C61.873 60.7164 60.3684 59.5684 59.5614 59.2253C58.924 58.9542 58.1826 58.7275 57.4916 58.655C57.2459 58.6292 56.9888 58.6545 56.7329 58.6796H56.7326C56.319 58.7202 55.9086 58.7605 55.5553 58.5847C55.4345 58.6085 55.1656 58.6683 54.8387 58.741C54.0336 58.9201 52.8764 59.1774 52.7129 59.1678C52.6496 59.1642 52.6015 59.1309 52.5535 59.0978C52.4829 59.049 52.4127 59.0005 52.2955 59.0476C52.1671 59.0991 52.0704 59.202 51.9733 59.3054C51.8794 59.4053 51.785 59.5057 51.6613 59.5603C51.4187 59.6674 51.1596 59.7338 50.8997 59.8003C50.6179 59.8725 50.3353 59.9449 50.072 60.0696C49.9654 60.005 49.8717 59.93 49.7771 59.8543C49.7283 59.8153 49.6793 59.7761 49.6282 59.738L49.3178 60.2221C47.3385 61.2217 45.3423 61.6406 43.1858 60.9246C42.1832 60.5918 40.9575 60.0136 40.4708 59.0258C40.1315 58.3369 40.0786 57.604 40.1155 56.8503L39.7888 56.4172C39.8041 56.3887 39.8197 56.36 39.8354 56.3311C39.9292 56.1584 40.0265 55.9792 40.0829 55.7938C40.1181 55.6781 40.1382 55.5113 40.1592 55.3369C40.1923 55.0624 40.2277 54.7693 40.3277 54.6273C40.5068 54.3731 40.9044 54.105 41.2942 53.8422C41.5895 53.6431 41.8802 53.4471 42.0681 53.2624C42.1571 53.1749 42.2025 53.0543 42.2485 52.932C42.2963 52.805 42.3448 52.6762 42.4435 52.5808C42.7361 52.2979 43.0851 52.0632 43.4333 51.8291L43.4335 51.829C43.6916 51.6554 43.9494 51.4821 44.1832 51.2897C44.3779 51.1295 44.5369 50.9343 44.696 50.7389C44.8453 50.5556 44.9947 50.3721 45.1737 50.2174C46.1098 49.4086 48.4417 48.0134 49.6033 47.5852C49.7292 47.3375 49.8056 47.2023 50.0353 47.0501C50.7156 46.5994 51.7371 44.8734 52.0999 44.1251C52.2463 43.8231 52.3473 43.5028 52.4482 43.1834L52.4549 43.162C52.4491 43.1505 52.4433 43.1392 52.4375 43.128C52.3437 42.9448 52.2659 42.793 52.3285 42.5761C52.3634 42.4556 52.4858 42.3169 52.5865 42.2027C52.6129 42.1727 52.6379 42.1445 52.6593 42.1187C52.6588 42.0325 52.6633 41.876 52.6689 41.6781C52.6924 40.8572 52.7363 39.324 52.5273 39.1454C52.4615 39.0892 52.3805 39.0732 52.299 39.0571ZM85.525 27.6847C86.2187 27.8886 89.0499 29.8779 89.7274 30.3991C89.9249 30.5509 90.2594 30.8111 90.2939 31.0688C90.0469 31.3148 89.489 31.4652 88.9741 31.604C88.68 31.6833 88.4 31.7588 88.2001 31.8461C88.1795 31.8552 88.1591 31.8647 88.1386 31.8739C88.4562 32.1608 89.041 32.5523 89.6541 32.9626C90.556 33.5663 91.5189 34.2109 91.7815 34.6232C91.8541 34.7372 91.8714 34.7948 91.8459 34.9259C91.4095 35.2553 90.7487 35.4517 90.1072 35.6424C89.7001 35.7634 89.3009 35.882 88.9718 36.0309L88.9021 36.0628C88.9969 36.4479 89.1313 36.8283 89.2646 37.2057L89.2647 37.2058L89.2647 37.206L89.2648 37.2063L89.2651 37.207L89.2652 37.2074C89.3109 37.3365 89.3564 37.4653 89.4001 37.5938C89.4348 37.6949 89.4819 37.7991 89.5296 37.9045C89.6062 38.0737 89.6841 38.246 89.7136 38.4134C89.7386 38.5548 89.6986 38.6206 89.6239 38.7346C89.6168 38.7375 89.6101 38.7405 89.6037 38.7435C89.5994 38.7456 89.5952 38.7477 89.5911 38.7497L89.5883 38.7511L89.5803 38.7551C89.5355 38.7778 89.5046 38.7934 89.4444 38.7637C89.0915 38.5889 88.665 37.0013 88.4936 36.3632L88.4933 36.362L88.4905 36.3515L88.4903 36.3507L88.4902 36.3503L88.4693 36.2729C88.4658 36.2597 88.4624 36.2472 88.4592 36.2354L88.4522 36.21C88.1805 36.2931 87.8622 36.4366 87.5324 36.5854C86.962 36.8426 86.3571 37.1153 85.899 37.1184C85.7956 37.1191 85.7867 37.1094 85.7442 37.0637C85.7333 37.052 85.7202 37.0378 85.7027 37.0208C85.6371 36.8003 85.6344 36.6193 85.6719 36.3915C85.7295 36.0402 85.8484 35.6882 85.965 35.3428L85.9653 35.3419L85.9654 35.3417C86.007 35.2184 86.0484 35.096 86.0865 34.9749C86.3589 34.109 86.617 33.2331 86.767 32.3362C86.5202 32.4063 86.2435 32.5733 85.9698 32.7384C85.6368 32.9394 85.3081 33.1377 85.0432 33.1556C84.9701 33.1605 84.9461 33.1312 84.9113 33.0888L84.9112 33.0887C84.901 33.0762 84.8899 33.0626 84.8763 33.0485C84.8174 32.8566 84.8116 32.6915 84.8306 32.4911C84.8642 32.1366 84.9345 31.7837 85.0049 31.4304L85.0049 31.4301L85.005 31.4299L85.005 31.4297L85.005 31.4295C85.0635 31.1361 85.122 30.8424 85.1596 30.5471C85.2062 30.182 85.2337 29.8118 85.2612 29.4417C85.2966 28.9657 85.332 28.4898 85.4078 28.0246C85.4281 27.9005 85.4723 27.7979 85.525 27.6847ZM25.5536 42.4418C25.2604 41.9782 21.6382 39.3425 21.089 39.186C20.7717 39.8899 19.938 43.7272 20.0124 44.4248C20.1352 44.5001 20.1974 44.5022 20.3389 44.4669C20.4703 44.434 20.6513 44.3366 20.8443 44.2327C21.1903 44.0465 21.5747 43.8397 21.7806 43.9472C21.9416 44.334 21.7081 45.2315 21.4723 46.1378C21.2087 47.1506 20.9423 48.1745 21.2205 48.5089C21.6265 48.5289 22.2923 48.2637 22.9027 48.0205C23.2481 47.8828 23.5758 47.7523 23.8287 47.6844C23.8524 47.7806 23.8775 47.9017 23.9057 48.0375L23.9058 48.0383L23.9059 48.0384C24.0339 48.656 24.2247 49.5758 24.6258 49.8236C24.6775 49.8555 24.6914 49.8591 24.7317 49.8695C24.7385 49.8712 24.746 49.8731 24.7545 49.8754C24.878 49.8231 24.9128 49.7763 24.9582 49.6523C25.0954 49.277 24.9695 48.9983 24.8133 48.656C24.7654 48.5357 24.7188 48.4141 24.6721 48.2924L24.6717 48.2913C24.5759 48.0414 24.4797 47.7908 24.3714 47.5485C24.5861 47.457 24.9406 47.3398 25.3322 47.2102L25.3329 47.21L25.3331 47.2099C26.1217 46.9491 27.0609 46.6385 27.3145 46.3875C27.3073 46.2239 27.1986 46.1259 27.0826 46.0211L27.0676 46.0075C26.7975 45.7631 26.3251 45.4223 25.8165 45.0554C24.9481 44.4288 23.9744 43.7264 23.7241 43.2989C23.7231 43.2827 23.721 43.2671 23.719 43.252C23.712 43.2002 23.7059 43.1543 23.7458 43.1092C23.9072 42.9264 24.2553 42.8925 24.6043 42.8586C25.0397 42.8162 25.4764 42.7738 25.5536 42.4418ZM59.0336 39.4566C59.272 39.4839 59.4515 39.5966 59.6447 39.7302C60.146 40.0766 60.631 40.4532 61.1153 40.8292L61.1155 40.8294C61.4003 41.0505 61.685 41.2716 61.9726 41.4862C62.1397 41.6109 62.3168 41.7334 62.4955 41.857C62.831 42.0891 63.1719 42.3249 63.4615 42.5856C63.5639 42.6778 63.588 42.7634 63.6122 42.8957C63.4968 43.2817 63.0846 43.318 62.6698 43.3545C62.3732 43.3806 62.0753 43.4068 61.8837 43.5611C61.8303 43.6039 61.8284 43.6402 61.8256 43.6926C61.8252 43.7007 61.8248 43.7091 61.8241 43.7181C61.8236 43.7255 61.8229 43.7333 61.8219 43.7415C62.0606 44.1779 62.8281 44.7177 63.575 45.2431C64.1761 45.6659 64.7639 46.0793 65.0519 46.4218C65.1705 46.5629 65.2131 46.6624 65.1982 46.8458C64.8729 47.1429 63.692 47.4735 62.9123 47.6918L62.9121 47.6918C62.699 47.7515 62.5159 47.8027 62.3884 47.8426C62.5416 48.3697 62.7148 48.8924 62.8877 49.4143C62.9467 49.5926 63.0058 49.7708 63.064 49.9491L63.0655 49.9558L63.069 49.9707C63.0805 50.0194 63.0973 50.0905 63.0967 50.13C63.095 50.245 63.0314 50.3062 62.9597 50.3753C62.9458 50.3886 62.9316 50.4023 62.9175 50.4167L62.8091 50.4123C62.5434 50.1549 62.2993 49.3176 62.1041 48.6481C62.0245 48.3751 61.9531 48.13 61.8916 47.9635C61.6547 48.0465 61.4105 48.1439 61.162 48.243C60.5086 48.5037 59.8255 48.7762 59.1689 48.8292C59.1529 48.8223 59.1381 48.8168 59.1243 48.8117C59.0735 48.7927 59.0369 48.7791 59.0039 48.7184C58.8294 48.3981 59.1244 47.6832 59.3213 47.2061L59.3214 47.2059L59.3215 47.2056L59.3216 47.2053C59.3699 47.0883 59.4123 46.9856 59.4403 46.9067C59.452 46.8738 59.4662 46.8343 59.4826 46.7892L59.4954 46.7536C59.7198 46.1334 60.2725 44.6055 60.1069 44.2484C59.8301 44.2035 59.5177 44.4536 59.2051 44.7037C58.9425 44.9139 58.6798 45.1241 58.4382 45.1595C58.2992 45.1798 58.2329 45.1294 58.1415 45.0601C58.1218 45.0451 58.1007 45.0291 58.0776 45.0129C57.927 44.6868 58.1614 44.0285 58.3617 43.4657C58.4563 43.2 58.5434 42.9555 58.5787 42.7774C58.6748 42.2936 58.7201 41.7934 58.7653 41.2937C58.8219 40.6695 58.8783 40.046 59.0336 39.4566ZM43.1773 36.9439C42.4078 36.2998 41.1956 35.2852 40.7177 35.1267C40.6532 35.226 40.6043 35.3099 40.5789 35.4267C40.5074 35.7558 40.4625 36.093 40.4176 36.4304L40.4175 36.4306C40.3807 36.7071 40.3439 36.9837 40.2924 37.2559C40.2327 37.5715 40.1606 37.8881 40.0884 38.2052L40.0884 38.2053C39.9737 38.709 39.8587 39.2139 39.7927 39.7181C39.7613 39.9589 39.7455 40.2285 39.7925 40.4681L39.7964 40.4884C39.815 40.5842 39.8237 40.6294 39.9025 40.7036C40.2316 40.6273 40.5409 40.4883 40.8505 40.3492C41.1029 40.2357 41.3557 40.1221 41.6195 40.0424L41.6057 40.1243C41.5336 40.5377 41.3018 41.1892 41.057 41.8773C40.6776 42.9437 40.2669 44.098 40.3714 44.5896C40.4706 44.7001 40.5631 44.7558 40.7139 44.7667C41.1831 44.8007 41.8615 44.492 42.4869 44.2074C42.8351 44.049 43.1668 43.8981 43.4369 43.8179C43.5973 44.212 43.7404 44.6121 43.8662 45.0182C43.8885 45.0896 43.906 45.1666 43.9236 45.2445C43.9542 45.3793 43.9853 45.5165 44.0425 45.6304C44.1002 45.7449 44.136 45.7613 44.2415 45.8097L44.2555 45.8161C44.2666 45.8126 44.277 45.8093 44.2867 45.8062C44.4008 45.7701 44.4275 45.7617 44.5102 45.6568C44.5359 45.4709 44.4841 45.2999 44.4313 45.125C44.4225 45.096 44.4138 45.067 44.4053 45.0378C44.2696 44.5748 44.1073 44.1296 43.9299 43.6808C44.2219 43.5767 44.7126 43.4556 45.2243 43.3292C45.9725 43.1445 46.7658 42.9487 47.0486 42.7789C47.083 42.6573 47.0766 42.5853 47.0185 42.4694C46.8585 42.1504 46.1138 41.6344 45.3461 41.1024C44.4101 40.4538 43.4398 39.7815 43.453 39.4135C43.6872 39.1488 44.0154 39.1375 44.3376 39.1265C44.6216 39.1168 44.901 39.1072 45.1071 38.9244C45.0551 38.4279 44.322 37.8591 43.8518 37.4943C43.7825 37.4406 43.719 37.3913 43.6641 37.3472C43.5447 37.2515 43.3757 37.11 43.1773 36.9439ZM29.9318 49.6048C30.2869 49.7181 30.5966 49.9478 30.8977 50.1712L30.8982 50.1716C30.9542 50.2131 31.01 50.2545 31.0656 50.2948C31.1515 50.3571 31.2835 50.4499 31.4468 50.5648C32.4221 51.251 34.5147 52.7234 34.5837 53.1578C34.2782 53.3881 33.746 53.4881 33.2549 53.5803C33.0053 53.6272 32.7663 53.6721 32.5731 53.7311L32.6274 53.79C33.0156 54.2152 33.6024 54.6667 34.1805 55.1115C34.841 55.6197 35.4902 56.1192 35.819 56.5608C35.9248 56.703 35.9974 56.8284 35.9675 57.0113C35.6046 57.4354 34.8706 57.6661 34.2059 57.8749C33.9009 57.9708 33.6105 58.062 33.3772 58.1653L33.3062 58.1971C33.5608 58.6994 33.7886 59.1966 33.9976 59.7197L33.9979 59.7212L33.9979 59.7213C34.0154 59.8032 34.034 59.8908 34.0392 59.974C34.0494 60.1353 33.9946 60.2559 33.8831 60.3737C33.8262 60.4339 33.7989 60.4319 33.7431 60.4278C33.7273 60.4266 33.7092 60.4253 33.6875 60.4252C33.3248 60.2051 33.0957 59.4172 32.9228 58.8228C32.8677 58.6331 32.8182 58.4631 32.772 58.3376C32.5909 58.3917 32.3479 58.4824 32.0754 58.5841C31.2726 58.8838 30.2145 59.2788 29.7333 59.1123C29.6572 58.992 29.6398 58.9214 29.6568 58.777C29.6998 58.413 29.8097 58.0381 29.9163 57.6746L29.9163 57.6745C29.9524 57.5513 29.9882 57.4293 30.0208 57.3096C30.0821 57.0844 30.1448 56.8593 30.2074 56.6341C30.4201 55.8696 30.6331 55.1041 30.7975 54.3284C30.7692 54.3398 30.7411 54.3516 30.7127 54.3626C30.4859 54.4506 30.2599 54.6034 30.0326 54.757C29.7094 54.9755 29.3835 55.1958 29.0483 55.2347L28.9585 55.1621C28.8002 54.5472 29.6065 50.2968 29.9318 49.6048ZM85.3673 51.2077C85.3572 51.2596 85.3474 51.31 85.3372 51.3578C85.1804 51.2244 85.04 51.0886 84.9026 50.9557C84.5996 50.6626 84.3114 50.3838 83.8937 50.1762C83.9016 50.2502 83.9108 50.3241 83.9213 50.3978C84.007 50.9854 84.2565 51.2488 84.7147 51.5883C84.5833 51.7547 84.4415 51.9375 84.376 52.142C84.3145 52.3341 84.3156 52.5538 84.4158 52.7329C84.5903 53.0447 84.9475 53.1457 85.2668 53.2358L85.2196 53.8138C85.1519 54.2907 85.0949 54.7688 85.0485 55.2482C83.9161 55.8851 82.825 56.6681 81.9254 57.6104C79.5612 60.0872 78.9796 62.4322 79.0575 65.7654C78.9667 65.8081 78.8509 65.857 78.7225 65.9112L78.7222 65.9113C78.2462 66.1124 77.5969 66.3866 77.4065 66.6899C77.3676 66.7519 77.3762 66.774 77.3937 66.8191L77.3937 66.8193C77.3986 66.8318 77.4041 66.846 77.4095 66.8634C77.8232 67.1391 78.6413 67.0652 79.2478 67.0104C79.3785 66.9986 79.4994 66.9877 79.6043 66.9814C80.4666 68.8947 81.5949 70.5047 83.3696 71.6575C85.6686 73.1508 88.0798 73.4829 90.7411 72.9076C91.0234 73.2349 91.2865 73.5833 91.5485 73.9303L91.5487 73.9305L91.5491 73.9311C91.6518 74.0671 91.7543 74.2028 91.8577 74.337C92.0076 74.3529 92.1581 74.3581 92.3086 74.3634C92.3367 74.3644 92.3647 74.3654 92.3927 74.3664C92.3979 73.9421 92.4126 73.5175 92.4274 73.0929L92.4275 73.0918C92.4383 72.7813 92.4491 72.4707 92.4561 72.1603C93.8267 71.3286 95.148 70.3298 96.1185 69.0372C97.8253 66.7639 98.1376 64.4667 97.7527 61.7165C98.0857 61.5436 98.7443 61.1765 98.8931 60.8286C98.8271 60.7396 98.7789 60.6245 98.7315 60.5116C98.6763 60.3802 98.6224 60.2517 98.5433 60.1702C98.3169 59.9368 97.864 59.9187 97.4939 59.9039C97.3969 59.9 97.3057 59.8964 97.2257 59.8892C96.6408 58.2693 95.7496 56.902 94.3345 55.8876C92.1937 54.3531 89.499 53.8967 86.9286 54.3292C86.7117 54.0036 86.5175 53.6593 86.3242 53.3166C86.2554 53.1947 86.1867 53.0729 86.1172 52.9523C86.2802 52.7522 86.4736 52.4494 86.4733 52.182C86.4728 51.9294 86.2907 51.7223 86.1183 51.5612C86.0624 51.509 86.0075 51.456 85.9525 51.4028L85.9239 51.3752C85.9409 51.3196 85.9618 51.2587 85.9839 51.1944C86.0888 50.8887 86.2204 50.505 86.0961 50.2409C86.0669 50.1787 86.0414 50.1717 85.9952 50.1591C85.9824 50.1556 85.9681 50.1517 85.9517 50.146C85.9418 50.1498 85.9331 50.153 85.9252 50.156L85.925 50.156C85.8774 50.1737 85.8594 50.1804 85.8014 50.2243C85.5173 50.4391 85.4354 50.8588 85.3673 51.2077ZM19.8266 60.2944C19.8211 60.2945 19.8156 60.2945 19.8101 60.2945C19.5588 60.3626 19.3277 60.4448 19.1867 60.6799C18.9653 61.0488 18.7966 62.6512 18.6727 63.8274C18.6229 64.3006 18.5804 64.7048 18.5446 64.932C18.3539 66.1419 18.0272 67.2678 17.615 68.4182C17.5519 68.5946 17.4843 68.7715 17.4164 68.949C17.2396 69.4117 17.061 69.8791 16.9537 70.3562L16.949 70.3771C16.9089 70.5546 16.8613 70.7648 16.9316 70.9389C16.9821 71.0644 17.0929 71.1541 17.2246 71.1846C17.4517 71.2371 17.6948 71.0768 17.8581 70.9373C18.2912 70.5675 18.5908 70.0764 18.8898 69.5861C19.1298 69.1927 19.3695 68.7998 19.6776 68.4706L19.7448 68.398C19.7566 69.3875 19.5543 70.3055 19.1892 71.2241C18.9791 71.7528 18.7232 72.2572 18.4499 72.7555C18.3896 72.8654 18.3012 73.013 18.1977 73.1858C17.6864 74.0398 16.8058 75.5106 17.1134 76.1069C17.2319 76.18 17.2982 76.1983 17.4389 76.1721C18.1587 76.0382 18.9661 75.2242 19.7392 74.4449C20.2628 73.917 20.7708 73.4049 21.225 73.131C21.1836 73.9355 21.0367 74.6072 20.7219 75.3503C20.2683 76.4208 19.6708 77.4321 19.0774 78.4363L19.0773 78.4365C18.9271 78.6906 18.7772 78.9443 18.63 79.1983C18.561 79.3174 18.4888 79.4386 18.4155 79.5614C18.0936 80.1012 17.7519 80.6741 17.578 81.2542C17.503 81.5044 17.4482 81.8299 17.6289 82.0477C17.7017 82.1355 17.8259 82.1794 17.9383 82.1854C19.0179 82.243 21.0916 80.4561 22.1527 79.5418C22.2512 79.457 22.3409 79.3796 22.4203 79.312C22.4255 79.9011 22.3912 80.4071 22.1265 80.9467C21.8913 81.4262 21.5373 81.8619 21.187 82.293C20.9873 82.5387 20.7888 82.7829 20.6143 83.033C20.0373 83.8596 17.7907 87.3785 18.5548 88.1895C18.6548 88.2956 18.7885 88.3321 18.9302 88.3306C19.1314 88.3284 19.3586 88.2026 19.5264 88.1039C20.1636 87.7291 20.7759 87.3074 21.3883 86.8855C21.8939 86.5373 22.3996 86.189 22.9194 85.867C23.6215 85.432 24.3377 85.0199 25.0539 84.6077C25.957 84.088 26.8602 83.5682 27.7349 83.0029C28.3685 84.8026 29.0213 86.5954 29.6933 88.3812C29.8769 88.8637 30.0654 89.3459 30.2541 89.8286C30.7385 91.0679 31.2243 92.3106 31.633 93.5715C31.6619 93.6596 31.693 93.7719 31.7277 93.8971C31.8725 94.4192 32.0796 95.1658 32.4488 95.3218C32.7211 95.4369 34.157 94.9555 34.449 94.7876C34.5385 94.7361 34.5439 94.7267 34.5789 94.6647C34.5843 94.6551 34.5905 94.6442 34.5978 94.6317C34.5185 93.7999 33.6439 91.6553 33.0328 90.1567C32.8571 89.726 32.7031 89.3485 32.5962 89.071C32.3016 88.3071 32.0128 87.5387 31.7239 86.7697L31.7237 86.7694C31.1354 85.2037 30.5462 83.6357 29.9049 82.0981C30.5049 81.8227 31.1153 81.6793 31.7679 81.5851C32.636 81.4598 33.5085 81.3998 34.3787 81.34L34.3791 81.34C36.0927 81.2222 37.7972 81.1051 39.4405 80.4913C39.465 80.4822 39.4906 80.4728 39.5169 80.4631L39.52 80.4619C39.8453 80.3426 40.2913 80.1789 40.4178 79.8541C40.4666 79.7289 40.4269 79.6157 40.3598 79.5051C40.2208 79.2764 39.936 79.0864 39.7052 78.9324L39.7038 78.9314L39.6995 78.9286C39.6806 78.9159 39.6621 78.9036 39.6441 78.8914C38.873 78.373 38.0164 78.0126 37.1369 77.7176C36.9538 77.6562 36.5608 77.5616 36.0763 77.4451C34.6894 77.1115 32.5537 76.5977 32.4521 76.1659C32.5566 76.0057 32.6624 75.9766 32.8475 75.9395C33.0812 75.8925 33.3927 75.8649 33.7342 75.8346C34.6813 75.7506 35.86 75.6461 36.255 75.0525C36.3543 74.9032 36.3743 74.7439 36.3266 74.5739C36.2034 74.1344 35.6809 73.8207 35.296 73.6261C34.7121 73.331 34.072 73.1298 33.4486 72.9345C33.2134 72.8608 32.9861 72.7915 32.7654 72.7242C31.2477 72.2613 30.0367 71.8919 28.6375 70.8438C28.7297 70.8383 28.8461 70.8332 28.9802 70.8274C29.8938 70.7877 31.6268 70.7123 32.0968 70.2127C32.2014 70.1016 32.203 70.0639 32.2092 69.9235L32.2094 69.918C32.0051 69.438 31.2861 69.146 30.8158 68.955L30.7865 68.9431C30.3452 68.7638 29.8685 68.608 29.3835 68.4496L29.3833 68.4495C27.8892 67.9614 26.3158 67.4473 25.4538 66.1395C25.5827 66.1745 25.7433 66.2232 25.9252 66.2784C26.8707 66.5654 28.3883 67.026 28.9818 66.625C29.0751 66.5618 29.1174 66.5096 29.1754 66.4161C29.1798 66.2716 29.1655 66.2091 29.0685 66.0965C28.7699 65.7504 28.0229 65.3981 27.3499 65.0808L27.3497 65.0807C26.9863 64.9093 26.6444 64.7481 26.4064 64.6035C25.0739 63.7954 23.7841 62.9241 22.5372 61.9894C22.3099 61.8189 22.0877 61.6355 21.865 61.4516C21.4964 61.1473 21.1264 60.8418 20.729 60.5917C20.4936 60.4435 20.2851 60.3367 20.0058 60.3056C19.9572 60.3004 19.9085 60.2967 19.8596 60.2945C19.8485 60.2941 19.8376 60.2942 19.8266 60.2944Z" fill="#212538"/>
<path d="M46.1683 95.3973C46.0809 94.9902 45.9733 94.4893 45.8124 94.2569C45.5508 94.6654 45.2497 95.0188 44.9047 95.3703C44.9069 95.3937 44.9091 95.4172 44.9112 95.4408C44.913 95.4613 44.9147 95.482 44.9165 95.5026L44.9206 95.5513L44.9206 95.5519L44.9206 95.5522C44.943 95.8209 44.9656 96.0932 45.0572 96.3477C45.0709 96.3575 45.0821 96.3661 45.092 96.3737C45.1323 96.4047 45.1508 96.4189 45.2235 96.4218C45.3231 96.3601 45.4227 96.2969 45.5223 96.2336L45.5233 96.2329C45.7648 96.0796 46.0076 95.9255 46.2578 95.7886C46.2296 95.6826 46.2003 95.5462 46.1683 95.3973Z" fill="#212538"/>
</svg>
