<svg width="32" height="33" viewBox="0 0 32 33" fill="none" xmlns="http://www.w3.org/2000/svg">
<path d="M29.8645 18.933V6.83043C29.8645 5.56167 28.836 4.53314 27.5672 4.53314H18.4525H12.4403H4.43303C3.16427 4.53314 2.13574 5.56167 2.13574 6.83043V18.933C2.13574 26.59 8.34305 32.7973 16.0001 32.7973C23.6572 32.7973 29.8645 26.5901 29.8645 18.933Z" fill="#0F121A"/>
<path d="M14.9386 5.00402C14.861 3.92292 15.2964 2.78422 16.0779 2.03532C16.6827 1.45575 17.7621 0.772323 18.6496 0.798037C19.7173 0.828982 20.0712 2.18357 19.3327 2.85807C18.9864 3.13191 18.771 3.08375 18.3896 3.217C17.568 3.50395 17.2437 4.26475 17.2631 5.07059C17.0868 5.05382 16.9162 5.03838 16.7419 5.00402C16.142 5.02436 15.5389 4.98947 14.9386 5.00402Z" fill="#0F121A"/>
<path d="M14.971 8.57281C15.5529 8.56034 16.1375 8.59024 16.7189 8.57281C16.8879 8.60225 17.0532 8.61548 17.2242 8.62984C19.5865 8.75955 22.4689 10.0986 23.9966 11.6278C24.4449 12.0766 24.7671 12.5949 24.7211 13.2086C24.6728 13.8513 24.2651 14.0808 23.6867 14.344C23.0752 14.5016 22.4172 14.4606 21.7869 14.4602L10.1043 14.4603C9.48096 14.4602 8.83145 14.4905 8.23583 14.3003C7.31465 13.9382 6.98313 12.8588 7.56453 12.136C9.08301 10.2484 11.6192 9.04757 14.1762 8.70119C14.2977 8.68473 14.9046 8.65575 14.971 8.57281Z" fill="#6FE2BB"/>
<path d="M9.1369 16.3229C9.66338 16.5131 10.2375 16.4829 10.7885 16.483L21.1149 16.4828C21.6721 16.4832 22.2537 16.5242 22.7942 16.3666C23.7477 17.6202 23.8349 20.0972 23.4631 21.5376C22.6425 24.7172 19.2678 28.6249 15.6852 28.3811C13.6748 28.2443 11.9765 26.9253 10.6972 25.4565C8.91822 23.4139 7.98603 21.0437 8.47765 18.3409C8.55047 17.9407 8.87974 16.5466 9.1369 16.3229Z" fill="#6FE2BB"/>
</svg>
