<svg width="180" height="180" viewBox="0 0 180 180" fill="none" xmlns="http://www.w3.org/2000/svg">
<g clip-path="url(#clip0_334_1731)">
<path d="M115.702 -0.00195312L8.61938 43.761L20.3306 72.4169V67.447C20.3306 63.6203 21.1206 60.4355 22.7006 57.8927C24.3054 55.3498 26.4532 53.4488 29.1442 52.1897C31.8352 50.9306 34.8225 50.3011 38.106 50.3011C40.4267 50.3011 42.4881 50.4862 44.2904 50.8566C46.0926 51.2269 47.4258 51.5602 48.2899 51.8564L45.6235 62.2254C45.0557 62.0526 44.3398 61.8798 43.4757 61.707C42.6116 61.5095 41.6487 61.4107 40.5872 61.4107C38.0937 61.4107 36.3285 62.0156 35.2916 63.2253C34.2793 64.4103 33.7733 66.1138 33.7733 68.3357V72.8166H45.5495V72.985H56.2687C56.6871 69.6425 57.7138 66.6486 59.3487 64.0033C61.546 60.4482 64.5703 57.6955 68.4216 55.7451C72.2976 53.7947 76.7415 52.8196 81.7532 52.8196C86.8389 52.8196 91.3075 53.7701 95.1588 55.671C99.0102 57.572 101.997 60.1766 104.121 63.4848C106.268 66.793 107.342 70.5703 107.342 74.8167C107.342 77.6558 106.799 80.4456 105.713 83.1859C104.627 85.9263 102.713 88.963 99.973 92.2958C97.2573 95.6287 93.443 99.6652 88.5301 104.405L75.4577 117.7V118.218H108.49V118.232H116.253V53.8579H133.066L155.581 108.814H156.47L158.324 104.289L115.702 -0.00195312Z" fill="#FFDD33"/>
<path d="M164.763 120.043L160.951 129.478H151.1L130.14 77.4844H129.437V129.7L56.4973 129.698V119.774L82.8271 93.9623C85.3453 91.4194 87.4438 89.1605 89.1226 87.1854C90.8014 85.2104 92.0605 83.297 92.8999 81.4454C93.7393 79.5938 94.159 77.6188 94.159 75.5203C94.159 73.1255 93.6158 71.0764 92.5295 69.3729C91.4433 67.6448 89.9496 66.3116 88.0486 65.3735C86.1477 64.4353 83.9875 63.9662 81.568 63.9662C79.0745 63.9662 76.8896 64.4847 75.0133 65.5216C73.1371 66.5338 71.6805 67.9781 70.6436 69.8544C69.6313 71.7307 69.1252 73.9649 69.1252 76.5572H69.0113V83.2293H41.6429V83.1856H33.7733V105.31L64.2971 179.998L171.38 136.235L164.763 120.043Z" fill="#FFDD33"/>
</g>
<defs>
<clipPath id="clip0_334_1731">
<rect width="180" height="180" fill="white"/>
</clipPath>
</defs>
</svg>
