<svg width="204" height="70" viewBox="0 0 204 70" fill="none" xmlns="http://www.w3.org/2000/svg">
<rect x="77.9803" y="17.5132" width="44.0547" height="56.0488" transform="rotate(-22.229 77.9803 17.5132)" fill="#FFDD33"/>
<mask id="mask0_332_227" style="mask-type:alpha" maskUnits="userSpaceOnUse" x="0" y="19" width="204" height="33">
<path fill-rule="evenodd" clip-rule="evenodd" d="M157.316 28.1513V50.5727H162.6V28.1513H157.316ZM157.812 24.1371C158.415 24.6918 159.135 24.9691 159.972 24.9691C160.819 24.9691 161.539 24.6918 162.133 24.1371C162.736 23.5727 163.038 22.8963 163.038 22.1081C163.038 21.3101 162.736 20.6338 162.133 20.0791C161.539 19.5146 160.819 19.2324 159.972 19.2324C159.135 19.2324 158.415 19.5146 157.812 20.0791C157.208 20.6338 156.907 21.3101 156.907 22.1081C156.907 22.8963 157.208 23.5727 157.812 24.1371ZM96.1095 46.6537V50.5658H116.604V50.5657H120.425V50.5727H125.709V36.9389C125.709 36.0144 125.894 35.2067 126.264 34.5157C126.633 33.8151 127.13 33.275 127.752 32.8954C128.375 32.5062 129.066 32.3115 129.825 32.3115C130.944 32.3115 131.849 32.657 132.54 33.3479C133.241 34.0389 133.591 34.9634 133.591 36.1214V50.5727H138.773V36.5885C138.773 35.3234 139.129 34.2968 139.839 33.5085C140.559 32.7105 141.557 32.3115 142.831 32.3115C143.902 32.3115 144.807 32.6375 145.547 33.2895C146.286 33.9318 146.656 34.9488 146.656 36.3404V50.5727H151.955V35.5229C151.955 33.0219 151.303 31.1194 149.999 29.8154C148.695 28.5114 147.011 27.8594 144.948 27.8594C143.323 27.8594 141.917 28.234 140.729 28.9834C139.552 29.723 138.715 30.7156 138.219 31.9612H137.985C137.557 30.6961 136.817 29.6986 135.766 28.9688C134.725 28.2292 133.445 27.8594 131.927 27.8594C130.429 27.8594 129.139 28.2243 128.059 28.9542C126.979 29.6743 126.205 30.6766 125.738 31.9612H125.475V28.1513H120.425V46.0456H116.604V46.0407H103.583V45.8363L108.736 40.5959C110.673 38.7274 112.176 37.1363 113.247 35.8226C114.327 34.5088 115.081 33.3119 115.509 32.2317C115.937 31.1515 116.152 30.0518 116.152 28.9327C116.152 27.2589 115.728 25.77 114.882 24.466C114.045 23.1619 112.867 22.1353 111.349 21.3859C109.831 20.6366 108.07 20.262 106.065 20.262C104.089 20.262 102.338 20.6463 100.81 21.4151C99.2917 22.1839 98.0996 23.269 97.2335 24.6703C96.5997 25.6958 96.1978 26.8542 96.0278 28.1455H90.2543V28.1513H86.3913V26.3851C86.3913 25.5092 86.5907 24.8378 86.9897 24.3706C87.3985 23.8938 88.0943 23.6554 89.0771 23.6554C89.4956 23.6554 89.8751 23.6943 90.2157 23.7722C90.5563 23.8403 90.8385 23.9084 91.0624 23.9765L92.1134 19.8893C91.7728 19.7725 91.2473 19.6411 90.5369 19.4952C89.8265 19.3492 89.0139 19.2762 88.0991 19.2762C86.8048 19.2762 85.6273 19.5244 84.5666 20.0207C83.5059 20.517 82.6592 21.2663 82.0267 22.2686C81.4039 23.271 81.0925 24.5263 81.0925 26.0347V28.1513H77.7789V32.2385H81.0925V50.5727H86.3913V32.2385H90.2543V32.2485H101.042V29.6188H101.087C101.087 28.597 101.287 27.7163 101.686 26.9767C102.094 26.2371 102.669 25.6678 103.408 25.2688C104.148 24.8601 105.009 24.6557 105.992 24.6557C106.946 24.6557 107.797 24.8406 108.546 25.2104C109.296 25.5802 109.884 26.1057 110.313 26.7869C110.741 27.4584 110.955 28.2661 110.955 29.2101C110.955 30.0372 110.789 30.8157 110.459 31.5456C110.128 32.2755 109.631 33.0297 108.97 33.8082C108.308 34.5867 107.481 35.4771 106.488 36.4795L96.1095 46.6537ZM187.495 49.5655C189.101 50.5289 190.999 51.0106 193.188 51.0106C195.378 51.0106 197.275 50.5289 198.881 49.5655C200.487 48.602 201.728 47.2542 202.603 45.522C203.489 43.7898 203.932 41.7657 203.932 39.4496C203.932 37.1335 203.489 35.1045 202.603 33.3625C201.728 31.6206 200.487 30.2679 198.881 29.3045C197.275 28.3411 195.378 27.8594 193.188 27.8594C190.999 27.8594 189.101 28.3411 187.495 29.3045C185.89 30.2679 184.644 31.6206 183.758 33.3625C182.883 35.1045 182.445 37.1335 182.445 39.4496C182.445 41.7657 182.883 43.7898 183.758 45.522C184.644 47.2542 185.89 48.602 187.495 49.5655ZM196.195 45.7994C195.397 46.4514 194.405 46.7774 193.217 46.7774C192.001 46.7774 190.989 46.4514 190.181 45.7994C189.383 45.1376 188.785 44.2521 188.386 43.1427C187.996 42.0333 187.802 40.7974 187.802 39.435C187.802 38.0628 187.996 36.8221 188.386 35.7127C188.785 34.5936 189.383 33.7031 190.181 33.0414C190.989 32.3797 192.001 32.0488 193.217 32.0488C194.405 32.0488 195.397 32.3797 196.195 33.0414C196.993 33.7031 197.587 34.5936 197.976 35.7127C198.375 36.8221 198.575 38.0628 198.575 39.435C198.575 40.7974 198.375 42.0333 197.976 43.1427C197.587 44.2521 196.993 45.1376 196.195 45.7994ZM168.034 50.5727V28.1513H173.157V31.8882H173.391C173.799 30.5939 174.5 29.5965 175.493 28.8958C176.495 28.1854 177.638 27.8302 178.923 27.8302C179.215 27.8302 179.541 27.8448 179.901 27.874C180.271 27.8934 180.577 27.9275 180.821 27.9762V32.837C180.597 32.7592 180.242 32.6911 179.755 32.6327C179.278 32.5646 178.816 32.5305 178.368 32.5305C177.405 32.5305 176.539 32.7397 175.77 33.1582C175.011 33.5669 174.413 34.1362 173.975 34.866C173.537 35.5959 173.318 36.4377 173.318 37.3914V50.5727H168.034ZM75.5382 28.1513V32.2385H70.8963V50.5727H65.5975V32.2385H62.2839V28.1513H65.5975V26.0347C65.5975 24.5263 65.9089 23.271 66.5317 22.2686C67.1643 21.2663 68.0109 20.517 69.0716 20.0207C70.1324 19.5244 71.3099 19.2762 72.6042 19.2762C73.5189 19.2762 74.3315 19.3492 75.0419 19.4952C75.7523 19.6411 76.2778 19.7725 76.6184 19.8893L75.5674 23.9765C75.3436 23.9084 75.0614 23.8403 74.7208 23.7722C74.3802 23.6943 74.0006 23.6554 73.5822 23.6554C72.5993 23.6554 71.9035 23.8938 71.4948 24.3706C71.0958 24.8378 70.8963 25.5092 70.8963 26.3851V28.1513H75.5382ZM53.4636 28.1513V41.1429C53.4636 42.2814 53.2251 43.2303 52.7483 43.9893C52.2812 44.7386 51.6827 45.3031 50.9528 45.6826C50.223 46.0621 49.4688 46.2519 48.6903 46.2519C47.4252 46.2519 46.4034 45.8334 45.6249 44.9965C44.8463 44.1596 44.4571 43.0308 44.4571 41.61V28.1513H39.1729V42.4274C39.1729 44.218 39.4892 45.7458 40.1217 47.0109C40.7542 48.2663 41.6301 49.2248 42.7492 49.8866C43.8781 50.5386 45.1772 50.8646 46.6467 50.8646C48.3302 50.8646 49.7461 50.4656 50.8944 49.6676C52.0525 48.8696 52.8845 47.843 53.3906 46.5876H53.6241V50.5727H58.7478V28.1513H53.4636ZM34.7536 28.1513V32.2385H30.3306V43.8287C30.3306 44.5391 30.4377 45.0841 30.6517 45.4636C30.8756 45.8334 31.1675 46.0864 31.5276 46.2227C31.8876 46.3589 32.2866 46.427 32.7246 46.427C33.0554 46.427 33.3571 46.4027 33.6296 46.3541C33.9118 46.3054 34.1259 46.2616 34.2719 46.2227L35.1623 50.3537C34.8801 50.451 34.4762 50.5581 33.9507 50.6748C33.435 50.7916 32.8024 50.8597 32.0531 50.8792C30.7296 50.9181 29.5375 50.7186 28.4768 50.2807C27.416 49.8331 26.5743 49.1421 25.9514 48.2079C25.3384 47.2737 25.0367 46.1059 25.0464 44.7046V32.2385H21.8642V28.1513H25.0464V22.7795H30.3306V28.1513H34.7536ZM13.9014 34.6033L18.7185 34.0778C18.3585 32.1704 17.4194 30.6572 15.9013 29.5381C14.3929 28.4189 12.3249 27.8594 9.69744 27.8594C7.90685 27.8594 6.32548 28.1416 4.95334 28.706C3.59093 29.2607 2.52534 30.049 1.75655 31.0708C0.997494 32.0828 0.622832 33.2798 0.632563 34.6617C0.622832 36.2966 1.13373 37.6493 2.16527 38.7197C3.19681 39.7804 4.78791 40.5346 6.93856 40.9823L10.763 41.7851C11.7946 42.009 12.5536 42.3301 13.0402 42.7485C13.5365 43.167 13.7847 43.6974 13.7847 44.3396C13.7847 45.0987 13.4003 45.7361 12.6315 46.2519C11.8724 46.7676 10.8652 47.0255 9.60986 47.0255C8.39342 47.0255 7.40568 46.7676 6.64662 46.2519C5.88756 45.7361 5.39126 44.9722 5.1577 43.9601L0.00488281 44.4564C0.326022 46.5195 1.3235 48.1301 2.99731 49.2881C4.67113 50.4364 6.88017 51.0106 9.62445 51.0106C11.4929 51.0106 13.1472 50.7089 14.5875 50.1055C16.0278 49.5022 17.1518 48.6653 17.9595 47.5948C18.7769 46.5146 19.1905 45.269 19.2002 43.8579C19.1905 42.2522 18.665 40.9531 17.6237 39.9605C16.5922 38.9679 15.0157 38.2429 12.8942 37.7855L9.06976 36.968C7.93117 36.7053 7.11373 36.3696 6.61742 35.9608C6.13085 35.5521 5.89243 35.0218 5.90216 34.3697C5.89243 33.6107 6.25736 32.9927 6.99695 32.5159C7.74628 32.0391 8.67077 31.8006 9.77042 31.8006C10.5879 31.8006 11.2788 31.932 11.8432 32.1948C12.4077 32.4575 12.8553 32.803 13.1862 33.2312C13.5268 33.6593 13.7652 34.1167 13.9014 34.6033Z" fill="url(#paint0_linear_332_227)"/>
</mask>
<g mask="url(#mask0_332_227)">
<rect x="-8.05115" y="5.41846" width="102.712" height="56.0488" fill="#7366F1"/>
<rect x="118.405" y="5.41846" width="102.712" height="56.0488" fill="#5AA7EE"/>
<rect x="77.9803" y="17.5132" width="44.0547" height="56.0488" transform="rotate(-22.229 77.9803 17.5132)" fill="#27215A"/>
<rect x="-22.4896" y="23.7925" width="44.0547" height="56.0488" transform="rotate(-22.229 -22.4896 23.7925)" fill="#27215A"/>
<rect x="169.877" y="17.5171" width="44.0547" height="56.0488" transform="rotate(-22.229 169.877 17.5171)" fill="#27215A"/>
</g>
<defs>
<linearGradient id="paint0_linear_332_227" x1="-9.31125" y1="35.0775" x2="213.159" y2="35.0775" gradientUnits="userSpaceOnUse">
<stop stop-color="#4A6F0E"/>
<stop offset="0.36" stop-color="#E52575"/>
<stop offset="0.415" stop-color="#DD29ED"/>
<stop offset="0.76" stop-color="#131BC7"/>
</linearGradient>
</defs>
</svg>
