<svg width="207" height="72" viewBox="0 0 207 72" fill="none" xmlns="http://www.w3.org/2000/svg">
<rect x="80.5234" y="17.9375" width="45.5986" height="58.0131" transform="rotate(-22.229 80.5234 17.9375)" fill="#FFDD33"/>
<path d="M85.1395 29.2323V29.3898H81.826V33.477H85.1395V51.8111H90.4383V42.1978L85.1395 29.2323Z" fill="#7366F1"/>
<path d="M39.1746 51.4306L38.319 47.4611C38.173 47.5001 37.9589 47.5438 37.6767 47.5925C37.6548 47.5964 37.6328 47.6001 37.6106 47.6037L39.1746 51.4306Z" fill="#7366F1"/>
<path d="M34.3777 39.6933V33.477H38.8007V29.3898H34.3777V24.018H29.0935V26.7634L34.3777 39.6933Z" fill="#7366F1"/>
<path d="M79.5853 33.477V29.3898H74.9434V27.6235C74.9434 26.7477 75.1429 26.0762 75.5419 25.6091C75.9506 25.1322 76.6464 24.8938 77.6293 24.8938C78.0477 24.8938 78.4273 24.9327 78.7679 25.0106C79.1085 25.0787 79.3907 25.1468 79.6145 25.215L80.6655 21.1277C80.3249 21.011 79.7994 20.8796 79.089 20.7336C78.3786 20.5876 77.566 20.5146 76.6513 20.5146C75.357 20.5146 74.1795 20.7628 73.1187 21.2591C72.058 21.7554 71.2114 22.5047 70.5788 23.5071C69.956 24.5094 69.6446 25.7648 69.6446 27.2732V29.3898H66.331V33.477H69.6446V51.8111H74.9434V33.477H79.5853Z" fill="#7366F1"/>
<path d="M57.5106 42.3813V29.3898H62.7948V51.8111H57.6712V47.8261H57.4377C56.9316 49.0814 56.0996 50.1081 54.9415 50.9061C53.7932 51.7041 52.3773 52.103 50.6937 52.103C49.2243 52.103 47.9251 51.777 46.7963 51.125C45.6772 50.4633 44.8013 49.5047 44.1688 48.2494C43.5362 46.9843 43.22 45.4564 43.22 43.6659V29.3898H48.5042V42.8484C48.5042 44.2692 48.8934 45.3981 49.6719 46.235C50.4505 47.0719 51.4723 47.4903 52.7374 47.4903C53.5159 47.4903 54.2701 47.3006 54.9999 46.921C55.7298 46.5415 56.3283 45.9771 56.7954 45.2278C57.2722 44.4687 57.5106 43.5199 57.5106 42.3813Z" fill="#7366F1"/>
<path d="M186.141 35.18L192.99 51.9391C191.959 51.6996 191.011 51.321 190.148 50.8033C188.543 49.8398 187.297 48.492 186.412 46.7598C185.536 45.0276 185.098 43.0035 185.098 40.6874C185.098 38.6236 185.446 36.7878 186.141 35.18Z" fill="#5AA7EE"/>
<path d="M142.071 48.0047L148.831 31.2722H149.108V51.8105H154.305V21.9153H147.678L139.533 41.7947L142.071 48.0047Z" fill="#5AA7EE"/>
<path d="M159.969 51.8105V29.3891H165.253V51.8105H159.969Z" fill="#5AA7EE"/>
<path d="M162.625 26.2069C161.788 26.2069 161.068 25.9296 160.465 25.3749C159.862 24.8105 159.56 24.1341 159.56 23.3459C159.56 22.5479 159.862 21.8715 160.465 21.3169C161.068 20.7524 161.788 20.4702 162.625 20.4702C163.472 20.4702 164.192 20.7524 164.786 21.3169C165.389 21.8715 165.691 22.5479 165.691 23.3459C165.691 24.1341 165.389 24.8105 164.786 25.3749C164.192 25.9296 163.472 26.2069 162.625 26.2069Z" fill="#5AA7EE"/>
<path d="M170.687 29.3891V51.8105H175.971V38.6292C175.971 37.6755 176.19 36.8337 176.628 36.1038C177.066 35.374 177.664 34.8047 178.423 34.396C179.192 33.9775 180.058 33.7683 181.022 33.7683C181.469 33.7683 181.931 33.8023 182.408 33.8705C182.895 33.9289 183.25 33.997 183.474 34.0748V29.214C183.231 29.1653 182.924 29.1312 182.554 29.1118C182.194 29.0826 181.868 29.068 181.576 29.068C180.292 29.068 179.148 29.4232 178.146 30.1336C177.153 30.8342 176.453 31.8317 176.044 33.126H175.81V29.3891H170.687Z" fill="#5AA7EE"/>
<path d="M90.4383 42.1978L85.1395 29.2323V27.2732C85.1395 25.7648 85.4509 24.5094 86.0738 23.5071C86.7063 22.5047 87.5529 21.7554 88.6137 21.2591C89.6744 20.7628 90.8519 20.5146 92.1462 20.5146C93.061 20.5146 93.8735 20.5876 94.5839 20.7336C95.2943 20.8796 95.8198 21.011 96.1604 21.1277L95.1094 25.215C94.8856 25.1468 94.6034 25.0787 94.2628 25.0106C93.9222 24.9327 93.5427 24.8938 93.1242 24.8938C92.1413 24.8938 91.4455 25.1322 91.0368 25.6091C90.6378 26.0762 90.4383 26.7477 90.4383 27.6235V29.3898H95.0802V29.4561H99.3056C99.4705 28.1385 99.8752 26.9584 100.52 25.9157C101.386 24.5144 102.578 23.4293 104.096 22.6605C105.624 21.8917 107.376 21.5073 109.351 21.5073C111.356 21.5073 113.117 21.882 114.635 22.6313C116.153 23.3806 117.331 24.4073 118.168 25.7113C119.014 27.0153 119.438 28.5043 119.438 30.1781C119.438 31.2972 119.224 32.3969 118.795 33.477C118.367 34.5572 117.613 35.7542 116.533 37.068C115.462 38.3817 113.959 39.9728 112.022 41.8413L106.869 47.0817V47.286H119.89V47.291H122.95V21.9158H129.577L138.452 43.5781H138.803L139.533 41.795L142.071 48.005L140.569 51.7234H136.686L128.424 31.2289H128.147V51.8109L99.3957 51.8112V47.8991L109.774 37.7248C110.767 36.7225 111.594 35.8321 112.256 35.0535C112.918 34.275 113.414 33.5208 113.745 32.791C114.076 32.0611 114.241 31.2826 114.241 30.4554C114.241 29.5115 114.027 28.7038 113.599 28.0323C113.171 27.3511 112.582 26.8256 111.833 26.4558C111.083 26.086 110.232 25.9011 109.278 25.9011C108.295 25.9011 107.434 26.1054 106.694 26.5142C105.955 26.9132 105.381 27.4825 104.972 28.222C104.573 28.9616 104.373 29.8423 104.373 30.8641H104.328V33.4941H93.5405V33.477H90.4383V42.1978Z" fill="#27215A"/>
<path d="M37.6105 47.6038L39.1746 51.431L39.2093 51.5922C38.9271 51.6895 38.5233 51.7966 37.9978 51.9133C37.482 52.0301 36.8495 52.0982 36.1001 52.1177C34.7766 52.1566 33.5845 51.9571 32.5238 51.5192C31.4631 51.0716 30.6213 50.3806 29.9985 49.4464C29.3854 48.5122 29.0837 47.3444 29.0935 45.9431V33.4771H25.9113V29.3898H29.0935V26.7636L34.3777 39.6934V45.0672C34.3777 45.7776 34.4847 46.3226 34.6988 46.7021C34.9226 47.0719 35.2146 47.325 35.5746 47.4612C35.9347 47.5974 36.3337 47.6656 36.7716 47.6656C37.0759 47.6656 37.3556 47.645 37.6105 47.6038Z" fill="#27215A"/>
<path d="M17.3901 30.1343C17.2539 28.8595 16.6797 27.8668 15.6677 27.1564C14.6653 26.4461 13.3613 26.0909 11.7556 26.0909C10.6268 26.0909 9.65847 26.2612 8.85076 26.6018C8.04305 26.9424 7.4251 27.4046 6.99691 27.9885C6.56873 28.5724 6.34977 29.239 6.34004 29.9883C6.34004 30.6111 6.48114 31.1512 6.76336 31.6086C7.0553 32.066 7.44943 32.4552 7.94573 32.7764C8.44204 33.0878 8.99187 33.3505 9.59522 33.5646C10.1986 33.7787 10.8068 33.9588 11.4199 34.1047L14.2225 34.8054C15.3514 35.0681 16.4364 35.4233 17.4777 35.871C18.5287 36.3186 19.4678 36.8831 20.295 37.5643C21.1319 38.2455 21.7936 39.0678 22.2802 40.0312C22.7668 40.9946 23.0101 42.1235 23.0101 43.4178C23.0101 45.1694 22.5624 46.7119 21.6671 48.0451C20.7718 49.3686 19.4775 50.405 17.7843 51.1543C16.1007 51.8939 14.062 52.2637 11.668 52.2637C9.3422 52.2637 7.32292 51.9036 5.61018 51.1835C3.90717 50.4633 2.57395 49.4123 1.61054 48.0305C0.656853 46.6486 0.141084 44.9651 0.0632324 42.9798H5.39122C5.46907 44.0211 5.79021 44.8872 6.35464 45.5781C6.91906 46.2691 7.65379 46.7848 8.55882 47.1255C9.47358 47.4661 10.4954 47.6364 11.6242 47.6364C12.8017 47.6364 13.8333 47.4612 14.7188 47.1109C15.6141 46.7508 16.3148 46.2545 16.8208 45.6219C17.3269 44.9797 17.5848 44.2303 17.5945 43.374C17.5848 42.5954 17.3561 41.9532 16.9084 41.4471C16.4608 40.9314 15.8331 40.5032 15.0254 40.1626C14.2274 39.8122 13.2932 39.5008 12.2227 39.2284L8.82157 38.3525C6.3595 37.72 4.41321 36.7614 2.98268 35.4769C1.56188 34.1826 0.851483 32.465 0.851483 30.324C0.851483 28.5626 1.32833 27.0202 2.28201 25.6967C3.24543 24.3732 4.55431 23.3466 6.20866 22.6167C7.86302 21.8771 9.73633 21.5073 11.8286 21.5073C13.9501 21.5073 15.8088 21.8771 17.4047 22.6167C19.0104 23.3466 20.2707 24.3635 21.1854 25.6675C22.1002 26.9618 22.5721 28.4507 22.6013 30.1343H17.3901Z" fill="#27215A"/>
<path fill-rule="evenodd" clip-rule="evenodd" d="M192.99 51.9396L186.141 35.1804C186.226 34.9838 186.316 34.7906 186.412 34.6008C187.297 32.8589 188.543 31.5062 190.148 30.5428C191.754 29.5794 193.652 29.0977 195.841 29.0977C198.031 29.0977 199.929 29.5794 201.534 30.5428C203.14 31.5062 204.381 32.8589 205.257 34.6008C206.142 36.3427 206.585 38.3718 206.585 40.6878C206.585 43.0039 206.142 45.0281 205.257 46.7603C204.381 48.4925 203.14 49.8403 201.534 50.8037C199.929 51.7671 198.031 52.2488 195.841 52.2488C194.828 52.2488 193.878 52.1458 192.99 51.9396ZM195.871 48.0157C197.058 48.0157 198.05 47.6897 198.848 47.0376C199.646 46.3759 200.24 45.4903 200.629 44.3809C201.028 43.2716 201.228 42.0357 201.228 40.6733C201.228 39.3011 201.028 38.0604 200.629 36.951C200.24 35.8318 199.646 34.9414 198.848 34.2797C198.05 33.6179 197.058 33.2871 195.871 33.2871C194.654 33.2871 193.642 33.6179 192.834 34.2797C192.036 34.9414 191.438 35.8318 191.039 36.951C190.65 38.0604 190.455 39.3011 190.455 40.6733C190.455 42.0357 190.65 43.2716 191.039 44.3809C191.438 45.4903 192.036 46.3759 192.834 47.0376C193.642 47.6897 194.654 48.0157 195.871 48.0157Z" fill="#27215A"/>
</svg>
